<svg width="792" height="89" viewBox="0 0 792 89" fill="none" xmlns="http://www.w3.org/2000/svg">
<rect width="792" height="89" fill="#1B1B1D"/>
<path d="M182.649 49.1207C182.087 49.1184 181.608 48.9704 181.21 48.6768C180.813 48.3833 180.508 47.956 180.298 47.3949C180.087 46.8338 179.982 46.1579 179.982 45.3672C179.982 44.5788 180.087 43.9053 180.298 43.3466C180.511 42.7879 180.816 42.3617 181.214 42.0682C181.614 41.7746 182.092 41.6278 182.649 41.6278C183.205 41.6278 183.682 41.7758 184.08 42.0717C184.477 42.3653 184.782 42.7914 184.992 43.3501C185.205 43.9065 185.312 44.5788 185.312 45.3672C185.312 46.1603 185.207 46.8374 184.996 47.3984C184.785 47.9571 184.481 48.3845 184.083 48.6804C183.685 48.974 183.207 49.1207 182.649 49.1207ZM182.649 48.1726C183.141 48.1726 183.526 47.9323 183.803 47.4517C184.082 46.9711 184.222 46.2763 184.222 45.3672C184.222 44.7635 184.158 44.2533 184.03 43.8366C183.904 43.4176 183.723 43.1004 183.487 42.8849C183.252 42.6671 182.973 42.5582 182.649 42.5582C182.158 42.5582 181.774 42.7997 181.494 43.2827C181.215 43.7656 181.074 44.4605 181.072 45.3672C181.072 45.9732 181.135 46.4858 181.26 46.9048C181.388 47.3215 181.569 47.6375 181.803 47.853C182.038 48.0661 182.319 48.1726 182.649 48.1726ZM190.908 47.7926L186.824 43.7088L187.495 43.0376L191.579 47.1214L190.908 47.7926ZM187.495 47.7926L186.824 47.1214L190.908 43.0376L191.579 43.7088L187.495 47.7926ZM195.764 49.1207C195.203 49.1184 194.723 48.9704 194.326 48.6768C193.928 48.3833 193.624 47.956 193.413 47.3949C193.202 46.8338 193.097 46.1579 193.097 45.3672C193.097 44.5788 193.202 43.9053 193.413 43.3466C193.626 42.7879 193.931 42.3617 194.329 42.0682C194.729 41.7746 195.207 41.6278 195.764 41.6278C196.32 41.6278 196.797 41.7758 197.195 42.0717C197.593 42.3653 197.897 42.7914 198.108 43.3501C198.321 43.9065 198.427 44.5788 198.427 45.3672C198.427 46.1603 198.322 46.8374 198.111 47.3984C197.9 47.9571 197.596 48.3845 197.198 48.6804C196.801 48.974 196.322 49.1207 195.764 49.1207ZM195.764 48.1726C196.256 48.1726 196.641 47.9323 196.918 47.4517C197.197 46.9711 197.337 46.2763 197.337 45.3672C197.337 44.7635 197.273 44.2533 197.145 43.8366C197.02 43.4176 196.839 43.1004 196.602 42.8849C196.367 42.6671 196.088 42.5582 195.764 42.5582C195.274 42.5582 194.889 42.7997 194.61 43.2827C194.33 43.7656 194.189 44.4605 194.187 45.3672C194.187 45.9732 194.25 46.4858 194.375 46.9048C194.503 47.3215 194.684 47.6375 194.919 47.853C195.153 48.0661 195.435 48.1726 195.764 48.1726ZM199.737 49L202.911 42.7216V42.6683H199.239V41.7273H204.048V42.7003L200.884 49H199.737Z" fill="white"/>
<path d="M190.049 27L193.224 20.7216V20.6683H189.552V19.7273H194.36V20.7003L191.196 27H190.049Z" fill="white"/>
<path d="M216.395 49.1207C215.834 49.1184 215.354 48.9704 214.956 48.6768C214.559 48.3833 214.254 47.956 214.044 47.3949C213.833 46.8338 213.728 46.1579 213.728 45.3672C213.728 44.5788 213.833 43.9053 214.044 43.3466C214.257 42.7879 214.562 42.3617 214.96 42.0682C215.36 41.7746 215.838 41.6278 216.395 41.6278C216.951 41.6278 217.428 41.7758 217.826 42.0717C218.223 42.3653 218.528 42.7914 218.738 43.3501C218.951 43.9065 219.058 44.5788 219.058 45.3672C219.058 46.1603 218.953 46.8374 218.742 47.3984C218.531 47.9571 218.227 48.3845 217.829 48.6804C217.432 48.974 216.953 49.1207 216.395 49.1207ZM216.395 48.1726C216.887 48.1726 217.272 47.9323 217.549 47.4517C217.828 46.9711 217.968 46.2763 217.968 45.3672C217.968 44.7635 217.904 44.2533 217.776 43.8366C217.651 43.4176 217.469 43.1004 217.233 42.8849C216.998 42.6671 216.719 42.5582 216.395 42.5582C215.905 42.5582 215.52 42.7997 215.241 43.2827C214.961 43.7656 214.82 44.4605 214.818 45.3672C214.818 45.9732 214.881 46.4858 215.006 46.9048C215.134 47.3215 215.315 47.6375 215.549 47.853C215.784 48.0661 216.066 48.1726 216.395 48.1726ZM224.654 47.7926L220.57 43.7088L221.241 43.0376L225.325 47.1214L224.654 47.7926ZM221.241 47.7926L220.57 47.1214L224.654 43.0376L225.325 43.7088L221.241 47.7926ZM229.517 49.0994C229.193 49.0947 228.873 49.0355 228.558 48.9219C228.246 48.8082 227.962 48.6188 227.706 48.3537C227.45 48.0885 227.245 47.7322 227.092 47.2848C226.94 46.8374 226.864 46.2786 226.864 45.6087C226.864 44.9742 226.927 44.4107 227.052 43.9183C227.18 43.4259 227.364 43.0104 227.603 42.6719C227.842 42.331 228.131 42.0717 228.469 41.8942C228.808 41.7166 229.188 41.6278 229.609 41.6278C230.043 41.6278 230.427 41.7131 230.763 41.8835C231.1 42.054 231.372 42.2895 231.58 42.5902C231.791 42.8909 231.925 43.233 231.981 43.6165H230.898C230.825 43.3134 230.679 43.0661 230.462 42.8743C230.244 42.6825 229.96 42.5866 229.609 42.5866C229.077 42.5866 228.661 42.8187 228.363 43.2827C228.067 43.7467 227.918 44.3918 227.915 45.218H227.969C228.094 45.0121 228.248 44.8369 228.43 44.6925C228.615 44.5457 228.821 44.4332 229.048 44.3551C229.278 44.2746 229.519 44.2344 229.773 44.2344C230.194 44.2344 230.575 44.3374 230.916 44.5433C231.259 44.7469 231.533 45.0286 231.736 45.3885C231.94 45.7483 232.042 46.1603 232.042 46.6243C232.042 47.0883 231.936 47.5085 231.726 47.8849C231.517 48.2614 231.224 48.5597 230.845 48.7798C230.466 48.9976 230.024 49.1042 229.517 49.0994ZM229.513 48.1761C229.793 48.1761 230.043 48.1075 230.263 47.9702C230.483 47.8329 230.657 47.6482 230.785 47.4162C230.913 47.1842 230.976 46.925 230.976 46.6385C230.976 46.3591 230.914 46.1046 230.788 45.875C230.665 45.6454 230.495 45.4631 230.277 45.3281C230.061 45.1932 229.815 45.1257 229.538 45.1257C229.328 45.1257 229.132 45.166 228.952 45.2464C228.775 45.3269 228.619 45.4382 228.484 45.5803C228.349 45.7223 228.242 45.8857 228.164 46.0703C228.088 46.2526 228.05 46.4455 228.05 46.6491C228.05 46.9214 228.113 47.1735 228.239 47.4055C228.366 47.6375 228.54 47.8246 228.761 47.9666C228.983 48.1063 229.234 48.1761 229.513 48.1761ZM235.736 49.0994C235.291 49.0994 234.891 49.0142 234.536 48.8438C234.183 48.6709 233.901 48.4342 233.69 48.1335C233.48 47.8329 233.367 47.4896 233.353 47.1037H234.418C234.444 47.4162 234.583 47.6731 234.834 47.8743C235.085 48.0755 235.386 48.1761 235.736 48.1761C236.015 48.1761 236.263 48.1122 236.478 47.9844C236.696 47.8542 236.866 47.6754 236.989 47.4482C237.115 47.2209 237.178 46.9616 237.178 46.6705C237.178 46.3745 237.114 46.1106 236.986 45.8786C236.858 45.6465 236.682 45.4643 236.457 45.3317C236.234 45.1991 235.979 45.1316 235.69 45.1293C235.47 45.1293 235.248 45.1671 235.026 45.2429C234.803 45.3187 234.623 45.4181 234.486 45.5412L233.481 45.392L233.889 41.7273H237.888V42.6683H234.802L234.571 44.7031H234.614C234.756 44.5658 234.944 44.451 235.178 44.3587C235.415 44.2663 235.668 44.2202 235.938 44.2202C236.381 44.2202 236.775 44.3255 237.121 44.5362C237.469 44.7469 237.742 45.0346 237.941 45.3991C238.142 45.7614 238.242 46.178 238.239 46.6491C238.242 47.1203 238.135 47.5405 237.92 47.9098C237.707 48.2791 237.411 48.5703 237.032 48.7834C236.656 48.9941 236.224 49.0994 235.736 49.0994Z" fill="white"/>
<path d="M226.13 27.1101C225.593 27.1101 225.13 26.9953 224.742 26.7656C224.356 26.5336 224.057 26.2081 223.847 25.7891C223.638 25.3677 223.534 24.8741 223.534 24.3082C223.534 23.7495 223.638 23.2571 223.847 22.831C224.057 22.4048 224.351 22.0722 224.727 21.8331C225.106 21.594 225.549 21.4744 226.055 21.4744C226.363 21.4744 226.662 21.5253 226.95 21.6271C227.239 21.7289 227.498 21.8887 227.728 22.1065C227.958 22.3243 228.139 22.6072 228.271 22.9553C228.404 23.3009 228.47 23.7211 228.47 24.2159V24.5923H224.134V23.7969H227.43C227.43 23.5175 227.373 23.2701 227.259 23.0547C227.146 22.8369 226.986 22.6652 226.78 22.5398C226.576 22.4143 226.337 22.3516 226.063 22.3516C225.764 22.3516 225.504 22.425 225.281 22.5717C225.061 22.7161 224.891 22.9055 224.77 23.1399C224.652 23.3719 224.592 23.6241 224.592 23.8963V24.5178C224.592 24.8823 224.656 25.1925 224.784 25.4482C224.914 25.7038 225.095 25.8991 225.328 26.0341C225.56 26.1667 225.831 26.233 226.141 26.233C226.342 26.233 226.525 26.2045 226.691 26.1477C226.857 26.0885 227 26.0009 227.121 25.8849C227.242 25.7689 227.334 25.6257 227.398 25.4553L228.403 25.6364C228.322 25.9323 228.178 26.1915 227.97 26.4141C227.764 26.6342 227.504 26.8059 227.192 26.929C226.882 27.0497 226.528 27.1101 226.13 27.1101Z" fill="white"/>
<rect x="-0.5" y="0.5" width="34" height="22" transform="matrix(-1 0 0 1 242 33)" stroke="white"/>
<rect x="-0.5" y="0.5" width="34" height="22" transform="matrix(-1 0 0 1 208 33)" stroke="white"/>
<path d="M250.692 49.1207C250.131 49.1184 249.652 48.9704 249.254 48.6768C248.857 48.3833 248.552 47.956 248.342 47.3949C248.131 46.8338 248.026 46.1579 248.026 45.3672C248.026 44.5788 248.131 43.9053 248.342 43.3466C248.555 42.7879 248.86 42.3617 249.258 42.0682C249.658 41.7746 250.136 41.6278 250.692 41.6278C251.249 41.6278 251.726 41.7758 252.124 42.0717C252.521 42.3653 252.826 42.7914 253.036 43.3501C253.249 43.9065 253.356 44.5788 253.356 45.3672C253.356 46.1603 253.25 46.8374 253.04 47.3984C252.829 47.9571 252.525 48.3845 252.127 48.6804C251.729 48.974 251.251 49.1207 250.692 49.1207ZM250.692 48.1726C251.185 48.1726 251.57 47.9323 251.847 47.4517C252.126 46.9711 252.266 46.2763 252.266 45.3672C252.266 44.7635 252.202 44.2533 252.074 43.8366C251.948 43.4176 251.767 43.1004 251.531 42.8849C251.296 42.6671 251.017 42.5582 250.692 42.5582C250.202 42.5582 249.818 42.7997 249.538 43.2827C249.259 43.7656 249.118 44.4605 249.116 45.3672C249.116 45.9732 249.179 46.4858 249.304 46.9048C249.432 47.3215 249.613 47.6375 249.847 47.853C250.082 48.0661 250.363 48.1726 250.692 48.1726ZM258.952 47.7926L254.868 43.7088L255.539 43.0376L259.623 47.1214L258.952 47.7926ZM255.539 47.7926L254.868 47.1214L258.952 43.0376L259.623 43.7088L255.539 47.7926ZM261.521 49L264.695 42.7216V42.6683H261.024V41.7273H265.832V42.7003L262.668 49H261.521ZM269.378 49.0994C268.869 49.0994 268.419 49.0118 268.028 48.8366C267.64 48.6615 267.336 48.42 267.116 48.1122C266.895 47.8045 266.787 47.4541 266.789 47.0611C266.787 46.7533 266.849 46.4704 266.977 46.2124C267.107 45.9519 267.284 45.7353 267.506 45.5625C267.729 45.3873 267.977 45.276 268.252 45.2287V45.1861C267.89 45.0985 267.6 44.9044 267.382 44.6037C267.164 44.303 267.056 43.9574 267.059 43.5668C267.056 43.1951 267.155 42.8636 267.354 42.5724C267.555 42.2789 267.831 42.0481 268.181 41.88C268.531 41.7119 268.93 41.6278 269.378 41.6278C269.82 41.6278 270.216 41.7131 270.564 41.8835C270.914 42.0516 271.19 42.2824 271.391 42.576C271.592 42.8672 271.694 43.1974 271.697 43.5668C271.694 43.9574 271.583 44.303 271.363 44.6037C271.143 44.9044 270.856 45.0985 270.503 45.1861V45.2287C270.776 45.276 271.021 45.3873 271.238 45.5625C271.459 45.7353 271.634 45.9519 271.764 46.2124C271.897 46.4704 271.964 46.7533 271.966 47.0611C271.964 47.4541 271.853 47.8045 271.633 48.1122C271.412 48.42 271.107 48.6615 270.716 48.8366C270.328 49.0118 269.882 49.0994 269.378 49.0994ZM269.378 48.201C269.678 48.201 269.939 48.1513 270.159 48.0518C270.379 47.95 270.55 47.8092 270.67 47.6293C270.791 47.447 270.853 47.2339 270.855 46.9901C270.853 46.7367 270.786 46.513 270.656 46.3189C270.528 46.1248 270.354 45.9721 270.134 45.8608C269.914 45.7495 269.662 45.6939 269.378 45.6939C269.091 45.6939 268.837 45.7495 268.614 45.8608C268.392 45.9721 268.216 46.1248 268.089 46.3189C267.961 46.513 267.898 46.7367 267.9 46.9901C267.898 47.2339 267.956 47.447 268.074 47.6293C268.195 47.8092 268.367 47.95 268.589 48.0518C268.812 48.1513 269.075 48.201 269.378 48.201ZM269.378 44.8168C269.619 44.8168 269.833 44.7682 270.02 44.6712C270.207 44.5741 270.354 44.4392 270.461 44.2663C270.57 44.0935 270.625 43.8911 270.628 43.6591C270.625 43.4318 270.571 43.233 270.464 43.0625C270.36 42.892 270.215 42.7607 270.028 42.6683C269.84 42.5736 269.624 42.5263 269.378 42.5263C269.127 42.5263 268.907 42.5736 268.717 42.6683C268.53 42.7607 268.385 42.892 268.28 43.0625C268.176 43.233 268.125 43.4318 268.128 43.6591C268.125 43.8911 268.177 44.0935 268.284 44.2663C268.39 44.4392 268.537 44.5741 268.724 44.6712C268.914 44.7682 269.131 44.8168 269.378 44.8168Z" fill="white"/>
<path d="M258.798 21.5455L260.002 23.669L261.216 21.5455H262.377L260.676 24.2727L262.392 27H261.23L260.002 24.9616L258.777 27H257.612L259.309 24.2727L257.633 21.5455H258.798Z" fill="white"/>
<rect x="-0.5" y="0.5" width="34" height="22" transform="matrix(-1 0 0 1 276 33)" stroke="white"/>
<path d="M285.632 49.1207C285.071 49.1184 284.591 48.9704 284.194 48.6768C283.796 48.3833 283.492 47.956 283.281 47.3949C283.07 46.8338 282.965 46.1579 282.965 45.3672C282.965 44.5788 283.07 43.9053 283.281 43.3466C283.494 42.7879 283.8 42.3617 284.197 42.0682C284.597 41.7746 285.076 41.6278 285.632 41.6278C286.188 41.6278 286.665 41.7758 287.063 42.0717C287.461 42.3653 287.765 42.7914 287.976 43.3501C288.189 43.9065 288.295 44.5788 288.295 45.3672C288.295 46.1603 288.19 46.8374 287.979 47.3984C287.769 47.9571 287.464 48.3845 287.067 48.6804C286.669 48.974 286.191 49.1207 285.632 49.1207ZM285.632 48.1726C286.124 48.1726 286.509 47.9323 286.786 47.4517C287.065 46.9711 287.205 46.2763 287.205 45.3672C287.205 44.7635 287.141 44.2533 287.013 43.8366C286.888 43.4176 286.707 43.1004 286.47 42.8849C286.236 42.6671 285.956 42.5582 285.632 42.5582C285.142 42.5582 284.757 42.7997 284.478 43.2827C284.198 43.7656 284.058 44.4605 284.055 45.3672C284.055 45.9732 284.118 46.4858 284.243 46.9048C284.371 47.3215 284.552 47.6375 284.787 47.853C285.021 48.0661 285.303 48.1726 285.632 48.1726ZM293.891 47.7926L289.807 43.7088L290.478 43.0376L294.562 47.1214L293.891 47.7926ZM290.478 47.7926L289.807 47.1214L293.891 43.0376L294.562 43.7088L290.478 47.7926ZM298.754 49.0994C298.43 49.0947 298.11 49.0355 297.795 48.9219C297.483 48.8082 297.199 48.6188 296.943 48.3537C296.688 48.0885 296.483 47.7322 296.329 47.2848C296.177 46.8374 296.102 46.2786 296.102 45.6087C296.102 44.9742 296.164 44.4107 296.29 43.9183C296.418 43.4259 296.601 43.0104 296.84 42.6719C297.079 42.331 297.368 42.0717 297.707 41.8942C298.045 41.7166 298.425 41.6278 298.847 41.6278C299.28 41.6278 299.665 41.7131 300.001 41.8835C300.337 42.054 300.609 42.2895 300.817 42.5902C301.028 42.8909 301.162 43.233 301.219 43.6165H300.136C300.062 43.3134 299.917 43.0661 299.699 42.8743C299.481 42.6825 299.197 42.5866 298.847 42.5866C298.314 42.5866 297.898 42.8187 297.6 43.2827C297.304 43.7467 297.155 44.3918 297.153 45.218H297.206C297.331 45.0121 297.485 44.8369 297.668 44.6925C297.852 44.5457 298.058 44.4332 298.286 44.3551C298.515 44.2746 298.757 44.2344 299.01 44.2344C299.431 44.2344 299.813 44.3374 300.153 44.5433C300.497 44.7469 300.77 45.0286 300.974 45.3885C301.177 45.7483 301.279 46.1603 301.279 46.6243C301.279 47.0883 301.174 47.5085 300.963 47.8849C300.755 48.2614 300.461 48.5597 300.082 48.7798C299.704 48.9976 299.261 49.1042 298.754 49.0994ZM298.751 48.1761C299.03 48.1761 299.28 48.1075 299.5 47.9702C299.72 47.8329 299.894 47.6482 300.022 47.4162C300.15 47.1842 300.214 46.925 300.214 46.6385C300.214 46.3591 300.151 46.1046 300.026 45.875C299.902 45.6454 299.732 45.4631 299.514 45.3281C299.299 45.1932 299.053 45.1257 298.776 45.1257C298.565 45.1257 298.37 45.166 298.19 45.2464C298.012 45.3269 297.856 45.4382 297.721 45.5803C297.586 45.7223 297.479 45.8857 297.401 46.0703C297.326 46.2526 297.288 46.4455 297.288 46.6491C297.288 46.9214 297.35 47.1735 297.476 47.4055C297.604 47.6375 297.778 47.8246 297.998 47.9666C298.22 48.1063 298.471 48.1761 298.751 48.1761ZM305.332 41.7273V49H304.231V42.8281H304.188L302.448 43.9645V42.9134L304.263 41.7273H305.332Z" fill="white"/>
<path d="M293.454 27.1207C293.109 27.1207 292.796 27.0568 292.517 26.929C292.238 26.7988 292.016 26.6106 291.853 26.3643C291.692 26.1181 291.611 25.8163 291.611 25.4588C291.611 25.151 291.671 24.8977 291.789 24.6989C291.907 24.5 292.067 24.3426 292.268 24.2266C292.47 24.1106 292.695 24.023 292.943 23.9638C293.192 23.9046 293.445 23.8596 293.703 23.8288C294.03 23.791 294.295 23.7602 294.498 23.7365C294.702 23.7105 294.85 23.669 294.942 23.6122C295.035 23.5554 295.081 23.4631 295.081 23.3352V23.3104C295.081 23.0002 294.993 22.7599 294.818 22.5895C294.645 22.419 294.387 22.3338 294.044 22.3338C293.686 22.3338 293.405 22.4131 293.199 22.5717C292.995 22.728 292.854 22.902 292.776 23.0938L291.778 22.8665C291.897 22.535 292.07 22.2675 292.297 22.0639C292.526 21.858 292.79 21.7088 293.089 21.6165C293.387 21.5218 293.701 21.4744 294.03 21.4744C294.248 21.4744 294.478 21.5005 294.722 21.5526C294.968 21.6023 295.198 21.6946 295.411 21.8295C295.627 21.9645 295.803 22.1574 295.94 22.4084C296.078 22.657 296.146 22.9801 296.146 23.3778V27H295.109V26.2543H295.067C294.998 26.3916 294.895 26.5265 294.758 26.6591C294.62 26.7917 294.444 26.9018 294.229 26.9893C294.013 27.0769 293.755 27.1207 293.454 27.1207ZM293.685 26.2685C293.979 26.2685 294.23 26.2105 294.438 26.0945C294.649 25.9785 294.809 25.8269 294.918 25.6399C295.029 25.4505 295.084 25.2481 295.084 25.0327V24.3295C295.047 24.3674 294.973 24.4029 294.864 24.4361C294.758 24.4669 294.636 24.4941 294.498 24.5178C294.361 24.5391 294.227 24.5592 294.097 24.5781C293.967 24.5947 293.858 24.6089 293.771 24.6207C293.565 24.6468 293.376 24.6906 293.206 24.7521C293.038 24.8137 292.903 24.9025 292.801 25.0185C292.702 25.1321 292.652 25.2836 292.652 25.473C292.652 25.7358 292.749 25.9347 292.943 26.0696C293.137 26.2022 293.385 26.2685 293.685 26.2685Z" fill="white"/>
<rect x="-0.5" y="0.5" width="34" height="22" transform="matrix(-1 0 0 1 310 33)" stroke="white"/>
<path d="M318.365 49.1207C317.804 49.1184 317.325 48.9704 316.927 48.6768C316.529 48.3833 316.225 47.956 316.014 47.3949C315.804 46.8338 315.698 46.1579 315.698 45.3672C315.698 44.5788 315.804 43.9053 316.014 43.3466C316.228 42.7879 316.533 42.3617 316.931 42.0682C317.331 41.7746 317.809 41.6278 318.365 41.6278C318.922 41.6278 319.399 41.7758 319.796 42.0717C320.194 42.3653 320.498 42.7914 320.709 43.3501C320.922 43.9065 321.029 44.5788 321.029 45.3672C321.029 46.1603 320.923 46.8374 320.713 47.3984C320.502 47.9571 320.198 48.3845 319.8 48.6804C319.402 48.974 318.924 49.1207 318.365 49.1207ZM318.365 48.1726C318.858 48.1726 319.242 47.9323 319.519 47.4517C319.799 46.9711 319.938 46.2763 319.938 45.3672C319.938 44.7635 319.875 44.2533 319.747 43.8366C319.621 43.4176 319.44 43.1004 319.203 42.8849C318.969 42.6671 318.69 42.5582 318.365 42.5582C317.875 42.5582 317.491 42.7997 317.211 43.2827C316.932 43.7656 316.791 44.4605 316.789 45.3672C316.789 45.9732 316.851 46.4858 316.977 46.9048C317.105 47.3215 317.286 47.6375 317.52 47.853C317.755 48.0661 318.036 48.1726 318.365 48.1726ZM326.624 47.7926L322.541 43.7088L323.212 43.0376L327.296 47.1214L326.624 47.7926ZM323.212 47.7926L322.541 47.1214L326.624 43.0376L327.296 43.7088L323.212 47.7926ZM331.488 49.0994C331.163 49.0947 330.844 49.0355 330.529 48.9219C330.216 48.8082 329.932 48.6188 329.677 48.3537C329.421 48.0885 329.216 47.7322 329.062 47.2848C328.911 46.8374 328.835 46.2786 328.835 45.6087C328.835 44.9742 328.898 44.4107 329.023 43.9183C329.151 43.4259 329.334 43.0104 329.574 42.6719C329.813 42.331 330.102 42.0717 330.44 41.8942C330.779 41.7166 331.159 41.6278 331.58 41.6278C332.013 41.6278 332.398 41.7131 332.734 41.8835C333.07 42.054 333.343 42.2895 333.551 42.5902C333.762 42.8909 333.895 43.233 333.952 43.6165H332.869C332.796 43.3134 332.65 43.0661 332.432 42.8743C332.214 42.6825 331.93 42.5866 331.58 42.5866C331.047 42.5866 330.632 42.8187 330.334 43.2827C330.038 43.7467 329.888 44.3918 329.886 45.218H329.939C330.065 45.0121 330.219 44.8369 330.401 44.6925C330.586 44.5457 330.792 44.4332 331.019 44.3551C331.249 44.2746 331.49 44.2344 331.743 44.2344C332.165 44.2344 332.546 44.3374 332.887 44.5433C333.23 44.7469 333.504 45.0286 333.707 45.3885C333.911 45.7483 334.013 46.1603 334.013 46.6243C334.013 47.0883 333.907 47.5085 333.696 47.8849C333.488 48.2614 333.195 48.5597 332.816 48.7798C332.437 48.9976 331.994 49.1042 331.488 49.0994ZM331.484 48.1761C331.763 48.1761 332.013 48.1075 332.233 47.9702C332.454 47.8329 332.628 47.6482 332.755 47.4162C332.883 47.1842 332.947 46.925 332.947 46.6385C332.947 46.3591 332.884 46.1046 332.759 45.875C332.636 45.6454 332.465 45.4631 332.248 45.3281C332.032 45.1932 331.786 45.1257 331.509 45.1257C331.298 45.1257 331.103 45.166 330.923 45.2464C330.745 45.3269 330.589 45.4382 330.454 45.5803C330.319 45.7223 330.213 45.8857 330.135 46.0703C330.059 46.2526 330.021 46.4455 330.021 46.6491C330.021 46.9214 330.084 47.1735 330.209 47.4055C330.337 47.6375 330.511 47.8246 330.731 47.9666C330.954 48.1063 331.205 48.1761 331.484 48.1761ZM337.362 49.1065C336.922 49.1065 336.529 48.9941 336.183 48.7692C335.84 48.5419 335.57 48.2187 335.373 47.7997C335.179 47.3783 335.082 46.8729 335.082 46.2834C335.082 45.6939 335.181 45.1896 335.377 44.7706C335.576 44.3516 335.848 44.0308 336.194 43.8082C336.539 43.5857 336.931 43.4744 337.369 43.4744C337.708 43.4744 337.98 43.5312 338.186 43.6449C338.394 43.7562 338.555 43.8864 338.669 44.0355C338.785 44.1847 338.875 44.3161 338.939 44.4297H339.003V41.7273H340.065V49H339.028V48.1513H338.939C338.875 48.2673 338.783 48.3999 338.662 48.549C338.543 48.6982 338.38 48.8284 338.172 48.9396C337.963 49.0509 337.694 49.1065 337.362 49.1065ZM337.597 48.201C337.902 48.201 338.16 48.1205 338.371 47.9595C338.584 47.7962 338.745 47.5701 338.854 47.2812C338.965 46.9924 339.021 46.6562 339.021 46.2727C339.021 45.8939 338.966 45.5625 338.857 45.2784C338.748 44.9943 338.588 44.773 338.378 44.6143C338.167 44.4557 337.907 44.3764 337.597 44.3764C337.277 44.3764 337.011 44.4593 336.797 44.625C336.584 44.7907 336.423 45.0168 336.315 45.3033C336.208 45.5897 336.155 45.9129 336.155 46.2727C336.155 46.6373 336.209 46.9652 336.318 47.2564C336.427 47.5476 336.588 47.7784 336.801 47.9489C337.016 48.117 337.282 48.201 337.597 48.201Z" fill="white"/>
<path d="M324.795 27V21.5455H325.814V22.4332H325.881C325.995 22.1326 326.181 21.8982 326.439 21.7301C326.697 21.5597 327.006 21.4744 327.366 21.4744C327.73 21.4744 328.036 21.5597 328.282 21.7301C328.531 21.9006 328.714 22.1349 328.832 22.4332H328.889C329.02 22.142 329.227 21.91 329.511 21.7372C329.795 21.562 330.133 21.4744 330.526 21.4744C331.021 21.4744 331.425 21.6295 331.737 21.9396C332.052 22.2498 332.21 22.7173 332.21 23.3423V27H331.148V23.4418C331.148 23.0724 331.047 22.8049 330.846 22.6392C330.645 22.4735 330.404 22.3906 330.125 22.3906C329.779 22.3906 329.511 22.4972 329.319 22.7102C329.127 22.9209 329.031 23.192 329.031 23.5234V27H327.973V23.3743C327.973 23.0784 327.881 22.8404 327.696 22.6605C327.511 22.4806 327.271 22.3906 326.975 22.3906C326.774 22.3906 326.588 22.4439 326.418 22.5504C326.25 22.6546 326.113 22.8002 326.009 22.9872C325.908 23.1742 325.857 23.3909 325.857 23.6371V27H324.795Z" fill="white"/>
<rect x="-0.5" y="0.5" width="34" height="22" transform="matrix(-1 0 0 1 344 33)" stroke="white"/>
<path d="M352.629 49.1207C352.068 49.1184 351.589 48.9704 351.191 48.6768C350.793 48.3833 350.489 47.956 350.278 47.3949C350.067 46.8338 349.962 46.1579 349.962 45.3672C349.962 44.5788 350.067 43.9053 350.278 43.3466C350.491 42.7879 350.797 42.3617 351.194 42.0682C351.594 41.7746 352.073 41.6278 352.629 41.6278C353.185 41.6278 353.662 41.7758 354.06 42.0717C354.458 42.3653 354.762 42.7914 354.973 43.3501C355.186 43.9065 355.292 44.5788 355.292 45.3672C355.292 46.1603 355.187 46.8374 354.976 47.3984C354.766 47.9571 354.461 48.3845 354.064 48.6804C353.666 48.974 353.188 49.1207 352.629 49.1207ZM352.629 48.1726C353.121 48.1726 353.506 47.9323 353.783 47.4517C354.062 46.9711 354.202 46.2763 354.202 45.3672C354.202 44.7635 354.138 44.2533 354.01 43.8366C353.885 43.4176 353.704 43.1004 353.467 42.8849C353.233 42.6671 352.953 42.5582 352.629 42.5582C352.139 42.5582 351.754 42.7997 351.475 43.2827C351.196 43.7656 351.055 44.4605 351.052 45.3672C351.052 45.9732 351.115 46.4858 351.241 46.9048C351.368 47.3215 351.549 47.6375 351.784 47.853C352.018 48.0661 352.3 48.1726 352.629 48.1726ZM360.888 47.7926L356.804 43.7088L357.475 43.0376L361.559 47.1214L360.888 47.7926ZM357.475 47.7926L356.804 47.1214L360.888 43.0376L361.559 43.7088L357.475 47.7926ZM363.457 49L366.632 42.7216V42.6683H362.96V41.7273H367.768V42.7003L364.604 49H363.457ZM371.379 49.1207C370.818 49.1184 370.339 48.9704 369.941 48.6768C369.543 48.3833 369.239 47.956 369.028 47.3949C368.817 46.8338 368.712 46.1579 368.712 45.3672C368.712 44.5788 368.817 43.9053 369.028 43.3466C369.241 42.7879 369.547 42.3617 369.944 42.0682C370.344 41.7746 370.823 41.6278 371.379 41.6278C371.935 41.6278 372.412 41.7758 372.81 42.0717C373.208 42.3653 373.512 42.7914 373.723 43.3501C373.936 43.9065 374.042 44.5788 374.042 45.3672C374.042 46.1603 373.937 46.8374 373.726 47.3984C373.516 47.9571 373.211 48.3845 372.814 48.6804C372.416 48.974 371.938 49.1207 371.379 49.1207ZM371.379 48.1726C371.871 48.1726 372.256 47.9323 372.533 47.4517C372.812 46.9711 372.952 46.2763 372.952 45.3672C372.952 44.7635 372.888 44.2533 372.76 43.8366C372.635 43.4176 372.454 43.1004 372.217 42.8849C371.983 42.6671 371.703 42.5582 371.379 42.5582C370.889 42.5582 370.504 42.7997 370.225 43.2827C369.946 43.7656 369.805 44.4605 369.802 45.3672C369.802 45.9732 369.865 46.4858 369.991 46.9048C370.118 47.3215 370.299 47.6375 370.534 47.853C370.768 48.0661 371.05 48.1726 371.379 48.1726Z" fill="white"/>
<rect x="-0.5" y="0.5" width="34" height="22" transform="matrix(-1 0 0 1 378 33)" stroke="white"/>
<path d="M386.658 49.1207C386.097 49.1184 385.618 48.9704 385.22 48.6768C384.822 48.3833 384.518 47.956 384.307 47.3949C384.097 46.8338 383.991 46.1579 383.991 45.3672C383.991 44.5788 384.097 43.9053 384.307 43.3466C384.521 42.7879 384.826 42.3617 385.224 42.0682C385.624 41.7746 386.102 41.6278 386.658 41.6278C387.215 41.6278 387.692 41.7758 388.089 42.0717C388.487 42.3653 388.791 42.7914 389.002 43.3501C389.215 43.9065 389.322 44.5788 389.322 45.3672C389.322 46.1603 389.216 46.8374 389.006 47.3984C388.795 47.9571 388.491 48.3845 388.093 48.6804C387.695 48.974 387.217 49.1207 386.658 49.1207ZM386.658 48.1726C387.151 48.1726 387.535 47.9323 387.812 47.4517C388.092 46.9711 388.231 46.2763 388.231 45.3672C388.231 44.7635 388.168 44.2533 388.04 43.8366C387.914 43.4176 387.733 43.1004 387.496 42.8849C387.262 42.6671 386.983 42.5582 386.658 42.5582C386.168 42.5582 385.784 42.7997 385.504 43.2827C385.225 43.7656 385.084 44.4605 385.082 45.3672C385.082 45.9732 385.144 46.4858 385.27 46.9048C385.398 47.3215 385.579 47.6375 385.813 47.853C386.047 48.0661 386.329 48.1726 386.658 48.1726ZM394.917 47.7926L390.834 43.7088L391.505 43.0376L395.589 47.1214L394.917 47.7926ZM391.505 47.7926L390.834 47.1214L394.917 43.0376L395.589 43.7088L391.505 47.7926ZM399.781 49.0994C399.456 49.0947 399.137 49.0355 398.822 48.9219C398.509 48.8082 398.225 48.6188 397.97 48.3537C397.714 48.0885 397.509 47.7322 397.355 47.2848C397.204 46.8374 397.128 46.2786 397.128 45.6087C397.128 44.9742 397.191 44.4107 397.316 43.9183C397.444 43.4259 397.627 43.0104 397.867 42.6719C398.106 42.331 398.395 42.0717 398.733 41.8942C399.072 41.7166 399.452 41.6278 399.873 41.6278C400.306 41.6278 400.691 41.7131 401.027 41.8835C401.363 42.054 401.636 42.2895 401.844 42.5902C402.055 42.8909 402.188 43.233 402.245 43.6165H401.162C401.089 43.3134 400.943 43.0661 400.725 42.8743C400.507 42.6825 400.223 42.5866 399.873 42.5866C399.34 42.5866 398.925 42.8187 398.627 43.2827C398.331 43.7467 398.181 44.3918 398.179 45.218H398.232C398.358 45.0121 398.512 44.8369 398.694 44.6925C398.879 44.5457 399.085 44.4332 399.312 44.3551C399.542 44.2746 399.783 44.2344 400.036 44.2344C400.458 44.2344 400.839 44.3374 401.18 44.5433C401.523 44.7469 401.796 45.0286 402 45.3885C402.204 45.7483 402.305 46.1603 402.305 46.6243C402.305 47.0883 402.2 47.5085 401.989 47.8849C401.781 48.2614 401.488 48.5597 401.109 48.7798C400.73 48.9976 400.287 49.1042 399.781 49.0994ZM399.777 48.1761C400.056 48.1761 400.306 48.1075 400.526 47.9702C400.747 47.8329 400.921 47.6482 401.048 47.4162C401.176 47.1842 401.24 46.925 401.24 46.6385C401.24 46.3591 401.177 46.1046 401.052 45.875C400.929 45.6454 400.758 45.4631 400.541 45.3281C400.325 45.1932 400.079 45.1257 399.802 45.1257C399.591 45.1257 399.396 45.166 399.216 45.2464C399.038 45.3269 398.882 45.4382 398.747 45.5803C398.612 45.7223 398.506 45.8857 398.428 46.0703C398.352 46.2526 398.314 46.4455 398.314 46.6491C398.314 46.9214 398.377 47.1735 398.502 47.4055C398.63 47.6375 398.804 47.8246 399.024 47.9666C399.247 48.1063 399.498 48.1761 399.777 48.1761ZM405.911 49.1101C405.383 49.1101 404.928 48.9905 404.547 48.7514C404.168 48.5099 403.877 48.1773 403.674 47.7536C403.47 47.3298 403.368 46.8445 403.368 46.2976C403.368 45.7436 403.472 45.2547 403.681 44.831C403.889 44.4048 404.183 44.0722 404.561 43.8331C404.94 43.594 405.386 43.4744 405.9 43.4744C406.314 43.4744 406.684 43.5514 407.008 43.7053C407.332 43.8568 407.594 44.0698 407.793 44.3445C407.994 44.6191 408.114 44.9399 408.152 45.3068H407.118C407.061 45.0511 406.931 44.831 406.728 44.6463C406.526 44.4616 406.256 44.3693 405.918 44.3693C405.622 44.3693 405.363 44.4474 405.14 44.6037C404.92 44.7576 404.748 44.9777 404.625 45.2642C404.502 45.5483 404.441 45.8845 404.441 46.2727C404.441 46.6705 404.501 47.0137 404.622 47.3026C404.742 47.5914 404.913 47.8151 405.133 47.9737C405.356 48.1323 405.617 48.2116 405.918 48.2116C406.119 48.2116 406.301 48.175 406.465 48.1016C406.63 48.0258 406.769 47.9181 406.88 47.7784C406.994 47.6387 407.073 47.4706 407.118 47.2741H408.152C408.114 47.6269 407.999 47.9418 407.807 48.2188C407.615 48.4957 407.358 48.7135 407.036 48.8722C406.717 49.0308 406.342 49.1101 405.911 49.1101Z" fill="white"/>
<rect x="-0.5" y="0.5" width="34" height="22" transform="matrix(-1 0 0 1 412 33)" stroke="white"/>
<path d="M420.395 49.1207C419.834 49.1184 419.354 48.9704 418.956 48.6768C418.559 48.3833 418.254 47.956 418.044 47.3949C417.833 46.8338 417.728 46.1579 417.728 45.3672C417.728 44.5788 417.833 43.9053 418.044 43.3466C418.257 42.7879 418.562 42.3617 418.96 42.0682C419.36 41.7746 419.838 41.6278 420.395 41.6278C420.951 41.6278 421.428 41.7758 421.826 42.0717C422.223 42.3653 422.528 42.7914 422.738 43.3501C422.951 43.9065 423.058 44.5788 423.058 45.3672C423.058 46.1603 422.953 46.8374 422.742 47.3984C422.531 47.9571 422.227 48.3845 421.829 48.6804C421.432 48.974 420.953 49.1207 420.395 49.1207ZM420.395 48.1726C420.887 48.1726 421.272 47.9323 421.549 47.4517C421.828 46.9711 421.968 46.2763 421.968 45.3672C421.968 44.7635 421.904 44.2533 421.776 43.8366C421.651 43.4176 421.469 43.1004 421.233 42.8849C420.998 42.6671 420.719 42.5582 420.395 42.5582C419.905 42.5582 419.52 42.7997 419.241 43.2827C418.961 43.7656 418.82 44.4605 418.818 45.3672C418.818 45.9732 418.881 46.4858 419.006 46.9048C419.134 47.3215 419.315 47.6375 419.549 47.853C419.784 48.0661 420.066 48.1726 420.395 48.1726ZM428.654 47.7926L424.57 43.7088L425.241 43.0376L429.325 47.1214L428.654 47.7926ZM425.241 47.7926L424.57 47.1214L428.654 43.0376L429.325 43.7088L425.241 47.7926ZM433.517 49.0994C433.193 49.0947 432.873 49.0355 432.558 48.9219C432.246 48.8082 431.962 48.6188 431.706 48.3537C431.45 48.0885 431.245 47.7322 431.092 47.2848C430.94 46.8374 430.864 46.2786 430.864 45.6087C430.864 44.9742 430.927 44.4107 431.052 43.9183C431.18 43.4259 431.364 43.0104 431.603 42.6719C431.842 42.331 432.131 42.0717 432.469 41.8942C432.808 41.7166 433.188 41.6278 433.609 41.6278C434.043 41.6278 434.427 41.7131 434.763 41.8835C435.1 42.054 435.372 42.2895 435.58 42.5902C435.791 42.8909 435.925 43.233 435.981 43.6165H434.898C434.825 43.3134 434.679 43.0661 434.462 42.8743C434.244 42.6825 433.96 42.5866 433.609 42.5866C433.077 42.5866 432.661 42.8187 432.363 43.2827C432.067 43.7467 431.918 44.3918 431.915 45.218H431.969C432.094 45.0121 432.248 44.8369 432.43 44.6925C432.615 44.5457 432.821 44.4332 433.048 44.3551C433.278 44.2746 433.519 44.2344 433.773 44.2344C434.194 44.2344 434.575 44.3374 434.916 44.5433C435.259 44.7469 435.533 45.0286 435.736 45.3885C435.94 45.7483 436.042 46.1603 436.042 46.6243C436.042 47.0883 435.936 47.5085 435.726 47.8849C435.517 48.2614 435.224 48.5597 434.845 48.7798C434.466 48.9976 434.024 49.1042 433.517 49.0994ZM433.513 48.1761C433.793 48.1761 434.043 48.1075 434.263 47.9702C434.483 47.8329 434.657 47.6482 434.785 47.4162C434.913 47.1842 434.976 46.925 434.976 46.6385C434.976 46.3591 434.914 46.1046 434.788 45.875C434.665 45.6454 434.495 45.4631 434.277 45.3281C434.061 45.1932 433.815 45.1257 433.538 45.1257C433.328 45.1257 433.132 45.166 432.952 45.2464C432.775 45.3269 432.619 45.4382 432.484 45.5803C432.349 45.7223 432.242 45.8857 432.164 46.0703C432.088 46.2526 432.05 46.4455 432.05 46.6491C432.05 46.9214 432.113 47.1735 432.239 47.4055C432.366 47.6375 432.54 47.8246 432.761 47.9666C432.983 48.1063 433.234 48.1761 433.513 48.1761ZM439.736 49.0994C439.291 49.0994 438.891 49.0142 438.536 48.8438C438.183 48.6709 437.901 48.4342 437.69 48.1335C437.48 47.8329 437.367 47.4896 437.353 47.1037H438.418C438.444 47.4162 438.583 47.6731 438.834 47.8743C439.085 48.0755 439.386 48.1761 439.736 48.1761C440.015 48.1761 440.263 48.1122 440.478 47.9844C440.696 47.8542 440.866 47.6754 440.989 47.4482C441.115 47.2209 441.178 46.9616 441.178 46.6705C441.178 46.3745 441.114 46.1106 440.986 45.8786C440.858 45.6465 440.682 45.4643 440.457 45.3317C440.234 45.1991 439.979 45.1316 439.69 45.1293C439.47 45.1293 439.248 45.1671 439.026 45.2429C438.803 45.3187 438.623 45.4181 438.486 45.5412L437.481 45.392L437.889 41.7273H441.888V42.6683H438.802L438.571 44.7031H438.614C438.756 44.5658 438.944 44.451 439.178 44.3587C439.415 44.2663 439.668 44.2202 439.938 44.2202C440.381 44.2202 440.775 44.3255 441.121 44.5362C441.469 44.7469 441.742 45.0346 441.941 45.3991C442.142 45.7614 442.242 46.178 442.239 46.6491C442.242 47.1203 442.135 47.5405 441.92 47.9098C441.707 48.2791 441.411 48.5703 441.032 48.7834C440.656 48.9941 440.224 49.0994 439.736 49.0994Z" fill="white"/>
<path d="M360.128 29.0455V21.5455H361.165V22.4297H361.254C361.315 22.3161 361.404 22.1847 361.52 22.0355C361.636 21.8864 361.797 21.7562 362.003 21.6449C362.209 21.5312 362.481 21.4744 362.82 21.4744C363.26 21.4744 363.653 21.5857 363.999 21.8082C364.344 22.0308 364.615 22.3516 364.812 22.7706C365.011 23.1896 365.11 23.6939 365.11 24.2834C365.11 24.8729 365.012 25.3783 364.815 25.7997C364.619 26.2187 364.349 26.5419 364.006 26.7692C363.662 26.9941 363.271 27.1065 362.83 27.1065C362.499 27.1065 362.228 27.0509 362.017 26.9396C361.809 26.8284 361.645 26.6982 361.527 26.549C361.409 26.3999 361.317 26.2673 361.254 26.1513H361.19V29.0455H360.128ZM361.168 24.2727C361.168 24.6562 361.224 24.9924 361.335 25.2812C361.446 25.5701 361.607 25.7962 361.818 25.9595C362.029 26.1205 362.287 26.201 362.592 26.201C362.91 26.201 363.175 26.117 363.388 25.9489C363.601 25.7784 363.762 25.5476 363.871 25.2564C363.982 24.9652 364.038 24.6373 364.038 24.2727C364.038 23.9129 363.983 23.5897 363.874 23.3033C363.768 23.0168 363.607 22.7907 363.391 22.625C363.178 22.4593 362.912 22.3764 362.592 22.3764C362.285 22.3764 362.024 22.4557 361.811 22.6143C361.6 22.773 361.441 22.9943 361.332 23.2784C361.223 23.5625 361.168 23.8939 361.168 24.2727Z" fill="white"/>
<path d="M397.03 19.7273V27H395.969V19.7273H397.03Z" fill="white"/>
<path d="M430.13 27.1101C429.593 27.1101 429.13 26.9953 428.742 26.7656C428.356 26.5336 428.057 26.2081 427.847 25.7891C427.638 25.3677 427.534 24.8741 427.534 24.3082C427.534 23.7495 427.638 23.2571 427.847 22.831C428.057 22.4048 428.351 22.0722 428.727 21.8331C429.106 21.594 429.549 21.4744 430.055 21.4744C430.363 21.4744 430.662 21.5253 430.95 21.6271C431.239 21.7289 431.498 21.8887 431.728 22.1065C431.958 22.3243 432.139 22.6072 432.271 22.9553C432.404 23.3009 432.47 23.7211 432.47 24.2159V24.5923H428.134V23.7969H431.43C431.43 23.5175 431.373 23.2701 431.259 23.0547C431.146 22.8369 430.986 22.6652 430.78 22.5398C430.576 22.4143 430.337 22.3516 430.063 22.3516C429.764 22.3516 429.504 22.425 429.281 22.5717C429.061 22.7161 428.891 22.9055 428.77 23.1399C428.652 23.3719 428.592 23.6241 428.592 23.8963V24.5178C428.592 24.8823 428.656 25.1925 428.784 25.4482C428.914 25.7038 429.095 25.8991 429.328 26.0341C429.56 26.1667 429.831 26.233 430.141 26.233C430.342 26.233 430.525 26.2045 430.691 26.1477C430.857 26.0885 431 26.0009 431.121 25.8849C431.242 25.7689 431.334 25.6257 431.398 25.4553L432.403 25.6364C432.322 25.9323 432.178 26.1915 431.97 26.4141C431.764 26.6342 431.504 26.8059 431.192 26.929C430.882 27.0497 430.528 27.1101 430.13 27.1101Z" fill="white"/>
<rect x="-0.5" y="0.5" width="34" height="22" transform="matrix(-1 0 0 1 446 33)" stroke="white"/>
<path d="M454.724 49.1207C454.163 49.1184 453.683 48.9704 453.286 48.6768C452.888 48.3833 452.584 47.956 452.373 47.3949C452.162 46.8338 452.057 46.1579 452.057 45.3672C452.057 44.5788 452.162 43.9053 452.373 43.3466C452.586 42.7879 452.891 42.3617 453.289 42.0682C453.689 41.7746 454.167 41.6278 454.724 41.6278C455.28 41.6278 455.757 41.7758 456.155 42.0717C456.553 42.3653 456.857 42.7914 457.067 43.3501C457.281 43.9065 457.387 44.5788 457.387 45.3672C457.387 46.1603 457.282 46.8374 457.071 47.3984C456.86 47.9571 456.556 48.3845 456.158 48.6804C455.761 48.974 455.282 49.1207 454.724 49.1207ZM454.724 48.1726C455.216 48.1726 455.601 47.9323 455.878 47.4517C456.157 46.9711 456.297 46.2763 456.297 45.3672C456.297 44.7635 456.233 44.2533 456.105 43.8366C455.98 43.4176 455.799 43.1004 455.562 42.8849C455.327 42.6671 455.048 42.5582 454.724 42.5582C454.234 42.5582 453.849 42.7997 453.57 43.2827C453.29 43.7656 453.149 44.4605 453.147 45.3672C453.147 45.9732 453.21 46.4858 453.335 46.9048C453.463 47.3215 453.644 47.6375 453.879 47.853C454.113 48.0661 454.395 48.1726 454.724 48.1726ZM462.983 47.7926L458.899 43.7088L459.57 43.0376L463.654 47.1214L462.983 47.7926ZM459.57 47.7926L458.899 47.1214L462.983 43.0376L463.654 43.7088L459.57 47.7926ZM467.839 49.1207C467.278 49.1184 466.798 48.9704 466.401 48.6768C466.003 48.3833 465.699 47.956 465.488 47.3949C465.277 46.8338 465.172 46.1579 465.172 45.3672C465.172 44.5788 465.277 43.9053 465.488 43.3466C465.701 42.7879 466.007 42.3617 466.404 42.0682C466.804 41.7746 467.283 41.6278 467.839 41.6278C468.395 41.6278 468.872 41.7758 469.27 42.0717C469.668 42.3653 469.972 42.7914 470.183 43.3501C470.396 43.9065 470.502 44.5788 470.502 45.3672C470.502 46.1603 470.397 46.8374 470.186 47.3984C469.976 47.9571 469.671 48.3845 469.274 48.6804C468.876 48.974 468.398 49.1207 467.839 49.1207ZM467.839 48.1726C468.331 48.1726 468.716 47.9323 468.993 47.4517C469.272 46.9711 469.412 46.2763 469.412 45.3672C469.412 44.7635 469.348 44.2533 469.22 43.8366C469.095 43.4176 468.914 43.1004 468.677 42.8849C468.443 42.6671 468.163 42.5582 467.839 42.5582C467.349 42.5582 466.964 42.7997 466.685 43.2827C466.405 43.7656 466.265 44.4605 466.262 45.3672C466.262 45.9732 466.325 46.4858 466.45 46.9048C466.578 47.3215 466.759 47.6375 466.994 47.853C467.228 48.0661 467.51 48.1726 467.839 48.1726ZM474.294 49.0994C473.806 49.0994 473.371 49.0154 472.987 48.8473C472.606 48.6792 472.304 48.446 472.082 48.1477C471.862 47.8471 471.743 47.4991 471.727 47.1037H472.842C472.856 47.3191 472.928 47.5062 473.058 47.6648C473.191 47.821 473.364 47.9418 473.577 48.027C473.79 48.1122 474.027 48.1548 474.287 48.1548C474.573 48.1548 474.827 48.1051 475.047 48.0057C475.269 47.9062 475.443 47.7678 475.569 47.5902C475.694 47.4103 475.757 47.2031 475.757 46.9688C475.757 46.7249 475.694 46.5107 475.569 46.326C475.446 46.139 475.265 45.9922 475.026 45.8857C474.789 45.7791 474.502 45.7259 474.166 45.7259H473.552V44.831H474.166C474.436 44.831 474.673 44.7824 474.876 44.6854C475.082 44.5883 475.243 44.4534 475.359 44.2805C475.475 44.1054 475.533 43.9006 475.533 43.6662C475.533 43.4413 475.482 43.246 475.381 43.0803C475.281 42.9122 475.139 42.7808 474.955 42.6861C474.772 42.5914 474.557 42.544 474.308 42.544C474.071 42.544 473.85 42.5878 473.644 42.6754C473.441 42.7607 473.275 42.8838 473.147 43.0447C473.019 43.2034 472.951 43.3939 472.941 43.6165H471.879C471.891 43.2235 472.007 42.8778 472.227 42.5795C472.45 42.2812 472.743 42.0481 473.108 41.88C473.473 41.7119 473.877 41.6278 474.322 41.6278C474.789 41.6278 475.191 41.719 475.53 41.9013C475.871 42.0812 476.134 42.3215 476.318 42.6222C476.505 42.9228 476.598 43.2519 476.595 43.6094C476.598 44.0166 476.484 44.3622 476.254 44.6463C476.027 44.9304 475.724 45.121 475.345 45.218V45.2749C475.828 45.3482 476.202 45.54 476.467 45.8501C476.735 46.1603 476.867 46.545 476.865 47.0043C476.867 47.4044 476.756 47.763 476.531 48.0803C476.309 48.3975 476.004 48.6473 475.619 48.8295C475.233 49.0095 474.791 49.0994 474.294 49.0994Z" fill="white"/>
<rect x="-0.5" y="0.5" width="34" height="22" transform="matrix(-1 0 0 1 480 33)" stroke="white"/>
<path d="M488.273 49.1207C487.711 49.1184 487.232 48.9704 486.834 48.6768C486.437 48.3833 486.132 47.956 485.922 47.3949C485.711 46.8338 485.606 46.1579 485.606 45.3672C485.606 44.5788 485.711 43.9053 485.922 43.3466C486.135 42.7879 486.44 42.3617 486.838 42.0682C487.238 41.7746 487.716 41.6278 488.273 41.6278C488.829 41.6278 489.306 41.7758 489.704 42.0717C490.101 42.3653 490.406 42.7914 490.616 43.3501C490.829 43.9065 490.936 44.5788 490.936 45.3672C490.936 46.1603 490.831 46.8374 490.62 47.3984C490.409 47.9571 490.105 48.3845 489.707 48.6804C489.309 48.974 488.831 49.1207 488.273 49.1207ZM488.273 48.1726C488.765 48.1726 489.15 47.9323 489.427 47.4517C489.706 46.9711 489.846 46.2763 489.846 45.3672C489.846 44.7635 489.782 44.2533 489.654 43.8366C489.528 43.4176 489.347 43.1004 489.111 42.8849C488.876 42.6671 488.597 42.5582 488.273 42.5582C487.782 42.5582 487.398 42.7997 487.118 43.2827C486.839 43.7656 486.698 44.4605 486.696 45.3672C486.696 45.9732 486.759 46.4858 486.884 46.9048C487.012 47.3215 487.193 47.6375 487.427 47.853C487.662 48.0661 487.943 48.1726 488.273 48.1726ZM496.532 47.7926L492.448 43.7088L493.119 43.0376L497.203 47.1214L496.532 47.7926ZM493.119 47.7926L492.448 47.1214L496.532 43.0376L497.203 43.7088L493.119 47.7926ZM501.395 49.0994C501.071 49.0947 500.751 49.0355 500.436 48.9219C500.124 48.8082 499.839 48.6188 499.584 48.3537C499.328 48.0885 499.123 47.7322 498.969 47.2848C498.818 46.8374 498.742 46.2786 498.742 45.6087C498.742 44.9742 498.805 44.4107 498.93 43.9183C499.058 43.4259 499.242 43.0104 499.481 42.6719C499.72 42.331 500.009 42.0717 500.347 41.8942C500.686 41.7166 501.066 41.6278 501.487 41.6278C501.92 41.6278 502.305 41.7131 502.641 41.8835C502.978 42.054 503.25 42.2895 503.458 42.5902C503.669 42.8909 503.803 43.233 503.859 43.6165H502.776C502.703 43.3134 502.557 43.0661 502.339 42.8743C502.122 42.6825 501.838 42.5866 501.487 42.5866C500.955 42.5866 500.539 42.8187 500.241 43.2827C499.945 43.7467 499.796 44.3918 499.793 45.218H499.847C499.972 45.0121 500.126 44.8369 500.308 44.6925C500.493 44.5457 500.699 44.4332 500.926 44.3551C501.156 44.2746 501.397 44.2344 501.651 44.2344C502.072 44.2344 502.453 44.3374 502.794 44.5433C503.137 44.7469 503.411 45.0286 503.614 45.3885C503.818 45.7483 503.92 46.1603 503.92 46.6243C503.92 47.0883 503.814 47.5085 503.604 47.8849C503.395 48.2614 503.102 48.5597 502.723 48.7798C502.344 48.9976 501.902 49.1042 501.395 49.0994ZM501.391 48.1761C501.671 48.1761 501.92 48.1075 502.141 47.9702C502.361 47.8329 502.535 47.6482 502.663 47.4162C502.79 47.1842 502.854 46.925 502.854 46.6385C502.854 46.3591 502.792 46.1046 502.666 45.875C502.543 45.6454 502.373 45.4631 502.155 45.3281C501.939 45.1932 501.693 45.1257 501.416 45.1257C501.205 45.1257 501.01 45.166 500.83 45.2464C500.653 45.3269 500.496 45.4382 500.362 45.5803C500.227 45.7223 500.12 45.8857 500.042 46.0703C499.966 46.2526 499.928 46.4455 499.928 46.6491C499.928 46.9214 499.991 47.1735 500.116 47.4055C500.244 47.6375 500.418 47.8246 500.638 47.9666C500.861 48.1063 501.112 48.1761 501.391 48.1761ZM507.745 49.0994C507.258 49.0994 506.822 49.0154 506.438 48.8473C506.057 48.6792 505.755 48.446 505.533 48.1477C505.313 47.8471 505.194 47.4991 505.178 47.1037H506.293C506.307 47.3191 506.379 47.5062 506.509 47.6648C506.642 47.821 506.815 47.9418 507.028 48.027C507.241 48.1122 507.478 48.1548 507.738 48.1548C508.025 48.1548 508.278 48.1051 508.498 48.0057C508.721 47.9062 508.895 47.7678 509.02 47.5902C509.146 47.4103 509.208 47.2031 509.208 46.9688C509.208 46.7249 509.146 46.5107 509.02 46.326C508.897 46.139 508.716 45.9922 508.477 45.8857C508.24 45.7791 507.954 45.7259 507.617 45.7259H507.003V44.831H507.617C507.887 44.831 508.124 44.7824 508.328 44.6854C508.534 44.5883 508.695 44.4534 508.811 44.2805C508.927 44.1054 508.985 43.9006 508.985 43.6662C508.985 43.4413 508.934 43.246 508.832 43.0803C508.732 42.9122 508.59 42.7808 508.406 42.6861C508.223 42.5914 508.008 42.544 507.759 42.544C507.523 42.544 507.301 42.5878 507.095 42.6754C506.892 42.7607 506.726 42.8838 506.598 43.0447C506.47 43.2034 506.402 43.3939 506.392 43.6165H505.33C505.342 43.2235 505.458 42.8778 505.678 42.5795C505.901 42.2812 506.195 42.0481 506.559 41.88C506.924 41.7119 507.329 41.6278 507.774 41.6278C508.24 41.6278 508.642 41.719 508.981 41.9013C509.322 42.0812 509.585 42.3215 509.769 42.6222C509.956 42.9228 510.049 43.2519 510.046 43.6094C510.049 44.0166 509.935 44.3622 509.705 44.6463C509.478 44.9304 509.175 45.121 508.796 45.218V45.2749C509.279 45.3482 509.653 45.54 509.919 45.8501C510.186 46.1603 510.319 46.545 510.316 47.0043C510.319 47.4044 510.207 47.763 509.982 48.0803C509.76 48.3975 509.456 48.6473 509.07 48.8295C508.684 49.0095 508.242 49.0994 507.745 49.0994Z" fill="white"/>
<rect x="-0.5" y="0.5" width="34" height="22" transform="matrix(-1 0 0 1 514 33)" stroke="white"/>
<path d="M523.65 49.1207C523.088 49.1184 522.609 48.9704 522.211 48.6768C521.814 48.3833 521.509 47.956 521.299 47.3949C521.088 46.8338 520.983 46.1579 520.983 45.3672C520.983 44.5788 521.088 43.9053 521.299 43.3466C521.512 42.7879 521.817 42.3617 522.215 42.0682C522.615 41.7746 523.093 41.6278 523.65 41.6278C524.206 41.6278 524.683 41.7758 525.081 42.0717C525.478 42.3653 525.783 42.7914 525.993 43.3501C526.206 43.9065 526.313 44.5788 526.313 45.3672C526.313 46.1603 526.208 46.8374 525.997 47.3984C525.786 47.9571 525.482 48.3845 525.084 48.6804C524.686 48.974 524.208 49.1207 523.65 49.1207ZM523.65 48.1726C524.142 48.1726 524.527 47.9323 524.804 47.4517C525.083 46.9711 525.223 46.2763 525.223 45.3672C525.223 44.7635 525.159 44.2533 525.031 43.8366C524.905 43.4176 524.724 43.1004 524.488 42.8849C524.253 42.6671 523.974 42.5582 523.65 42.5582C523.159 42.5582 522.775 42.7997 522.495 43.2827C522.216 43.7656 522.075 44.4605 522.073 45.3672C522.073 45.9732 522.136 46.4858 522.261 46.9048C522.389 47.3215 522.57 47.6375 522.804 47.853C523.039 48.0661 523.32 48.1726 523.65 48.1726ZM531.909 47.7926L527.825 43.7088L528.496 43.0376L532.58 47.1214L531.909 47.7926ZM528.496 47.7926L527.825 47.1214L531.909 43.0376L532.58 43.7088L528.496 47.7926ZM536.772 49.0994C536.448 49.0947 536.128 49.0355 535.813 48.9219C535.501 48.8082 535.216 48.6188 534.961 48.3537C534.705 48.0885 534.5 47.7322 534.346 47.2848C534.195 46.8374 534.119 46.2786 534.119 45.6087C534.119 44.9742 534.182 44.4107 534.307 43.9183C534.435 43.4259 534.619 43.0104 534.858 42.6719C535.097 42.331 535.386 42.0717 535.724 41.8942C536.063 41.7166 536.443 41.6278 536.864 41.6278C537.297 41.6278 537.682 41.7131 538.018 41.8835C538.354 42.054 538.627 42.2895 538.835 42.5902C539.046 42.8909 539.18 43.233 539.236 43.6165H538.153C538.08 43.3134 537.934 43.0661 537.716 42.8743C537.499 42.6825 537.215 42.5866 536.864 42.5866C536.331 42.5866 535.916 42.8187 535.618 43.2827C535.322 43.7467 535.173 44.3918 535.17 45.218H535.224C535.349 45.0121 535.503 44.8369 535.685 44.6925C535.87 44.5457 536.076 44.4332 536.303 44.3551C536.533 44.2746 536.774 44.2344 537.028 44.2344C537.449 44.2344 537.83 44.3374 538.171 44.5433C538.514 44.7469 538.788 45.0286 538.991 45.3885C539.195 45.7483 539.297 46.1603 539.297 46.6243C539.297 47.0883 539.191 47.5085 538.981 47.8849C538.772 48.2614 538.479 48.5597 538.1 48.7798C537.721 48.9976 537.278 49.1042 536.772 49.0994ZM536.768 48.1761C537.048 48.1761 537.297 48.1075 537.518 47.9702C537.738 47.8329 537.912 47.6482 538.04 47.4162C538.167 47.1842 538.231 46.925 538.231 46.6385C538.231 46.3591 538.169 46.1046 538.043 45.875C537.92 45.6454 537.75 45.4631 537.532 45.3281C537.316 45.1932 537.07 45.1257 536.793 45.1257C536.582 45.1257 536.387 45.166 536.207 45.2464C536.03 45.3269 535.873 45.4382 535.738 45.5803C535.604 45.7223 535.497 45.8857 535.419 46.0703C535.343 46.2526 535.305 46.4455 535.305 46.6491C535.305 46.9214 535.368 47.1735 535.493 47.4055C535.621 47.6375 535.795 47.8246 536.015 47.9666C536.238 48.1063 536.489 48.1761 536.768 48.1761ZM543.2 43.5455V44.3977H540.118V43.5455H543.2ZM540.963 49V42.9134C540.963 42.5724 541.038 42.2895 541.187 42.0646C541.336 41.8374 541.534 41.6681 541.78 41.5568C542.026 41.4432 542.294 41.3864 542.582 41.3864C542.795 41.3864 542.978 41.4041 543.129 41.4396C543.281 41.4728 543.393 41.5036 543.467 41.532L543.218 42.3913C543.168 42.3771 543.104 42.3606 543.026 42.3416C542.948 42.3203 542.853 42.3097 542.742 42.3097C542.484 42.3097 542.299 42.3736 542.188 42.5014C542.079 42.6293 542.025 42.8139 542.025 43.0554V49H540.963Z" fill="white"/>
<rect x="-0.5" y="0.5" width="34" height="22" transform="matrix(-1 0 0 1 548 33)" stroke="white"/>
<path d="M556.365 49.1207C555.804 49.1184 555.325 48.9704 554.927 48.6768C554.529 48.3833 554.225 47.956 554.014 47.3949C553.804 46.8338 553.698 46.1579 553.698 45.3672C553.698 44.5788 553.804 43.9053 554.014 43.3466C554.228 42.7879 554.533 42.3617 554.931 42.0682C555.331 41.7746 555.809 41.6278 556.365 41.6278C556.922 41.6278 557.399 41.7758 557.796 42.0717C558.194 42.3653 558.498 42.7914 558.709 43.3501C558.922 43.9065 559.029 44.5788 559.029 45.3672C559.029 46.1603 558.923 46.8374 558.713 47.3984C558.502 47.9571 558.198 48.3845 557.8 48.6804C557.402 48.974 556.924 49.1207 556.365 49.1207ZM556.365 48.1726C556.858 48.1726 557.242 47.9323 557.519 47.4517C557.799 46.9711 557.938 46.2763 557.938 45.3672C557.938 44.7635 557.875 44.2533 557.747 43.8366C557.621 43.4176 557.44 43.1004 557.203 42.8849C556.969 42.6671 556.69 42.5582 556.365 42.5582C555.875 42.5582 555.491 42.7997 555.211 43.2827C554.932 43.7656 554.791 44.4605 554.789 45.3672C554.789 45.9732 554.851 46.4858 554.977 46.9048C555.105 47.3215 555.286 47.6375 555.52 47.853C555.755 48.0661 556.036 48.1726 556.365 48.1726ZM564.624 47.7926L560.541 43.7088L561.212 43.0376L565.296 47.1214L564.624 47.7926ZM561.212 47.7926L560.541 47.1214L564.624 43.0376L565.296 43.7088L561.212 47.7926ZM569.488 49.0994C569.163 49.0947 568.844 49.0355 568.529 48.9219C568.216 48.8082 567.932 48.6188 567.677 48.3537C567.421 48.0885 567.216 47.7322 567.062 47.2848C566.911 46.8374 566.835 46.2786 566.835 45.6087C566.835 44.9742 566.898 44.4107 567.023 43.9183C567.151 43.4259 567.334 43.0104 567.574 42.6719C567.813 42.331 568.102 42.0717 568.44 41.8942C568.779 41.7166 569.159 41.6278 569.58 41.6278C570.013 41.6278 570.398 41.7131 570.734 41.8835C571.07 42.054 571.343 42.2895 571.551 42.5902C571.762 42.8909 571.895 43.233 571.952 43.6165H570.869C570.796 43.3134 570.65 43.0661 570.432 42.8743C570.214 42.6825 569.93 42.5866 569.58 42.5866C569.047 42.5866 568.632 42.8187 568.334 43.2827C568.038 43.7467 567.888 44.3918 567.886 45.218H567.939C568.065 45.0121 568.219 44.8369 568.401 44.6925C568.586 44.5457 568.792 44.4332 569.019 44.3551C569.249 44.2746 569.49 44.2344 569.743 44.2344C570.165 44.2344 570.546 44.3374 570.887 44.5433C571.23 44.7469 571.504 45.0286 571.707 45.3885C571.911 45.7483 572.013 46.1603 572.013 46.6243C572.013 47.0883 571.907 47.5085 571.696 47.8849C571.488 48.2614 571.195 48.5597 570.816 48.7798C570.437 48.9976 569.994 49.1042 569.488 49.0994ZM569.484 48.1761C569.763 48.1761 570.013 48.1075 570.233 47.9702C570.454 47.8329 570.628 47.6482 570.755 47.4162C570.883 47.1842 570.947 46.925 570.947 46.6385C570.947 46.3591 570.884 46.1046 570.759 45.875C570.636 45.6454 570.465 45.4631 570.248 45.3281C570.032 45.1932 569.786 45.1257 569.509 45.1257C569.298 45.1257 569.103 45.166 568.923 45.2464C568.745 45.3269 568.589 45.4382 568.454 45.5803C568.319 45.7223 568.213 45.8857 568.135 46.0703C568.059 46.2526 568.021 46.4455 568.021 46.6491C568.021 46.9214 568.084 47.1735 568.209 47.4055C568.337 47.6375 568.511 47.8246 568.731 47.9666C568.954 48.1063 569.205 48.1761 569.484 48.1761ZM575.362 49.1065C574.922 49.1065 574.529 48.9941 574.183 48.7692C573.84 48.5419 573.57 48.2187 573.373 47.7997C573.179 47.3783 573.082 46.8729 573.082 46.2834C573.082 45.6939 573.181 45.1896 573.377 44.7706C573.576 44.3516 573.848 44.0308 574.194 43.8082C574.539 43.5857 574.931 43.4744 575.369 43.4744C575.708 43.4744 575.98 43.5312 576.186 43.6449C576.394 43.7562 576.555 43.8864 576.669 44.0355C576.785 44.1847 576.875 44.3161 576.939 44.4297H577.003V41.7273H578.065V49H577.028V48.1513H576.939C576.875 48.2673 576.783 48.3999 576.662 48.549C576.543 48.6982 576.38 48.8284 576.172 48.9396C575.963 49.0509 575.694 49.1065 575.362 49.1065ZM575.597 48.201C575.902 48.201 576.16 48.1205 576.371 47.9595C576.584 47.7962 576.745 47.5701 576.854 47.2812C576.965 46.9924 577.021 46.6562 577.021 46.2727C577.021 45.8939 576.966 45.5625 576.857 45.2784C576.748 44.9943 576.588 44.773 576.378 44.6143C576.167 44.4557 575.907 44.3764 575.597 44.3764C575.277 44.3764 575.011 44.4593 574.797 44.625C574.584 44.7907 574.423 45.0168 574.315 45.3033C574.208 45.5897 574.155 45.9129 574.155 46.2727C574.155 46.6373 574.209 46.9652 574.318 47.2564C574.427 47.5476 574.588 47.7784 574.801 47.9489C575.016 48.117 575.282 48.201 575.597 48.201Z" fill="white"/>
<rect x="-0.5" y="0.5" width="34" height="22" transform="matrix(-1 0 0 1 582 33)" stroke="white"/>
<path d="M590.719 49.1207C590.158 49.1184 589.678 48.9704 589.281 48.6768C588.883 48.3833 588.579 47.956 588.368 47.3949C588.157 46.8338 588.052 46.1579 588.052 45.3672C588.052 44.5788 588.157 43.9053 588.368 43.3466C588.581 42.7879 588.886 42.3617 589.284 42.0682C589.684 41.7746 590.162 41.6278 590.719 41.6278C591.275 41.6278 591.752 41.7758 592.15 42.0717C592.548 42.3653 592.852 42.7914 593.063 43.3501C593.276 43.9065 593.382 44.5788 593.382 45.3672C593.382 46.1603 593.277 46.8374 593.066 47.3984C592.855 47.9571 592.551 48.3845 592.153 48.6804C591.756 48.974 591.278 49.1207 590.719 49.1207ZM590.719 48.1726C591.211 48.1726 591.596 47.9323 591.873 47.4517C592.152 46.9711 592.292 46.2763 592.292 45.3672C592.292 44.7635 592.228 44.2533 592.1 43.8366C591.975 43.4176 591.794 43.1004 591.557 42.8849C591.323 42.6671 591.043 42.5582 590.719 42.5582C590.229 42.5582 589.844 42.7997 589.565 43.2827C589.285 43.7656 589.145 44.4605 589.142 45.3672C589.142 45.9732 589.205 46.4858 589.33 46.9048C589.458 47.3215 589.639 47.6375 589.874 47.853C590.108 48.0661 590.39 48.1726 590.719 48.1726ZM598.978 47.7926L594.894 43.7088L595.565 43.0376L599.649 47.1214L598.978 47.7926ZM595.565 47.7926L594.894 47.1214L598.978 43.0376L599.649 43.7088L595.565 47.7926ZM603.834 49.1207C603.273 49.1184 602.794 48.9704 602.396 48.6768C601.998 48.3833 601.694 47.956 601.483 47.3949C601.273 46.8338 601.167 46.1579 601.167 45.3672C601.167 44.5788 601.273 43.9053 601.483 43.3466C601.696 42.7879 602.002 42.3617 602.399 42.0682C602.8 41.7746 603.278 41.6278 603.834 41.6278C604.39 41.6278 604.867 41.7758 605.265 42.0717C605.663 42.3653 605.967 42.7914 606.178 43.3501C606.391 43.9065 606.497 44.5788 606.497 45.3672C606.497 46.1603 606.392 46.8374 606.181 47.3984C605.971 47.9571 605.666 48.3845 605.269 48.6804C604.871 48.974 604.393 49.1207 603.834 49.1207ZM603.834 48.1726C604.326 48.1726 604.711 47.9323 604.988 47.4517C605.268 46.9711 605.407 46.2763 605.407 45.3672C605.407 44.7635 605.343 44.2533 605.215 43.8366C605.09 43.4176 604.909 43.1004 604.672 42.8849C604.438 42.6671 604.158 42.5582 603.834 42.5582C603.344 42.5582 602.959 42.7997 602.68 43.2827C602.401 43.7656 602.26 44.4605 602.257 45.3672C602.257 45.9732 602.32 46.4858 602.446 46.9048C602.573 47.3215 602.755 47.6375 602.989 47.853C603.223 48.0661 603.505 48.1726 603.834 48.1726ZM610.289 49.1207C609.728 49.1184 609.249 48.9704 608.851 48.6768C608.453 48.3833 608.149 47.956 607.938 47.3949C607.728 46.8338 607.622 46.1579 607.622 45.3672C607.622 44.5788 607.728 43.9053 607.938 43.3466C608.151 42.7879 608.457 42.3617 608.854 42.0682C609.255 41.7746 609.733 41.6278 610.289 41.6278C610.845 41.6278 611.323 41.7758 611.72 42.0717C612.118 42.3653 612.422 42.7914 612.633 43.3501C612.846 43.9065 612.953 44.5788 612.953 45.3672C612.953 46.1603 612.847 46.8374 612.636 47.3984C612.426 47.9571 612.122 48.3845 611.724 48.6804C611.326 48.974 610.848 49.1207 610.289 49.1207ZM610.289 48.1726C610.782 48.1726 611.166 47.9323 611.443 47.4517C611.723 46.9711 611.862 46.2763 611.862 45.3672C611.862 44.7635 611.798 44.2533 611.671 43.8366C611.545 43.4176 611.364 43.1004 611.127 42.8849C610.893 42.6671 610.613 42.5582 610.289 42.5582C609.799 42.5582 609.414 42.7997 609.135 43.2827C608.856 43.7656 608.715 44.4605 608.712 45.3672C608.712 45.9732 608.775 46.4858 608.901 46.9048C609.028 47.3215 609.21 47.6375 609.444 47.853C609.678 48.0661 609.96 48.1726 610.289 48.1726Z" fill="white"/>
<path d="M464.509 27.0994C464.021 27.0994 463.586 27.0154 463.202 26.8473C462.821 26.6792 462.519 26.446 462.297 26.1477C462.076 25.8471 461.958 25.4991 461.941 25.1037H463.056C463.071 25.3191 463.143 25.5062 463.273 25.6648C463.406 25.821 463.578 25.9418 463.792 26.027C464.005 26.1122 464.241 26.1548 464.502 26.1548C464.788 26.1548 465.042 26.1051 465.262 26.0057C465.484 25.9062 465.658 25.7678 465.784 25.5902C465.909 25.4103 465.972 25.2031 465.972 24.9688C465.972 24.7249 465.909 24.5107 465.784 24.326C465.661 24.139 465.48 23.9922 465.24 23.8857C465.004 23.7791 464.717 23.7259 464.381 23.7259H463.767V22.831H464.381C464.651 22.831 464.888 22.7824 465.091 22.6854C465.297 22.5883 465.458 22.4534 465.574 22.2805C465.69 22.1054 465.748 21.9006 465.748 21.6662C465.748 21.4413 465.697 21.246 465.596 21.0803C465.496 20.9122 465.354 20.7808 465.169 20.6861C464.987 20.5914 464.772 20.544 464.523 20.544C464.286 20.544 464.065 20.5878 463.859 20.6754C463.655 20.7607 463.49 20.8838 463.362 21.0447C463.234 21.2034 463.165 21.3939 463.156 21.6165H462.094C462.106 21.2235 462.222 20.8778 462.442 20.5795C462.665 20.2812 462.958 20.0481 463.323 19.88C463.687 19.7119 464.092 19.6278 464.537 19.6278C465.004 19.6278 465.406 19.719 465.745 19.9013C466.086 20.0812 466.348 20.3215 466.533 20.6222C466.72 20.9228 466.812 21.2519 466.81 21.6094C466.812 22.0166 466.699 22.3622 466.469 22.6463C466.242 22.9304 465.939 23.121 465.56 23.218V23.2749C466.043 23.3482 466.417 23.54 466.682 23.8501C466.95 24.1603 467.082 24.545 467.08 25.0043C467.082 25.4044 466.971 25.763 466.746 26.0803C466.524 26.3975 466.219 26.6473 465.833 26.8295C465.448 27.0095 465.006 27.0994 464.509 27.0994Z" fill="white"/>
<path d="M498.174 27.1101C497.647 27.1101 497.192 26.9905 496.811 26.7514C496.432 26.5099 496.141 26.1773 495.937 25.7536C495.734 25.3298 495.632 24.8445 495.632 24.2976C495.632 23.7436 495.736 23.2547 495.944 22.831C496.153 22.4048 496.446 22.0722 496.825 21.8331C497.204 21.594 497.65 21.4744 498.164 21.4744C498.578 21.4744 498.947 21.5514 499.272 21.7053C499.596 21.8568 499.858 22.0698 500.057 22.3445C500.258 22.6191 500.377 22.9399 500.415 23.3068H499.382C499.325 23.0511 499.195 22.831 498.991 22.6463C498.79 22.4616 498.52 22.3693 498.182 22.3693C497.886 22.3693 497.626 22.4474 497.404 22.6037C497.184 22.7576 497.012 22.9777 496.889 23.2642C496.766 23.5483 496.704 23.8845 496.704 24.2727C496.704 24.6705 496.765 25.0137 496.885 25.3026C497.006 25.5914 497.177 25.8151 497.397 25.9737C497.619 26.1323 497.881 26.2116 498.182 26.2116C498.383 26.2116 498.565 26.175 498.728 26.1016C498.894 26.0258 499.033 25.9181 499.144 25.7784C499.258 25.6387 499.337 25.4706 499.382 25.2741H500.415C500.377 25.6269 500.263 25.9418 500.071 26.2188C499.879 26.4957 499.622 26.7135 499.3 26.8722C498.981 27.0308 498.605 27.1101 498.174 27.1101Z" fill="white"/>
<path d="M532.499 27.1101C531.987 27.1101 531.541 26.9929 531.16 26.7585C530.779 26.5241 530.483 26.1963 530.272 25.7749C530.061 25.3535 529.956 24.861 529.956 24.2976C529.956 23.7318 530.061 23.237 530.272 22.8132C530.483 22.3894 530.779 22.0604 531.16 21.826C531.541 21.5916 531.987 21.4744 532.499 21.4744C533.01 21.4744 533.456 21.5916 533.837 21.826C534.219 22.0604 534.515 22.3894 534.725 22.8132C534.936 23.237 535.041 23.7318 535.041 24.2976C535.041 24.861 534.936 25.3535 534.725 25.7749C534.515 26.1963 534.219 26.5241 533.837 26.7585C533.456 26.9929 533.01 27.1101 532.499 27.1101ZM532.502 26.2188C532.834 26.2188 533.108 26.1312 533.326 25.956C533.544 25.7808 533.705 25.5476 533.809 25.2564C533.916 24.9652 533.969 24.6444 533.969 24.294C533.969 23.946 533.916 23.6264 533.809 23.3352C533.705 23.0417 533.544 22.8061 533.326 22.6286C533.108 22.451 532.834 22.3622 532.502 22.3622C532.168 22.3622 531.891 22.451 531.671 22.6286C531.453 22.8061 531.291 23.0417 531.185 23.3352C531.081 23.6264 531.028 23.946 531.028 24.294C531.028 24.6444 531.081 24.9652 531.185 25.2564C531.291 25.5476 531.453 25.7808 531.671 25.956C531.891 26.1312 532.168 26.2188 532.502 26.2188Z" fill="white"/>
<path d="M562.795 27V21.5455H563.814V22.4332H563.881C563.995 22.1326 564.181 21.8982 564.439 21.7301C564.697 21.5597 565.006 21.4744 565.366 21.4744C565.73 21.4744 566.036 21.5597 566.282 21.7301C566.531 21.9006 566.714 22.1349 566.832 22.4332H566.889C567.02 22.142 567.227 21.91 567.511 21.7372C567.795 21.562 568.133 21.4744 568.526 21.4744C569.021 21.4744 569.425 21.6295 569.737 21.9396C570.052 22.2498 570.21 22.7173 570.21 23.3423V27H569.148V23.4418C569.148 23.0724 569.047 22.8049 568.846 22.6392C568.645 22.4735 568.404 22.3906 568.125 22.3906C567.779 22.3906 567.511 22.4972 567.319 22.7102C567.127 22.9209 567.031 23.192 567.031 23.5234V27H565.973V23.3743C565.973 23.0784 565.881 22.8404 565.696 22.6605C565.511 22.4806 565.271 22.3906 564.975 22.3906C564.774 22.3906 564.588 22.4439 564.418 22.5504C564.25 22.6546 564.113 22.8002 564.009 22.9872C563.908 23.1742 563.857 23.3909 563.857 23.6371V27H562.795Z" fill="white"/>
<path d="M600.504 27.1207C599.943 27.1184 599.464 26.9704 599.066 26.6768C598.668 26.3833 598.364 25.956 598.153 25.3949C597.942 24.8338 597.837 24.1579 597.837 23.3672C597.837 22.5788 597.942 21.9053 598.153 21.3466C598.366 20.7879 598.672 20.3617 599.069 20.0682C599.469 19.7746 599.948 19.6278 600.504 19.6278C601.06 19.6278 601.537 19.7758 601.935 20.0717C602.333 20.3653 602.637 20.7914 602.848 21.3501C603.061 21.9065 603.167 22.5788 603.167 23.3672C603.167 24.1603 603.062 24.8374 602.851 25.3984C602.641 25.9571 602.336 26.3845 601.939 26.6804C601.541 26.974 601.063 27.1207 600.504 27.1207ZM600.504 26.1726C600.996 26.1726 601.381 25.9323 601.658 25.4517C601.937 24.9711 602.077 24.2763 602.077 23.3672C602.077 22.7635 602.013 22.2533 601.885 21.8366C601.76 21.4176 601.579 21.1004 601.342 20.8849C601.108 20.6671 600.828 20.5582 600.504 20.5582C600.014 20.5582 599.629 20.7997 599.35 21.2827C599.071 21.7656 598.93 22.4605 598.927 23.3672C598.927 23.9732 598.99 24.4858 599.116 24.9048C599.243 25.3215 599.424 25.6375 599.659 25.853C599.893 26.0661 600.175 26.1726 600.504 26.1726Z" fill="white"/>
<rect x="-0.5" y="0.5" width="34" height="22" transform="matrix(-1 0 0 1 616 33)" stroke="white"/>
</svg>
