<svg width="792" height="171" viewBox="0 0 792 171" fill="none" xmlns="http://www.w3.org/2000/svg">
<rect width="792" height="171" fill="#1B1B1D"/>
<line x1="104.5" y1="34" x2="104.5" y2="31" stroke="white"/>
<line x1="122.5" y1="34" x2="122.5" y2="31" stroke="white"/>
<line x1="140.5" y1="34" x2="140.5" y2="31" stroke="white"/>
<line x1="159.5" y1="34" x2="159.5" y2="31" stroke="white"/>
<line x1="177.5" y1="34" x2="177.5" y2="31" stroke="white"/>
<line x1="195.5" y1="34" x2="195.5" y2="31" stroke="white"/>
<line x1="213.5" y1="34" x2="213.5" y2="31" stroke="white"/>
<line x1="231.5" y1="34" x2="231.5" y2="31" stroke="white"/>
<line x1="250.5" y1="34" x2="250.5" y2="31" stroke="white"/>
<line x1="268.5" y1="34" x2="268.5" y2="31" stroke="white"/>
<line x1="286.5" y1="34" x2="286.5" y2="31" stroke="white"/>
<line x1="304.5" y1="34" x2="304.5" y2="31" stroke="white"/>
<line x1="322.5" y1="34" x2="322.5" y2="31" stroke="white"/>
<line x1="340.5" y1="34" x2="340.5" y2="31" stroke="white"/>
<line x1="359.5" y1="34" x2="359.5" y2="31" stroke="white"/>
<line x1="377.5" y1="34" x2="377.5" y2="31" stroke="white"/>
<line x1="395.5" y1="34" x2="395.5" y2="31" stroke="white"/>
<line x1="413.5" y1="34" x2="413.5" y2="31" stroke="white"/>
<line x1="431.5" y1="34" x2="431.5" y2="31" stroke="white"/>
<line x1="450.5" y1="34" x2="450.5" y2="31" stroke="white"/>
<line x1="468.5" y1="34" x2="468.5" y2="31" stroke="white"/>
<line x1="486.5" y1="34" x2="486.5" y2="31" stroke="white"/>
<line x1="504.5" y1="34" x2="504.5" y2="31" stroke="white"/>
<line x1="522.5" y1="34" x2="522.5" y2="31" stroke="white"/>
<line x1="541.5" y1="34" x2="541.5" y2="31" stroke="white"/>
<line x1="559.5" y1="34" x2="559.5" y2="31" stroke="white"/>
<line x1="577.5" y1="34" x2="577.5" y2="31" stroke="white"/>
<line x1="595.5" y1="34" x2="595.5" y2="31" stroke="white"/>
<line x1="613.5" y1="34" x2="613.5" y2="31" stroke="white"/>
<line x1="631.5" y1="34" x2="631.5" y2="31" stroke="white"/>
<line x1="650.5" y1="34" x2="650.5" y2="31" stroke="white"/>
<line x1="668.5" y1="34" x2="668.5" y2="31" stroke="white"/>
<line x1="686.5" y1="34" x2="686.5" y2="31" stroke="white"/>
<path d="M131.596 18.7273V26H130.495V19.8281H130.452L128.712 20.9645V19.9134L130.527 18.7273H131.596Z" fill="white"/>
<path d="M113.504 26.1207C112.943 26.1184 112.464 25.9704 112.066 25.6768C111.668 25.3833 111.364 24.956 111.153 24.3949C110.942 23.8338 110.837 23.1579 110.837 22.3672C110.837 21.5788 110.942 20.9053 111.153 20.3466C111.366 19.7879 111.672 19.3617 112.069 19.0682C112.469 18.7746 112.948 18.6278 113.504 18.6278C114.06 18.6278 114.537 18.7758 114.935 19.0717C115.333 19.3653 115.637 19.7914 115.848 20.3501C116.061 20.9065 116.167 21.5788 116.167 22.3672C116.167 23.1603 116.062 23.8374 115.851 24.3984C115.641 24.9571 115.336 25.3845 114.939 25.6804C114.541 25.974 114.063 26.1207 113.504 26.1207ZM113.504 25.1726C113.996 25.1726 114.381 24.9323 114.658 24.4517C114.937 23.9711 115.077 23.2763 115.077 22.3672C115.077 21.7635 115.013 21.2533 114.885 20.8366C114.76 20.4176 114.579 20.1004 114.342 19.8849C114.108 19.6671 113.828 19.5582 113.504 19.5582C113.014 19.5582 112.629 19.7997 112.35 20.2827C112.071 20.7656 111.93 21.4605 111.927 22.3672C111.927 22.9732 111.99 23.4858 112.116 23.9048C112.243 24.3215 112.424 24.6375 112.659 24.853C112.893 25.0661 113.175 25.1726 113.504 25.1726Z" fill="white"/>
<path d="M146.133 26V25.2045L148.594 22.6548C148.857 22.3778 149.074 22.1352 149.244 21.9268C149.417 21.7161 149.546 21.5161 149.631 21.3267C149.716 21.1373 149.759 20.9361 149.759 20.723C149.759 20.4815 149.702 20.2732 149.588 20.098C149.475 19.9205 149.32 19.7843 149.123 19.6896C148.927 19.5926 148.705 19.544 148.459 19.544C148.199 19.544 147.971 19.5973 147.777 19.7038C147.583 19.8104 147.434 19.9607 147.33 20.1548C147.226 20.349 147.174 20.5762 147.174 20.8366H146.126C146.126 20.3939 146.228 20.0069 146.431 19.6754C146.635 19.344 146.914 19.0871 147.27 18.9048C147.625 18.7202 148.028 18.6278 148.48 18.6278C148.937 18.6278 149.34 18.719 149.688 18.9013C150.038 19.0812 150.312 19.3274 150.508 19.6399C150.705 19.95 150.803 20.3004 150.803 20.6911C150.803 20.9609 150.752 21.2249 150.65 21.483C150.551 21.741 150.377 22.0286 150.128 22.3459C149.88 22.6607 149.534 23.0431 149.091 23.4929L147.646 25.0057V25.0589H150.92V26H146.133Z" fill="white"/>
<path d="M166.509 26.0994C166.021 26.0994 165.586 26.0154 165.202 25.8473C164.821 25.6792 164.519 25.446 164.297 25.1477C164.076 24.8471 163.958 24.4991 163.941 24.1037H165.056C165.071 24.3191 165.143 24.5062 165.273 24.6648C165.406 24.821 165.578 24.9418 165.792 25.027C166.005 25.1122 166.241 25.1548 166.502 25.1548C166.788 25.1548 167.042 25.1051 167.262 25.0057C167.484 24.9062 167.658 24.7678 167.784 24.5902C167.909 24.4103 167.972 24.2031 167.972 23.9688C167.972 23.7249 167.909 23.5107 167.784 23.326C167.661 23.139 167.48 22.9922 167.24 22.8857C167.004 22.7791 166.717 22.7259 166.381 22.7259H165.767V21.831H166.381C166.651 21.831 166.888 21.7824 167.091 21.6854C167.297 21.5883 167.458 21.4534 167.574 21.2805C167.69 21.1054 167.748 20.9006 167.748 20.6662C167.748 20.4413 167.697 20.246 167.596 20.0803C167.496 19.9122 167.354 19.7808 167.169 19.6861C166.987 19.5914 166.772 19.544 166.523 19.544C166.286 19.544 166.065 19.5878 165.859 19.6754C165.655 19.7607 165.49 19.8838 165.362 20.0447C165.234 20.2034 165.165 20.3939 165.156 20.6165H164.094C164.106 20.2235 164.222 19.8778 164.442 19.5795C164.665 19.2812 164.958 19.0481 165.323 18.88C165.687 18.7119 166.092 18.6278 166.537 18.6278C167.004 18.6278 167.406 18.719 167.745 18.9013C168.086 19.0812 168.348 19.3215 168.533 19.6222C168.72 19.9228 168.812 20.2519 168.81 20.6094C168.812 21.0166 168.699 21.3622 168.469 21.6463C168.242 21.9304 167.939 22.121 167.56 22.218V22.2749C168.043 22.3482 168.417 22.54 168.682 22.8501C168.95 23.1603 169.082 23.545 169.08 24.0043C169.082 24.4044 168.971 24.763 168.746 25.0803C168.524 25.3975 168.219 25.6473 167.833 25.8295C167.448 26.0095 167.006 26.0994 166.509 26.0994Z" fill="white"/>
<path d="M182.775 24.5795V23.6918L185.918 18.7273H186.618V20.0341H186.174L183.926 23.5923V23.6491H188.233V24.5795H182.775ZM186.224 26V24.3097L186.231 23.9048V18.7273H187.271V26H186.224Z" fill="white"/>
<path d="M203.5 26.0994C203.054 26.0994 202.654 26.0142 202.299 25.8438C201.947 25.6709 201.665 25.4342 201.454 25.1335C201.243 24.8329 201.131 24.4896 201.117 24.1037H202.182C202.208 24.4162 202.347 24.6731 202.598 24.8743C202.849 25.0755 203.149 25.1761 203.5 25.1761C203.779 25.1761 204.026 25.1122 204.242 24.9844C204.46 24.8542 204.63 24.6754 204.753 24.4482C204.879 24.2209 204.941 23.9616 204.941 23.6705C204.941 23.3745 204.877 23.1106 204.75 22.8786C204.622 22.6465 204.445 22.4643 204.22 22.3317C203.998 22.1991 203.742 22.1316 203.453 22.1293C203.233 22.1293 203.012 22.1671 202.789 22.2429C202.567 22.3187 202.387 22.4181 202.25 22.5412L201.245 22.392L201.653 18.7273H205.652V19.6683H202.566L202.335 21.7031H202.377C202.519 21.5658 202.708 21.451 202.942 21.3587C203.179 21.2663 203.432 21.2202 203.702 21.2202C204.145 21.2202 204.539 21.3255 204.884 21.5362C205.233 21.7469 205.506 22.0346 205.705 22.3991C205.906 22.7614 206.005 23.178 206.003 23.6491C206.005 24.1203 205.899 24.5405 205.684 24.9098C205.47 25.2791 205.175 25.5703 204.796 25.7834C204.419 25.9941 203.987 26.0994 203.5 26.0994Z" fill="white"/>
<path d="M221.56 26.0994C221.236 26.0947 220.916 26.0355 220.601 25.9219C220.289 25.8082 220.005 25.6188 219.749 25.3537C219.493 25.0885 219.288 24.7322 219.134 24.2848C218.983 23.8374 218.907 23.2786 218.907 22.6087C218.907 21.9742 218.97 21.4107 219.095 20.9183C219.223 20.4259 219.407 20.0104 219.646 19.6719C219.885 19.331 220.174 19.0717 220.512 18.8942C220.851 18.7166 221.231 18.6278 221.652 18.6278C222.085 18.6278 222.47 18.7131 222.806 18.8835C223.143 19.054 223.415 19.2895 223.623 19.5902C223.834 19.8909 223.968 20.233 224.024 20.6165H222.941C222.868 20.3134 222.722 20.0661 222.505 19.8743C222.287 19.6825 222.003 19.5866 221.652 19.5866C221.12 19.5866 220.704 19.8187 220.406 20.2827C220.11 20.7467 219.961 21.3918 219.958 22.218H220.012C220.137 22.0121 220.291 21.8369 220.473 21.6925C220.658 21.5457 220.864 21.4332 221.091 21.3551C221.321 21.2746 221.562 21.2344 221.816 21.2344C222.237 21.2344 222.618 21.3374 222.959 21.5433C223.302 21.7469 223.576 22.0286 223.779 22.3885C223.983 22.7483 224.085 23.1603 224.085 23.6243C224.085 24.0883 223.979 24.5085 223.769 24.8849C223.56 25.2614 223.267 25.5597 222.888 25.7798C222.509 25.9976 222.067 26.1042 221.56 26.0994ZM221.556 25.1761C221.836 25.1761 222.085 25.1075 222.306 24.9702C222.526 24.8329 222.7 24.6482 222.828 24.4162C222.956 24.1842 223.019 23.925 223.019 23.6385C223.019 23.3591 222.957 23.1046 222.831 22.875C222.708 22.6454 222.538 22.4631 222.32 22.3281C222.104 22.1932 221.858 22.1257 221.581 22.1257C221.371 22.1257 221.175 22.166 220.995 22.2464C220.818 22.3269 220.661 22.4382 220.527 22.5803C220.392 22.7223 220.285 22.8857 220.207 23.0703C220.131 23.2526 220.093 23.4455 220.093 23.6491C220.093 23.9214 220.156 24.1735 220.282 24.4055C220.409 24.6375 220.583 24.8246 220.804 24.9666C221.026 25.1063 221.277 25.1761 221.556 25.1761Z" fill="white"/>
<path d="M237.049 26L240.224 19.7216V19.6683H236.552V18.7273H241.36V19.7003L238.196 26H237.049Z" fill="white"/>
<path d="M257.498 26.0994C256.989 26.0994 256.539 26.0118 256.148 25.8366C255.76 25.6615 255.456 25.42 255.236 25.1122C255.016 24.8045 254.907 24.4541 254.909 24.0611C254.907 23.7533 254.969 23.4704 255.097 23.2124C255.227 22.9519 255.404 22.7353 255.626 22.5625C255.849 22.3873 256.097 22.276 256.372 22.2287V22.1861C256.01 22.0985 255.72 21.9044 255.502 21.6037C255.284 21.303 255.177 20.9574 255.179 20.5668C255.177 20.1951 255.275 19.8636 255.474 19.5724C255.675 19.2789 255.951 19.0481 256.301 18.88C256.651 18.7119 257.05 18.6278 257.498 18.6278C257.94 18.6278 258.336 18.7131 258.684 18.8835C259.034 19.0516 259.31 19.2824 259.511 19.576C259.713 19.8672 259.814 20.1974 259.817 20.5668C259.814 20.9574 259.703 21.303 259.483 21.6037C259.263 21.9044 258.976 22.0985 258.623 22.1861V22.2287C258.896 22.276 259.141 22.3873 259.359 22.5625C259.579 22.7353 259.754 22.9519 259.884 23.2124C260.017 23.4704 260.084 23.7533 260.087 24.0611C260.084 24.4541 259.973 24.8045 259.753 25.1122C259.533 25.42 259.227 25.6615 258.837 25.8366C258.448 26.0118 258.002 26.0994 257.498 26.0994ZM257.498 25.201C257.798 25.201 258.059 25.1513 258.279 25.0518C258.499 24.95 258.67 24.8092 258.79 24.6293C258.911 24.447 258.973 24.2339 258.975 23.9901C258.973 23.7367 258.906 23.513 258.776 23.3189C258.648 23.1248 258.474 22.9721 258.254 22.8608C258.034 22.7495 257.782 22.6939 257.498 22.6939C257.211 22.6939 256.957 22.7495 256.734 22.8608C256.512 22.9721 256.337 23.1248 256.209 23.3189C256.081 23.513 256.018 23.7367 256.021 23.9901C256.018 24.2339 256.076 24.447 256.195 24.6293C256.315 24.8092 256.487 24.95 256.709 25.0518C256.932 25.1513 257.195 25.201 257.498 25.201ZM257.498 21.8168C257.739 21.8168 257.954 21.7682 258.141 21.6712C258.328 21.5741 258.474 21.4392 258.581 21.2663C258.69 21.0935 258.745 20.8911 258.748 20.6591C258.745 20.4318 258.691 20.233 258.584 20.0625C258.48 19.892 258.335 19.7607 258.148 19.6683C257.961 19.5736 257.744 19.5263 257.498 19.5263C257.247 19.5263 257.027 19.5736 256.837 19.6683C256.65 19.7607 256.505 19.892 256.4 20.0625C256.296 20.233 256.245 20.4318 256.248 20.6591C256.245 20.8911 256.297 21.0935 256.404 21.2663C256.511 21.4392 256.657 21.5741 256.844 21.6712C257.034 21.7682 257.252 21.8168 257.498 21.8168Z" fill="white"/>
<path d="M276.439 18.6278C276.764 18.6302 277.083 18.6894 277.398 18.8054C277.713 18.9214 277.997 19.1108 278.25 19.3736C278.506 19.6364 278.71 19.9915 278.861 20.4389C279.015 20.884 279.093 21.438 279.095 22.1009C279.095 22.7377 279.032 23.3047 278.904 23.8018C278.776 24.2966 278.592 24.7145 278.353 25.0554C278.117 25.3963 277.829 25.6555 277.49 25.8331C277.152 26.0107 276.771 26.0994 276.347 26.0994C275.914 26.0994 275.529 26.0142 275.193 25.8438C274.857 25.6733 274.583 25.4377 274.372 25.1371C274.162 24.834 274.03 24.486 273.978 24.093H275.061C275.132 24.4055 275.277 24.6589 275.495 24.853C275.715 25.0447 275.999 25.1406 276.347 25.1406C276.88 25.1406 277.295 24.9086 277.593 24.4446C277.892 23.9782 278.042 23.3272 278.044 22.4915H277.987C277.864 22.6951 277.71 22.8703 277.526 23.017C277.344 23.1638 277.139 23.2775 276.911 23.358C276.684 23.4384 276.442 23.4787 276.184 23.4787C275.764 23.4787 275.383 23.3757 275.04 23.1697C274.697 22.9638 274.423 22.6809 274.22 22.321C274.016 21.9612 273.914 21.5504 273.914 21.0888C273.914 20.6295 274.018 20.2128 274.227 19.8388C274.438 19.4647 274.731 19.1688 275.108 18.951C275.486 18.7308 275.93 18.6231 276.439 18.6278ZM276.443 19.5511C276.166 19.5511 275.916 19.6198 275.693 19.7571C275.473 19.892 275.299 20.0755 275.171 20.3075C275.044 20.5372 274.98 20.7929 274.98 21.0746C274.98 21.3563 275.041 21.612 275.164 21.8416C275.29 22.0689 275.46 22.25 275.676 22.3849C275.893 22.5175 276.142 22.5838 276.421 22.5838C276.63 22.5838 276.824 22.5436 277.004 22.4631C277.184 22.3826 277.341 22.2713 277.476 22.1293C277.611 21.9848 277.716 21.8215 277.792 21.6392C277.868 21.4569 277.906 21.2652 277.906 21.0639C277.906 20.7964 277.842 20.5478 277.714 20.3182C277.589 20.0885 277.416 19.9039 277.196 19.7642C276.975 19.6222 276.724 19.5511 276.443 19.5511Z" fill="white"/>
<path d="M291.868 18.7273V26H290.767V19.8281H290.725L288.984 20.9645V19.9134L290.799 18.7273H291.868ZM296.367 26.1207C295.806 26.1184 295.327 25.9704 294.929 25.6768C294.531 25.3833 294.227 24.956 294.016 24.3949C293.806 23.8338 293.7 23.1579 293.7 22.3672C293.7 21.5788 293.806 20.9053 294.016 20.3466C294.229 19.7879 294.535 19.3617 294.933 19.0682C295.333 18.7746 295.811 18.6278 296.367 18.6278C296.924 18.6278 297.401 18.7758 297.798 19.0717C298.196 19.3653 298.5 19.7914 298.711 20.3501C298.924 20.9065 299.031 21.5788 299.031 22.3672C299.031 23.1603 298.925 23.8374 298.715 24.3984C298.504 24.9571 298.2 25.3845 297.802 25.6804C297.404 25.974 296.926 26.1207 296.367 26.1207ZM296.367 25.1726C296.86 25.1726 297.244 24.9323 297.521 24.4517C297.801 23.9711 297.94 23.2763 297.94 22.3672C297.94 21.7635 297.877 21.2533 297.749 20.8366C297.623 20.4176 297.442 20.1004 297.205 19.8849C296.971 19.6671 296.692 19.5582 296.367 19.5582C295.877 19.5582 295.493 19.7997 295.213 20.2827C294.934 20.7656 294.793 21.4605 294.791 22.3672C294.791 22.9732 294.853 23.4858 294.979 23.9048C295.107 24.3215 295.288 24.6375 295.522 24.853C295.756 25.0661 296.038 25.1726 296.367 25.1726Z" fill="white"/>
<path d="M310.732 18.7273V26H309.631V19.8281H309.589L307.849 20.9645V19.9134L309.663 18.7273H310.732ZM315.459 18.7273V26H314.358V19.8281H314.315L312.575 20.9645V19.9134L314.39 18.7273H315.459Z" fill="white"/>
<path d="M328.529 18.7273V26H327.428V19.8281H327.386L325.646 20.9645V19.9134L327.46 18.7273H328.529ZM330.496 26V25.2045L332.957 22.6548C333.22 22.3778 333.437 22.1352 333.607 21.9268C333.78 21.7161 333.909 21.5161 333.994 21.3267C334.08 21.1373 334.122 20.9361 334.122 20.723C334.122 20.4815 334.065 20.2732 333.952 20.098C333.838 19.9205 333.683 19.7843 333.487 19.6896C333.29 19.5926 333.069 19.544 332.822 19.544C332.562 19.544 332.335 19.5973 332.141 19.7038C331.946 19.8104 331.797 19.9607 331.693 20.1548C331.589 20.349 331.537 20.5762 331.537 20.8366H330.489C330.489 20.3939 330.591 20.0069 330.795 19.6754C330.998 19.344 331.278 19.0871 331.633 18.9048C331.988 18.7202 332.392 18.6278 332.844 18.6278C333.301 18.6278 333.703 18.719 334.051 18.9013C334.402 19.0812 334.675 19.3274 334.871 19.6399C335.068 19.95 335.166 20.3004 335.166 20.6911C335.166 20.9609 335.115 21.2249 335.013 21.483C334.914 21.741 334.74 22.0286 334.491 22.3459C334.243 22.6607 333.897 23.0431 333.455 23.4929L332.009 25.0057V25.0589H335.283V26H330.496Z" fill="white"/>
<path d="M345.873 18.7273V26H344.772V19.8281H344.729L342.989 20.9645V19.9134L344.804 18.7273H345.873ZM350.372 26.0994C349.884 26.0994 349.449 26.0154 349.065 25.8473C348.684 25.6792 348.382 25.446 348.16 25.1477C347.94 24.8471 347.821 24.4991 347.805 24.1037H348.92C348.934 24.3191 349.006 24.5062 349.136 24.6648C349.269 24.821 349.442 24.9418 349.655 25.027C349.868 25.1122 350.105 25.1548 350.365 25.1548C350.652 25.1548 350.905 25.1051 351.125 25.0057C351.348 24.9062 351.522 24.7678 351.647 24.5902C351.772 24.4103 351.835 24.2031 351.835 23.9688C351.835 23.7249 351.772 23.5107 351.647 23.326C351.524 23.139 351.343 22.9922 351.104 22.8857C350.867 22.7791 350.58 22.7259 350.244 22.7259H349.63V21.831H350.244C350.514 21.831 350.751 21.7824 350.955 21.6854C351.161 21.5883 351.321 21.4534 351.438 21.2805C351.554 21.1054 351.612 20.9006 351.612 20.6662C351.612 20.4413 351.561 20.246 351.459 20.0803C351.359 19.9122 351.217 19.7808 351.033 19.6861C350.85 19.5914 350.635 19.544 350.386 19.544C350.15 19.544 349.928 19.5878 349.722 19.6754C349.519 19.7607 349.353 19.8838 349.225 20.0447C349.097 20.2034 349.029 20.3939 349.019 20.6165H347.957C347.969 20.2235 348.085 19.8778 348.305 19.5795C348.528 19.2812 348.821 19.0481 349.186 18.88C349.551 18.7119 349.955 18.6278 350.401 18.6278C350.867 18.6278 351.269 18.719 351.608 18.9013C351.949 19.0812 352.212 19.3215 352.396 19.6222C352.583 19.9228 352.676 20.2519 352.673 20.6094C352.676 21.0166 352.562 21.3622 352.332 21.6463C352.105 21.9304 351.802 22.121 351.423 22.218V22.2749C351.906 22.3482 352.28 22.54 352.545 22.8501C352.813 23.1603 352.946 23.545 352.943 24.0043C352.946 24.4044 352.834 24.763 352.609 25.0803C352.387 25.3975 352.083 25.6473 351.697 25.8295C351.311 26.0095 350.869 26.0994 350.372 26.0994Z" fill="white"/>
<path d="M364.824 18.7273V26H363.723V19.8281H363.681L361.941 20.9645V19.9134L363.755 18.7273H364.824ZM366.639 24.5795V23.6918L369.781 18.7273H370.481V20.0341H370.037L367.789 23.5923V23.6491H372.097V24.5795H366.639ZM370.087 26V24.3097L370.094 23.9048V18.7273H371.134V26H370.087Z" fill="white"/>
<path d="M383.495 18.7273V26H382.394V19.8281H382.351L380.611 20.9645V19.9134L382.426 18.7273H383.495ZM387.863 26.0994C387.418 26.0994 387.018 26.0142 386.663 25.8438C386.31 25.6709 386.028 25.4342 385.817 25.1335C385.607 24.8329 385.494 24.4896 385.48 24.1037H386.545C386.571 24.4162 386.71 24.6731 386.961 24.8743C387.212 25.0755 387.512 25.1761 387.863 25.1761C388.142 25.1761 388.39 25.1122 388.605 24.9844C388.823 24.8542 388.993 24.6754 389.116 24.4482C389.242 24.2209 389.305 23.9616 389.305 23.6705C389.305 23.3745 389.241 23.1106 389.113 22.8786C388.985 22.6465 388.809 22.4643 388.584 22.3317C388.361 22.1991 388.105 22.1316 387.817 22.1293C387.597 22.1293 387.375 22.1671 387.153 22.2429C386.93 22.3187 386.75 22.4181 386.613 22.5412L385.608 22.392L386.016 18.7273H390.015V19.6683H386.929L386.698 21.7031H386.741C386.883 21.5658 387.071 21.451 387.305 21.3587C387.542 21.2663 387.795 21.2202 388.065 21.2202C388.508 21.2202 388.902 21.3255 389.248 21.5362C389.596 21.7469 389.869 22.0346 390.068 22.3991C390.269 22.7614 390.369 23.178 390.366 23.6491C390.369 24.1203 390.262 24.5405 390.047 24.9098C389.834 25.2791 389.538 25.5703 389.159 25.7834C388.783 25.9941 388.351 26.0994 387.863 26.0994Z" fill="white"/>
<path d="M400.917 18.7273V26H399.816V19.8281H399.773L398.033 20.9645V19.9134L399.848 18.7273H400.917ZM405.423 26.0994C405.099 26.0947 404.779 26.0355 404.464 25.9219C404.152 25.8082 403.868 25.6188 403.612 25.3537C403.356 25.0885 403.152 24.7322 402.998 24.2848C402.846 23.8374 402.771 23.2786 402.771 22.6087C402.771 21.9742 402.833 21.4107 402.959 20.9183C403.087 20.4259 403.27 20.0104 403.509 19.6719C403.748 19.331 404.037 19.0717 404.376 18.8942C404.714 18.7166 405.094 18.6278 405.516 18.6278C405.949 18.6278 406.333 18.7131 406.67 18.8835C407.006 19.054 407.278 19.2895 407.486 19.5902C407.697 19.8909 407.831 20.233 407.888 20.6165H406.805C406.731 20.3134 406.586 20.0661 406.368 19.8743C406.15 19.6825 405.866 19.5866 405.516 19.5866C404.983 19.5866 404.567 19.8187 404.269 20.2827C403.973 20.7467 403.824 21.3918 403.822 22.218H403.875C404 22.0121 404.154 21.8369 404.337 21.6925C404.521 21.5457 404.727 21.4332 404.954 21.3551C405.184 21.2746 405.426 21.2344 405.679 21.2344C406.1 21.2344 406.481 21.3374 406.822 21.5433C407.166 21.7469 407.439 22.0286 407.643 22.3885C407.846 22.7483 407.948 23.1603 407.948 23.6243C407.948 24.0883 407.843 24.5085 407.632 24.8849C407.424 25.2614 407.13 25.5597 406.751 25.7798C406.373 25.9976 405.93 26.1042 405.423 26.0994ZM405.42 25.1761C405.699 25.1761 405.949 25.1075 406.169 24.9702C406.389 24.8329 406.563 24.6482 406.691 24.4162C406.819 24.1842 406.883 23.925 406.883 23.6385C406.883 23.3591 406.82 23.1046 406.695 22.875C406.571 22.6454 406.401 22.4631 406.183 22.3281C405.968 22.1932 405.722 22.1257 405.445 22.1257C405.234 22.1257 405.039 22.166 404.859 22.2464C404.681 22.3269 404.525 22.4382 404.39 22.5803C404.255 22.7223 404.148 22.8857 404.07 23.0703C403.994 23.2526 403.957 23.4455 403.957 23.6491C403.957 23.9214 404.019 24.1735 404.145 24.4055C404.273 24.6375 404.447 24.8246 404.667 24.9666C404.889 25.1063 405.14 25.1761 405.42 25.1761Z" fill="white"/>
<path d="M419.7 18.7273V26H418.599V19.8281H418.557L416.816 20.9645V19.9134L418.631 18.7273H419.7ZM421.912 26L425.087 19.7216V19.6683H421.415V18.7273H426.223V19.7003L423.059 26H421.912Z" fill="white"/>
<path d="M436.936 18.7273V26H435.835V19.8281H435.793L434.053 20.9645V19.9134L435.867 18.7273H436.936ZM441.361 26.0994C440.852 26.0994 440.402 26.0118 440.012 25.8366C439.623 25.6615 439.319 25.42 439.099 25.1122C438.879 24.8045 438.77 24.4541 438.772 24.0611C438.77 23.7533 438.833 23.4704 438.96 23.2124C439.091 22.9519 439.267 22.7353 439.49 22.5625C439.712 22.3873 439.961 22.276 440.235 22.2287V22.1861C439.873 22.0985 439.583 21.9044 439.365 21.6037C439.148 21.303 439.04 20.9574 439.042 20.5668C439.04 20.1951 439.138 19.8636 439.337 19.5724C439.538 19.2789 439.814 19.0481 440.164 18.88C440.515 18.7119 440.914 18.6278 441.361 18.6278C441.804 18.6278 442.199 18.7131 442.547 18.8835C442.898 19.0516 443.173 19.2824 443.375 19.576C443.576 19.8672 443.678 20.1974 443.68 20.5668C443.678 20.9574 443.566 21.303 443.346 21.6037C443.126 21.9044 442.84 22.0985 442.487 22.1861V22.2287C442.759 22.276 443.004 22.3873 443.222 22.5625C443.442 22.7353 443.617 22.9519 443.747 23.2124C443.88 23.4704 443.947 23.7533 443.95 24.0611C443.947 24.4541 443.836 24.8045 443.616 25.1122C443.396 25.42 443.09 25.6615 442.7 25.8366C442.312 26.0118 441.865 26.0994 441.361 26.0994ZM441.361 25.201C441.662 25.201 441.922 25.1513 442.142 25.0518C442.362 24.95 442.533 24.8092 442.654 24.6293C442.774 24.447 442.836 24.2339 442.838 23.9901C442.836 23.7367 442.77 23.513 442.639 23.3189C442.512 23.1248 442.338 22.9721 442.117 22.8608C441.897 22.7495 441.645 22.6939 441.361 22.6939C441.075 22.6939 440.82 22.7495 440.598 22.8608C440.375 22.9721 440.2 23.1248 440.072 23.3189C439.944 23.513 439.881 23.7367 439.884 23.9901C439.881 24.2339 439.939 24.447 440.058 24.6293C440.179 24.8092 440.35 24.95 440.573 25.0518C440.795 25.1513 441.058 25.201 441.361 25.201ZM441.361 21.8168C441.603 21.8168 441.817 21.7682 442.004 21.6712C442.191 21.5741 442.338 21.4392 442.444 21.2663C442.553 21.0935 442.609 20.8911 442.611 20.6591C442.609 20.4318 442.554 20.233 442.448 20.0625C442.344 19.892 442.198 19.7607 442.011 19.6683C441.824 19.5736 441.607 19.5263 441.361 19.5263C441.11 19.5263 440.89 19.5736 440.701 19.6683C440.514 19.7607 440.368 19.892 440.264 20.0625C440.16 20.233 440.109 20.4318 440.111 20.6591C440.109 20.8911 440.161 21.0935 440.267 21.2663C440.374 21.4392 440.521 21.5741 440.708 21.6712C440.897 21.7682 441.115 21.8168 441.361 21.8168Z" fill="white"/>
<path d="M455.917 18.7273V26H454.816V19.8281H454.773L453.033 20.9645V19.9134L454.848 18.7273H455.917ZM460.302 18.6278C460.627 18.6302 460.946 18.6894 461.261 18.8054C461.576 18.9214 461.86 19.1108 462.114 19.3736C462.369 19.6364 462.573 19.9915 462.724 20.4389C462.878 20.884 462.956 21.438 462.959 22.1009C462.959 22.7377 462.895 23.3047 462.767 23.8018C462.639 24.2966 462.456 24.7145 462.217 25.0554C461.98 25.3963 461.692 25.6555 461.354 25.8331C461.015 26.0107 460.634 26.0994 460.21 26.0994C459.777 26.0994 459.392 26.0142 459.056 25.8438C458.72 25.6733 458.446 25.4377 458.236 25.1371C458.025 24.834 457.894 24.486 457.842 24.093H458.925C458.996 24.4055 459.14 24.6589 459.358 24.853C459.578 25.0447 459.862 25.1406 460.21 25.1406C460.743 25.1406 461.158 24.9086 461.457 24.4446C461.755 23.9782 461.905 23.3272 461.908 22.4915H461.851C461.728 22.6951 461.574 22.8703 461.389 23.017C461.207 23.1638 461.002 23.2775 460.775 23.358C460.547 23.4384 460.305 23.4787 460.047 23.4787C459.628 23.4787 459.247 23.3757 458.903 23.1697C458.56 22.9638 458.287 22.6809 458.083 22.321C457.879 21.9612 457.778 21.5504 457.778 21.0888C457.778 20.6295 457.882 20.2128 458.09 19.8388C458.301 19.4647 458.594 19.1688 458.971 18.951C459.35 18.7308 459.793 18.6231 460.302 18.6278ZM460.306 19.5511C460.029 19.5511 459.779 19.6198 459.557 19.7571C459.337 19.892 459.163 20.0755 459.035 20.3075C458.907 20.5372 458.843 20.7929 458.843 21.0746C458.843 21.3563 458.905 21.612 459.028 21.8416C459.153 22.0689 459.324 22.25 459.539 22.3849C459.757 22.5175 460.005 22.5838 460.285 22.5838C460.493 22.5838 460.687 22.5436 460.867 22.4631C461.047 22.3826 461.204 22.2713 461.339 22.1293C461.474 21.9848 461.58 21.8215 461.655 21.6392C461.731 21.4569 461.769 21.2652 461.769 21.0639C461.769 20.7964 461.705 20.5478 461.577 20.3182C461.452 20.0885 461.279 19.9039 461.059 19.7642C460.839 19.6222 460.588 19.5511 460.306 19.5511Z" fill="white"/>
<path d="M470.906 26V25.2045L473.367 22.6548C473.629 22.3778 473.846 22.1352 474.016 21.9268C474.189 21.7161 474.318 21.5161 474.403 21.3267C474.489 21.1373 474.531 20.9361 474.531 20.723C474.531 20.4815 474.475 20.2732 474.361 20.098C474.247 19.9205 474.092 19.7843 473.896 19.6896C473.699 19.5926 473.478 19.544 473.232 19.544C472.971 19.544 472.744 19.5973 472.55 19.7038C472.356 19.8104 472.207 19.9607 472.102 20.1548C471.998 20.349 471.946 20.5762 471.946 20.8366H470.899C470.899 20.3939 471 20.0069 471.204 19.6754C471.408 19.344 471.687 19.0871 472.042 18.9048C472.397 18.7202 472.801 18.6278 473.253 18.6278C473.71 18.6278 474.112 18.719 474.46 18.9013C474.811 19.0812 475.084 19.3274 475.281 19.6399C475.477 19.95 475.575 20.3004 475.575 20.6911C475.575 20.9609 475.524 21.2249 475.423 21.483C475.323 21.741 475.149 22.0286 474.901 22.3459C474.652 22.6607 474.306 23.0431 473.864 23.4929L472.418 25.0057V25.0589H475.693V26H470.906ZM479.57 26.1207C479.009 26.1184 478.53 25.9704 478.132 25.6768C477.734 25.3833 477.43 24.956 477.22 24.3949C477.009 23.8338 476.903 23.1579 476.903 22.3672C476.903 21.5788 477.009 20.9053 477.22 20.3466C477.433 19.7879 477.738 19.3617 478.136 19.0682C478.536 18.7746 479.014 18.6278 479.57 18.6278C480.127 18.6278 480.604 18.7758 481.002 19.0717C481.399 19.3653 481.703 19.7914 481.914 20.3501C482.127 20.9065 482.234 21.5788 482.234 22.3672C482.234 23.1603 482.128 23.8374 481.918 24.3984C481.707 24.9571 481.403 25.3845 481.005 25.6804C480.607 25.974 480.129 26.1207 479.57 26.1207ZM479.57 25.1726C480.063 25.1726 480.448 24.9323 480.725 24.4517C481.004 23.9711 481.144 23.2763 481.144 22.3672C481.144 21.7635 481.08 21.2533 480.952 20.8366C480.826 20.4176 480.645 20.1004 480.408 19.8849C480.174 19.6671 479.895 19.5582 479.57 19.5582C479.08 19.5582 478.696 19.7997 478.416 20.2827C478.137 20.7656 477.996 21.4605 477.994 22.3672C477.994 22.9732 478.056 23.4858 478.182 23.9048C478.31 24.3215 478.491 24.6375 478.725 24.853C478.96 25.0661 479.241 25.1726 479.57 25.1726Z" fill="white"/>
<path d="M489.77 26V25.2045L492.231 22.6548C492.494 22.3778 492.71 22.1352 492.881 21.9268C493.054 21.7161 493.183 21.5161 493.268 21.3267C493.353 21.1373 493.396 20.9361 493.396 20.723C493.396 20.4815 493.339 20.2732 493.225 20.098C493.112 19.9205 492.956 19.7843 492.76 19.6896C492.563 19.5926 492.342 19.544 492.096 19.544C491.835 19.544 491.608 19.5973 491.414 19.7038C491.22 19.8104 491.071 19.9607 490.967 20.1548C490.862 20.349 490.81 20.5762 490.81 20.8366H489.763C489.763 20.3939 489.865 20.0069 490.068 19.6754C490.272 19.344 490.551 19.0871 490.906 18.9048C491.261 18.7202 491.665 18.6278 492.117 18.6278C492.574 18.6278 492.977 18.719 493.325 18.9013C493.675 19.0812 493.948 19.3274 494.145 19.6399C494.341 19.95 494.44 20.3004 494.44 20.6911C494.44 20.9609 494.389 21.2249 494.287 21.483C494.188 21.741 494.013 22.0286 493.765 22.3459C493.516 22.6607 493.171 23.0431 492.728 23.4929L491.283 25.0057V25.0589H494.557V26H489.77ZM498.662 18.7273V26H497.561V19.8281H497.518L495.778 20.9645V19.9134L497.593 18.7273H498.662Z" fill="white"/>
<path d="M507.067 26V25.2045L509.528 22.6548C509.79 22.3778 510.007 22.1352 510.178 21.9268C510.35 21.7161 510.479 21.5161 510.565 21.3267C510.65 21.1373 510.692 20.9361 510.692 20.723C510.692 20.4815 510.636 20.2732 510.522 20.098C510.408 19.9205 510.253 19.7843 510.057 19.6896C509.86 19.5926 509.639 19.544 509.393 19.544C509.132 19.544 508.905 19.5973 508.711 19.7038C508.517 19.8104 508.368 19.9607 508.263 20.1548C508.159 20.349 508.107 20.5762 508.107 20.8366H507.06C507.06 20.3939 507.161 20.0069 507.365 19.6754C507.569 19.344 507.848 19.0871 508.203 18.9048C508.558 18.7202 508.962 18.6278 509.414 18.6278C509.871 18.6278 510.273 18.719 510.621 18.9013C510.972 19.0812 511.245 19.3274 511.442 19.6399C511.638 19.95 511.737 20.3004 511.737 20.6911C511.737 20.9609 511.686 21.2249 511.584 21.483C511.484 21.741 511.31 22.0286 511.062 22.3459C510.813 22.6607 510.468 23.0431 510.025 23.4929L508.58 25.0057V25.0589H511.854V26H507.067ZM513.2 26V25.2045L515.661 22.6548C515.923 22.3778 516.14 22.1352 516.31 21.9268C516.483 21.7161 516.612 21.5161 516.697 21.3267C516.783 21.1373 516.825 20.9361 516.825 20.723C516.825 20.4815 516.768 20.2732 516.655 20.098C516.541 19.9205 516.386 19.7843 516.19 19.6896C515.993 19.5926 515.772 19.544 515.526 19.544C515.265 19.544 515.038 19.5973 514.844 19.7038C514.65 19.8104 514.5 19.9607 514.396 20.1548C514.292 20.349 514.24 20.5762 514.24 20.8366H513.192C513.192 20.3939 513.294 20.0069 513.498 19.6754C513.701 19.344 513.981 19.0871 514.336 18.9048C514.691 18.7202 515.095 18.6278 515.547 18.6278C516.004 18.6278 516.406 18.719 516.754 18.9013C517.105 19.0812 517.378 19.3274 517.575 19.6399C517.771 19.95 517.869 20.3004 517.869 20.6911C517.869 20.9609 517.818 21.2249 517.717 21.483C517.617 21.741 517.443 22.0286 517.195 22.3459C516.946 22.6607 516.6 23.0431 516.158 23.4929L514.712 25.0057V25.0589H517.987V26H513.2Z" fill="white"/>
<path d="M524.911 26V25.2045L527.371 22.6548C527.634 22.3778 527.851 22.1352 528.021 21.9268C528.194 21.7161 528.323 21.5161 528.408 21.3267C528.494 21.1373 528.536 20.9361 528.536 20.723C528.536 20.4815 528.479 20.2732 528.366 20.098C528.252 19.9205 528.097 19.7843 527.901 19.6896C527.704 19.5926 527.483 19.544 527.237 19.544C526.976 19.544 526.749 19.5973 526.555 19.7038C526.361 19.8104 526.211 19.9607 526.107 20.1548C526.003 20.349 525.951 20.5762 525.951 20.8366H524.903C524.903 20.3939 525.005 20.0069 525.209 19.6754C525.412 19.344 525.692 19.0871 526.047 18.9048C526.402 18.7202 526.806 18.6278 527.258 18.6278C527.715 18.6278 528.117 18.719 528.465 18.9013C528.816 19.0812 529.089 19.3274 529.286 19.6399C529.482 19.95 529.58 20.3004 529.58 20.6911C529.58 20.9609 529.529 21.2249 529.428 21.483C529.328 21.741 529.154 22.0286 528.906 22.3459C528.657 22.6607 528.311 23.0431 527.869 23.4929L526.423 25.0057V25.0589H529.697V26H524.911ZM533.575 26.0994C533.088 26.0994 532.652 26.0154 532.268 25.8473C531.887 25.6792 531.585 25.446 531.363 25.1477C531.143 24.8471 531.024 24.4991 531.008 24.1037H532.123C532.137 24.3191 532.209 24.5062 532.339 24.6648C532.472 24.821 532.645 24.9418 532.858 25.027C533.071 25.1122 533.308 25.1548 533.568 25.1548C533.855 25.1548 534.108 25.1051 534.328 25.0057C534.551 24.9062 534.725 24.7678 534.85 24.5902C534.976 24.4103 535.038 24.2031 535.038 23.9688C535.038 23.7249 534.976 23.5107 534.85 23.326C534.727 23.139 534.546 22.9922 534.307 22.8857C534.07 22.7791 533.784 22.7259 533.447 22.7259H532.833V21.831H533.447C533.717 21.831 533.954 21.7824 534.158 21.6854C534.364 21.5883 534.525 21.4534 534.641 21.2805C534.757 21.1054 534.815 20.9006 534.815 20.6662C534.815 20.4413 534.764 20.246 534.662 20.0803C534.563 19.9122 534.42 19.7808 534.236 19.6861C534.054 19.5914 533.838 19.544 533.589 19.544C533.353 19.544 533.131 19.5878 532.925 19.6754C532.722 19.7607 532.556 19.8838 532.428 20.0447C532.3 20.2034 532.232 20.3939 532.222 20.6165H531.161C531.172 20.2235 531.288 19.8778 531.509 19.5795C531.731 19.2812 532.025 19.0481 532.389 18.88C532.754 18.7119 533.159 18.6278 533.604 18.6278C534.07 18.6278 534.473 18.719 534.811 18.9013C535.152 19.0812 535.415 19.3215 535.599 19.6222C535.786 19.9228 535.879 20.2519 535.876 20.6094C535.879 21.0166 535.765 21.3622 535.536 21.6463C535.308 21.9304 535.005 22.121 534.626 22.218V22.2749C535.109 22.3482 535.483 22.54 535.749 22.8501C536.016 23.1603 536.149 23.545 536.146 24.0043C536.149 24.4044 536.037 24.763 535.812 25.0803C535.59 25.3975 535.286 25.6473 534.9 25.8295C534.514 26.0095 534.072 26.0994 533.575 26.0994Z" fill="white"/>
<path d="M542.94 26V25.2045L545.401 22.6548C545.664 22.3778 545.88 22.1352 546.051 21.9268C546.223 21.7161 546.352 21.5161 546.438 21.3267C546.523 21.1373 546.566 20.9361 546.566 20.723C546.566 20.4815 546.509 20.2732 546.395 20.098C546.281 19.9205 546.126 19.7843 545.93 19.6896C545.733 19.5926 545.512 19.544 545.266 19.544C545.005 19.544 544.778 19.5973 544.584 19.7038C544.39 19.8104 544.241 19.9607 544.137 20.1548C544.032 20.349 543.98 20.5762 543.98 20.8366H542.933C542.933 20.3939 543.035 20.0069 543.238 19.6754C543.442 19.344 543.721 19.0871 544.076 18.9048C544.431 18.7202 544.835 18.6278 545.287 18.6278C545.744 18.6278 546.146 18.719 546.494 18.9013C546.845 19.0812 547.118 19.3274 547.315 19.6399C547.511 19.95 547.61 20.3004 547.61 20.6911C547.61 20.9609 547.559 21.2249 547.457 21.483C547.357 21.741 547.183 22.0286 546.935 22.3459C546.686 22.6607 546.341 23.0431 545.898 23.4929L544.453 25.0057V25.0589H547.727V26H542.94ZM548.764 24.5795V23.6918L551.906 18.7273H552.606V20.0341H552.162L549.914 23.5923V23.6491H554.222V24.5795H548.764ZM552.212 26V24.3097L552.219 23.9048V18.7273H553.259V26H552.212Z" fill="white"/>
<path d="M562.033 26V25.2045L564.494 22.6548C564.756 22.3778 564.973 22.1352 565.143 21.9268C565.316 21.7161 565.445 21.5161 565.53 21.3267C565.616 21.1373 565.658 20.9361 565.658 20.723C565.658 20.4815 565.601 20.2732 565.488 20.098C565.374 19.9205 565.219 19.7843 565.023 19.6896C564.826 19.5926 564.605 19.544 564.359 19.544C564.098 19.544 563.871 19.5973 563.677 19.7038C563.483 19.8104 563.333 19.9607 563.229 20.1548C563.125 20.349 563.073 20.5762 563.073 20.8366H562.025C562.025 20.3939 562.127 20.0069 562.331 19.6754C562.534 19.344 562.814 19.0871 563.169 18.9048C563.524 18.7202 563.928 18.6278 564.38 18.6278C564.837 18.6278 565.239 18.719 565.587 18.9013C565.938 19.0812 566.211 19.3274 566.408 19.6399C566.604 19.95 566.702 20.3004 566.702 20.6911C566.702 20.9609 566.651 21.2249 566.55 21.483C566.45 21.741 566.276 22.0286 566.028 22.3459C565.779 22.6607 565.433 23.0431 564.991 23.4929L563.545 25.0057V25.0589H566.82V26H562.033ZM570.566 26.0994C570.121 26.0994 569.721 26.0142 569.366 25.8438C569.013 25.6709 568.731 25.4342 568.521 25.1335C568.31 24.8329 568.197 24.4896 568.183 24.1037H569.248C569.275 24.4162 569.413 24.6731 569.664 24.8743C569.915 25.0755 570.216 25.1761 570.566 25.1761C570.845 25.1761 571.093 25.1122 571.308 24.9844C571.526 24.8542 571.696 24.6754 571.82 24.4482C571.945 24.2209 572.008 23.9616 572.008 23.6705C572.008 23.3745 571.944 23.1106 571.816 22.8786C571.688 22.6465 571.512 22.4643 571.287 22.3317C571.064 22.1991 570.809 22.1316 570.52 22.1293C570.3 22.1293 570.078 22.1671 569.856 22.2429C569.633 22.3187 569.453 22.4181 569.316 22.5412L568.311 22.392L568.719 18.7273H572.718V19.6683H569.632L569.401 21.7031H569.444C569.586 21.5658 569.774 21.451 570.008 21.3587C570.245 21.2663 570.498 21.2202 570.768 21.2202C571.211 21.2202 571.605 21.3255 571.951 21.5362C572.299 21.7469 572.572 22.0346 572.771 22.3991C572.972 22.7614 573.072 23.178 573.07 23.6491C573.072 24.1203 572.965 24.5405 572.75 24.9098C572.537 25.2791 572.241 25.5703 571.862 25.7834C571.486 25.9941 571.054 26.0994 570.566 26.0994Z" fill="white"/>
<path d="M579.954 26V25.2045L582.415 22.6548C582.678 22.3778 582.895 22.1352 583.065 21.9268C583.238 21.7161 583.367 21.5161 583.452 21.3267C583.538 21.1373 583.58 20.9361 583.58 20.723C583.58 20.4815 583.523 20.2732 583.41 20.098C583.296 19.9205 583.141 19.7843 582.945 19.6896C582.748 19.5926 582.527 19.544 582.28 19.544C582.02 19.544 581.793 19.5973 581.599 19.7038C581.405 19.8104 581.255 19.9607 581.151 20.1548C581.047 20.349 580.995 20.5762 580.995 20.8366H579.947C579.947 20.3939 580.049 20.0069 580.253 19.6754C580.456 19.344 580.736 19.0871 581.091 18.9048C581.446 18.7202 581.85 18.6278 582.302 18.6278C582.759 18.6278 583.161 18.719 583.509 18.9013C583.86 19.0812 584.133 19.3274 584.329 19.6399C584.526 19.95 584.624 20.3004 584.624 20.6911C584.624 20.9609 584.573 21.2249 584.472 21.483C584.372 21.741 584.198 22.0286 583.949 22.3459C583.701 22.6607 583.355 23.0431 582.913 23.4929L581.467 25.0057V25.0589H584.741V26H579.954ZM588.626 26.0994C588.302 26.0947 587.982 26.0355 587.668 25.9219C587.355 25.8082 587.071 25.6188 586.815 25.3537C586.56 25.0885 586.355 24.7322 586.201 24.2848C586.049 23.8374 585.974 23.2786 585.974 22.6087C585.974 21.9742 586.036 21.4107 586.162 20.9183C586.29 20.4259 586.473 20.0104 586.712 19.6719C586.951 19.331 587.24 19.0717 587.579 18.8942C587.917 18.7166 588.297 18.6278 588.719 18.6278C589.152 18.6278 589.537 18.7131 589.873 18.8835C590.209 19.054 590.481 19.2895 590.69 19.5902C590.9 19.8909 591.034 20.233 591.091 20.6165H590.008C589.934 20.3134 589.789 20.0661 589.571 19.8743C589.353 19.6825 589.069 19.5866 588.719 19.5866C588.186 19.5866 587.771 19.8187 587.472 20.2827C587.176 20.7467 587.027 21.3918 587.025 22.218H587.078C587.204 22.0121 587.357 21.8369 587.54 21.6925C587.724 21.5457 587.93 21.4332 588.158 21.3551C588.387 21.2746 588.629 21.2344 588.882 21.2344C589.303 21.2344 589.685 21.3374 590.025 21.5433C590.369 21.7469 590.642 22.0286 590.846 22.3885C591.049 22.7483 591.151 23.1603 591.151 23.6243C591.151 24.0883 591.046 24.5085 590.835 24.8849C590.627 25.2614 590.333 25.5597 589.954 25.7798C589.576 25.9976 589.133 26.1042 588.626 26.0994ZM588.623 25.1761C588.902 25.1761 589.152 25.1075 589.372 24.9702C589.592 24.8329 589.766 24.6482 589.894 24.4162C590.022 24.1842 590.086 23.925 590.086 23.6385C590.086 23.3591 590.023 23.1046 589.898 22.875C589.775 22.6454 589.604 22.4631 589.386 22.3281C589.171 22.1932 588.925 22.1257 588.648 22.1257C588.437 22.1257 588.242 22.166 588.062 22.2464C587.884 22.3269 587.728 22.4382 587.593 22.5803C587.458 22.7223 587.351 22.8857 587.273 23.0703C587.198 23.2526 587.16 23.4455 587.16 23.6491C587.16 23.9214 587.222 24.1735 587.348 24.4055C587.476 24.6375 587.65 24.8246 587.87 24.9666C588.092 25.1063 588.343 25.1761 588.623 25.1761Z" fill="white"/>
<path d="M597.738 26V25.2045L600.199 22.6548C600.461 22.3778 600.678 22.1352 600.848 21.9268C601.021 21.7161 601.15 21.5161 601.236 21.3267C601.321 21.1373 601.363 20.9361 601.363 20.723C601.363 20.4815 601.307 20.2732 601.193 20.098C601.079 19.9205 600.924 19.7843 600.728 19.6896C600.531 19.5926 600.31 19.544 600.064 19.544C599.803 19.544 599.576 19.5973 599.382 19.7038C599.188 19.8104 599.039 19.9607 598.934 20.1548C598.83 20.349 598.778 20.5762 598.778 20.8366H597.731C597.731 20.3939 597.832 20.0069 598.036 19.6754C598.24 19.344 598.519 19.0871 598.874 18.9048C599.229 18.7202 599.633 18.6278 600.085 18.6278C600.542 18.6278 600.944 18.719 601.292 18.9013C601.643 19.0812 601.916 19.3274 602.113 19.6399C602.309 19.95 602.407 20.3004 602.407 20.6911C602.407 20.9609 602.357 21.2249 602.255 21.483C602.155 21.741 601.981 22.0286 601.733 22.3459C601.484 22.6607 601.138 23.0431 600.696 23.4929L599.25 25.0057V25.0589H602.525V26H597.738ZM604.116 26L607.29 19.7216V19.6683H603.618V18.7273H608.427V19.7003L605.263 26H604.116Z" fill="white"/>
<path d="M615.974 26V25.2045L618.435 22.6548C618.698 22.3778 618.914 22.1352 619.085 21.9268C619.258 21.7161 619.387 21.5161 619.472 21.3267C619.557 21.1373 619.6 20.9361 619.6 20.723C619.6 20.4815 619.543 20.2732 619.429 20.098C619.316 19.9205 619.161 19.7843 618.964 19.6896C618.768 19.5926 618.546 19.544 618.3 19.544C618.04 19.544 617.812 19.5973 617.618 19.7038C617.424 19.8104 617.275 19.9607 617.171 20.1548C617.067 20.349 617.014 20.5762 617.014 20.8366H615.967C615.967 20.3939 616.069 20.0069 616.272 19.6754C616.476 19.344 616.755 19.0871 617.11 18.9048C617.465 18.7202 617.869 18.6278 618.321 18.6278C618.778 18.6278 619.181 18.719 619.529 18.9013C619.879 19.0812 620.152 19.3274 620.349 19.6399C620.545 19.95 620.644 20.3004 620.644 20.6911C620.644 20.9609 620.593 21.2249 620.491 21.483C620.392 21.741 620.218 22.0286 619.969 22.3459C619.72 22.6607 619.375 23.0431 618.932 23.4929L617.487 25.0057V25.0589H620.761V26H615.974ZM624.564 26.0994C624.055 26.0994 623.605 26.0118 623.215 25.8366C622.826 25.6615 622.522 25.42 622.302 25.1122C622.082 24.8045 621.973 24.4541 621.975 24.0611C621.973 23.7533 622.036 23.4704 622.164 23.2124C622.294 22.9519 622.47 22.7353 622.693 22.5625C622.915 22.3873 623.164 22.276 623.438 22.2287V22.1861C623.076 22.0985 622.786 21.9044 622.568 21.6037C622.351 21.303 622.243 20.9574 622.245 20.5668C622.243 20.1951 622.341 19.8636 622.54 19.5724C622.741 19.2789 623.017 19.0481 623.367 18.88C623.718 18.7119 624.117 18.6278 624.564 18.6278C625.007 18.6278 625.402 18.7131 625.75 18.8835C626.101 19.0516 626.376 19.2824 626.578 19.576C626.779 19.8672 626.881 20.1974 626.883 20.5668C626.881 20.9574 626.769 21.303 626.549 21.6037C626.329 21.9044 626.043 22.0985 625.69 22.1861V22.2287C625.962 22.276 626.207 22.3873 626.425 22.5625C626.645 22.7353 626.82 22.9519 626.951 23.2124C627.083 23.4704 627.151 23.7533 627.153 24.0611C627.151 24.4541 627.039 24.8045 626.819 25.1122C626.599 25.42 626.294 25.6615 625.903 25.8366C625.515 26.0118 625.068 26.0994 624.564 26.0994ZM624.564 25.201C624.865 25.201 625.125 25.1513 625.345 25.0518C625.566 24.95 625.736 24.8092 625.857 24.6293C625.978 24.447 626.039 24.2339 626.041 23.9901C626.039 23.7367 625.973 23.513 625.843 23.3189C625.715 23.1248 625.541 22.9721 625.321 22.8608C625.1 22.7495 624.848 22.6939 624.564 22.6939C624.278 22.6939 624.023 22.7495 623.801 22.8608C623.578 22.9721 623.403 23.1248 623.275 23.3189C623.147 23.513 623.085 23.7367 623.087 23.9901C623.085 24.2339 623.143 24.447 623.261 24.6293C623.382 24.8092 623.553 24.95 623.776 25.0518C623.998 25.1513 624.261 25.201 624.564 25.201ZM624.564 21.8168C624.806 21.8168 625.02 21.7682 625.207 21.6712C625.394 21.5741 625.541 21.4392 625.647 21.2663C625.756 21.0935 625.812 20.8911 625.814 20.6591C625.812 20.4318 625.757 20.233 625.651 20.0625C625.547 19.892 625.401 19.7607 625.214 19.6683C625.027 19.5736 624.81 19.5263 624.564 19.5263C624.313 19.5263 624.093 19.5736 623.904 19.6683C623.717 19.7607 623.571 19.892 623.467 20.0625C623.363 20.233 623.312 20.4318 623.314 20.6591C623.312 20.8911 623.364 21.0935 623.47 21.2663C623.577 21.4392 623.724 21.5741 623.911 21.6712C624.1 21.7682 624.318 21.8168 624.564 21.8168Z" fill="white"/>
<path d="M633.954 26V25.2045L636.415 22.6548C636.678 22.3778 636.895 22.1352 637.065 21.9268C637.238 21.7161 637.367 21.5161 637.452 21.3267C637.538 21.1373 637.58 20.9361 637.58 20.723C637.58 20.4815 637.523 20.2732 637.41 20.098C637.296 19.9205 637.141 19.7843 636.945 19.6896C636.748 19.5926 636.527 19.544 636.28 19.544C636.02 19.544 635.793 19.5973 635.599 19.7038C635.405 19.8104 635.255 19.9607 635.151 20.1548C635.047 20.349 634.995 20.5762 634.995 20.8366H633.947C633.947 20.3939 634.049 20.0069 634.253 19.6754C634.456 19.344 634.736 19.0871 635.091 18.9048C635.446 18.7202 635.85 18.6278 636.302 18.6278C636.759 18.6278 637.161 18.719 637.509 18.9013C637.86 19.0812 638.133 19.3274 638.329 19.6399C638.526 19.95 638.624 20.3004 638.624 20.6911C638.624 20.9609 638.573 21.2249 638.472 21.483C638.372 21.741 638.198 22.0286 637.949 22.3459C637.701 22.6607 637.355 23.0431 636.913 23.4929L635.467 25.0057V25.0589H638.741V26H633.954ZM642.506 18.6278C642.83 18.6302 643.15 18.6894 643.464 18.8054C643.779 18.9214 644.063 19.1108 644.317 19.3736C644.572 19.6364 644.776 19.9915 644.927 20.4389C645.081 20.884 645.159 21.438 645.162 22.1009C645.162 22.7377 645.098 23.3047 644.97 23.8018C644.842 24.2966 644.659 24.7145 644.42 25.0554C644.183 25.3963 643.895 25.6555 643.557 25.8331C643.218 26.0107 642.837 26.0994 642.413 26.0994C641.98 26.0994 641.595 26.0142 641.259 25.8438C640.923 25.6733 640.65 25.4377 640.439 25.1371C640.228 24.834 640.097 24.486 640.045 24.093H641.128C641.199 24.4055 641.343 24.6589 641.561 24.853C641.781 25.0447 642.065 25.1406 642.413 25.1406C642.946 25.1406 643.361 24.9086 643.66 24.4446C643.958 23.9782 644.108 23.3272 644.111 22.4915H644.054C643.931 22.6951 643.777 22.8703 643.592 23.017C643.41 23.1638 643.205 23.2775 642.978 23.358C642.751 23.4384 642.508 23.4787 642.25 23.4787C641.831 23.4787 641.45 23.3757 641.106 23.1697C640.763 22.9638 640.49 22.6809 640.286 22.321C640.083 21.9612 639.981 21.5504 639.981 21.0888C639.981 20.6295 640.085 20.2128 640.293 19.8388C640.504 19.4647 640.797 19.1688 641.174 18.951C641.553 18.7308 641.997 18.6231 642.506 18.6278ZM642.509 19.5511C642.232 19.5511 641.982 19.6198 641.76 19.7571C641.54 19.892 641.366 20.0755 641.238 20.3075C641.11 20.5372 641.046 20.7929 641.046 21.0746C641.046 21.3563 641.108 21.612 641.231 21.8416C641.356 22.0689 641.527 22.25 641.742 22.3849C641.96 22.5175 642.208 22.5838 642.488 22.5838C642.696 22.5838 642.89 22.5436 643.07 22.4631C643.25 22.3826 643.408 22.2713 643.543 22.1293C643.677 21.9848 643.783 21.8215 643.859 21.6392C643.934 21.4569 643.972 21.2652 643.972 21.0639C643.972 20.7964 643.908 20.5478 643.78 20.3182C643.655 20.0885 643.482 19.9039 643.262 19.7642C643.042 19.6222 642.791 19.5511 642.509 19.5511Z" fill="white"/>
<path d="M655.281 26.0994C654.794 26.0994 654.358 26.0154 653.975 25.8473C653.593 25.6792 653.292 25.446 653.069 25.1477C652.849 24.8471 652.73 24.4991 652.714 24.1037H653.829C653.843 24.3191 653.915 24.5062 654.046 24.6648C654.178 24.821 654.351 24.9418 654.564 25.027C654.777 25.1122 655.014 25.1548 655.274 25.1548C655.561 25.1548 655.814 25.1051 656.034 25.0057C656.257 24.9062 656.431 24.7678 656.556 24.5902C656.682 24.4103 656.744 24.2031 656.744 23.9688C656.744 23.7249 656.682 23.5107 656.556 23.326C656.433 23.139 656.252 22.9922 656.013 22.8857C655.776 22.7791 655.49 22.7259 655.153 22.7259H654.539V21.831H655.153C655.423 21.831 655.66 21.7824 655.864 21.6854C656.07 21.5883 656.231 21.4534 656.347 21.2805C656.463 21.1054 656.521 20.9006 656.521 20.6662C656.521 20.4413 656.47 20.246 656.368 20.0803C656.269 19.9122 656.127 19.7808 655.942 19.6861C655.76 19.5914 655.544 19.544 655.296 19.544C655.059 19.544 654.837 19.5878 654.631 19.6754C654.428 19.7607 654.262 19.8838 654.134 20.0447C654.006 20.2034 653.938 20.3939 653.928 20.6165H652.867C652.878 20.2235 652.994 19.8778 653.215 19.5795C653.437 19.2812 653.731 19.0481 654.095 18.88C654.46 18.7119 654.865 18.6278 655.31 18.6278C655.776 18.6278 656.179 18.719 656.517 18.9013C656.858 19.0812 657.121 19.3215 657.305 19.6222C657.493 19.9228 657.585 20.2519 657.582 20.6094C657.585 21.0166 657.471 21.3622 657.242 21.6463C657.014 21.9304 656.711 22.121 656.332 22.218V22.2749C656.815 22.3482 657.189 22.54 657.455 22.8501C657.722 23.1603 657.855 23.545 657.852 24.0043C657.855 24.4044 657.743 24.763 657.519 25.0803C657.296 25.3975 656.992 25.6473 656.606 25.8295C656.22 26.0095 655.778 26.0994 655.281 26.0994ZM661.727 26.1207C661.166 26.1184 660.686 25.9704 660.288 25.6768C659.891 25.3833 659.586 24.956 659.376 24.3949C659.165 23.8338 659.06 23.1579 659.06 22.3672C659.06 21.5788 659.165 20.9053 659.376 20.3466C659.589 19.7879 659.894 19.3617 660.292 19.0682C660.692 18.7746 661.17 18.6278 661.727 18.6278C662.283 18.6278 662.76 18.7758 663.158 19.0717C663.555 19.3653 663.86 19.7914 664.07 20.3501C664.283 20.9065 664.39 21.5788 664.39 22.3672C664.39 23.1603 664.285 23.8374 664.074 24.3984C663.863 24.9571 663.559 25.3845 663.161 25.6804C662.764 25.974 662.285 26.1207 661.727 26.1207ZM661.727 25.1726C662.219 25.1726 662.604 24.9323 662.881 24.4517C663.16 23.9711 663.3 23.2763 663.3 22.3672C663.3 21.7635 663.236 21.2533 663.108 20.8366C662.983 20.4176 662.801 20.1004 662.565 19.8849C662.33 19.6671 662.051 19.5582 661.727 19.5582C661.237 19.5582 660.852 19.7997 660.573 20.2827C660.293 20.7656 660.152 21.4605 660.15 22.3672C660.15 22.9732 660.213 23.4858 660.338 23.9048C660.466 24.3215 660.647 24.6375 660.881 24.853C661.116 25.0661 661.398 25.1726 661.727 25.1726Z" fill="white"/>
<path d="M673.646 26.0994C673.158 26.0994 672.722 26.0154 672.339 25.8473C671.958 25.6792 671.656 25.446 671.433 25.1477C671.213 24.8471 671.095 24.4991 671.078 24.1037H672.193C672.207 24.3191 672.28 24.5062 672.41 24.6648C672.542 24.821 672.715 24.9418 672.928 25.027C673.141 25.1122 673.378 25.1548 673.638 25.1548C673.925 25.1548 674.178 25.1051 674.398 25.0057C674.621 24.9062 674.795 24.7678 674.92 24.5902C675.046 24.4103 675.109 24.2031 675.109 23.9688C675.109 23.7249 675.046 23.5107 674.92 23.326C674.797 23.139 674.616 22.9922 674.377 22.8857C674.14 22.7791 673.854 22.7259 673.518 22.7259H672.903V21.831H673.518C673.788 21.831 674.024 21.7824 674.228 21.6854C674.434 21.5883 674.595 21.4534 674.711 21.2805C674.827 21.1054 674.885 20.9006 674.885 20.6662C674.885 20.4413 674.834 20.246 674.732 20.0803C674.633 19.9122 674.491 19.7808 674.306 19.6861C674.124 19.5914 673.908 19.544 673.66 19.544C673.423 19.544 673.202 19.5878 672.996 19.6754C672.792 19.7607 672.626 19.8838 672.499 20.0447C672.371 20.2034 672.302 20.3939 672.293 20.6165H671.231C671.243 20.2235 671.359 19.8778 671.579 19.5795C671.801 19.2812 672.095 19.0481 672.46 18.88C672.824 18.7119 673.229 18.6278 673.674 18.6278C674.14 18.6278 674.543 18.719 674.881 18.9013C675.222 19.0812 675.485 19.3215 675.67 19.6222C675.857 19.9228 675.949 20.2519 675.947 20.6094C675.949 21.0166 675.835 21.3622 675.606 21.6463C675.379 21.9304 675.076 22.121 674.697 22.218V22.2749C675.18 22.3482 675.554 22.54 675.819 22.8501C676.086 23.1603 676.219 23.545 676.217 24.0043C676.219 24.4044 676.108 24.763 675.883 25.0803C675.66 25.3975 675.356 25.6473 674.97 25.8295C674.584 26.0095 674.143 26.0994 673.646 26.0994ZM680.318 18.7273V26H679.217V19.8281H679.175L677.435 20.9645V19.9134L679.249 18.7273H680.318Z" fill="white"/>
<rect x="-0.5" y="0.5" width="146" height="22" transform="matrix(-1 0 0 1 250 34)" stroke="white"/>
<path d="M165.643 43.6719V42.7273H171.272V43.6719H169.003V50H167.909V43.6719H165.643ZM172.477 52.0455C172.318 52.0455 172.174 52.0324 172.044 52.0064C171.913 51.9827 171.816 51.9567 171.752 51.9283L172.008 51.0582C172.202 51.1103 172.375 51.1328 172.526 51.1257C172.678 51.1186 172.812 51.0618 172.928 50.9553C173.046 50.8487 173.15 50.6747 173.24 50.4332L173.372 50.071L171.376 44.5455H172.512L173.894 48.7784H173.95L175.332 44.5455H176.472L174.224 50.728C174.12 51.0121 173.987 51.2524 173.826 51.4489C173.665 51.6477 173.473 51.7969 173.251 51.8963C173.028 51.9957 172.77 52.0455 172.477 52.0455ZM177.47 52.0455V44.5455H178.507V45.4297H178.595C178.657 45.3161 178.746 45.1847 178.862 45.0355C178.978 44.8864 179.139 44.7562 179.345 44.6449C179.551 44.5312 179.823 44.4744 180.161 44.4744C180.602 44.4744 180.995 44.5857 181.34 44.8082C181.686 45.0308 181.957 45.3516 182.154 45.7706C182.352 46.1896 182.452 46.6939 182.452 47.2834C182.452 47.8729 182.354 48.3783 182.157 48.7997C181.961 49.2187 181.691 49.5419 181.347 49.7692C181.004 49.9941 180.612 50.1065 180.172 50.1065C179.841 50.1065 179.57 50.0509 179.359 49.9396C179.151 49.8284 178.987 49.6982 178.869 49.549C178.75 49.3999 178.659 49.2673 178.595 49.1513H178.531V52.0455H177.47ZM178.51 47.2727C178.51 47.6562 178.566 47.9924 178.677 48.2812C178.788 48.5701 178.949 48.7962 179.16 48.9595C179.371 49.1205 179.629 49.201 179.934 49.201C180.251 49.201 180.517 49.117 180.73 48.9489C180.943 48.7784 181.104 48.5476 181.213 48.2564C181.324 47.9652 181.379 47.6373 181.379 47.2727C181.379 46.9129 181.325 46.5897 181.216 46.3033C181.11 46.0168 180.949 45.7907 180.733 45.625C180.52 45.4593 180.254 45.3764 179.934 45.3764C179.626 45.3764 179.366 45.4557 179.153 45.6143C178.942 45.773 178.782 45.9943 178.673 46.2784C178.565 46.5625 178.51 46.8939 178.51 47.2727ZM185.992 50.1101C185.455 50.1101 184.992 49.9953 184.604 49.7656C184.218 49.5336 183.92 49.2081 183.709 48.7891C183.501 48.3677 183.396 47.8741 183.396 47.3082C183.396 46.7495 183.501 46.2571 183.709 45.831C183.92 45.4048 184.213 45.0722 184.59 44.8331C184.968 44.594 185.411 44.4744 185.918 44.4744C186.226 44.4744 186.524 44.5253 186.813 44.6271C187.102 44.7289 187.361 44.8887 187.59 45.1065C187.82 45.3243 188.001 45.6072 188.134 45.9553C188.266 46.3009 188.333 46.7211 188.333 47.2159V47.5923H183.997V46.7969H187.292C187.292 46.5175 187.235 46.2701 187.122 46.0547C187.008 45.8369 186.848 45.6652 186.642 45.5398C186.439 45.4143 186.2 45.3516 185.925 45.3516C185.627 45.3516 185.366 45.425 185.144 45.5717C184.923 45.7161 184.753 45.9055 184.632 46.1399C184.514 46.3719 184.455 46.6241 184.455 46.8963V47.5178C184.455 47.8823 184.519 48.1925 184.646 48.4482C184.777 48.7038 184.958 48.8991 185.19 49.0341C185.422 49.1667 185.693 49.233 186.003 49.233C186.204 49.233 186.388 49.2045 186.553 49.1477C186.719 49.0885 186.862 49.0009 186.983 48.8849C187.104 48.7689 187.196 48.6257 187.26 48.4553L188.265 48.6364C188.185 48.9323 188.04 49.1915 187.832 49.4141C187.626 49.6342 187.367 49.8059 187.054 49.929C186.744 50.0497 186.39 50.1101 185.992 50.1101Z" fill="white"/>
<rect x="-0.5" y="0.5" width="145" height="22" transform="matrix(-1 0 0 1 395 34)" stroke="white"/>
<path d="M307.041 50V42.7273H308.138V49.0554H311.434V50H307.041ZM314.951 50.1101C314.414 50.1101 313.951 49.9953 313.563 49.7656C313.177 49.5336 312.879 49.2081 312.668 48.7891C312.46 48.3677 312.355 47.8741 312.355 47.3082C312.355 46.7495 312.46 46.2571 312.668 45.831C312.879 45.4048 313.172 45.0722 313.549 44.8331C313.927 44.594 314.37 44.4744 314.877 44.4744C315.185 44.4744 315.483 44.5253 315.772 44.6271C316.06 44.7289 316.32 44.8887 316.549 45.1065C316.779 45.3243 316.96 45.6072 317.093 45.9553C317.225 46.3009 317.292 46.7211 317.292 47.2159V47.5923H312.956V46.7969H316.251C316.251 46.5175 316.194 46.2701 316.081 46.0547C315.967 45.8369 315.807 45.6652 315.601 45.5398C315.398 45.4143 315.158 45.3516 314.884 45.3516C314.586 45.3516 314.325 45.425 314.103 45.5717C313.882 45.7161 313.712 45.9055 313.591 46.1399C313.473 46.3719 313.414 46.6241 313.414 46.8963V47.5178C313.414 47.8823 313.478 48.1925 313.605 48.4482C313.736 48.7038 313.917 48.8991 314.149 49.0341C314.381 49.1667 314.652 49.233 314.962 49.233C315.163 49.233 315.347 49.2045 315.512 49.1477C315.678 49.0885 315.821 49.0009 315.942 48.8849C316.063 48.7689 316.155 48.6257 316.219 48.4553L317.224 48.6364C317.144 48.9323 316.999 49.1915 316.791 49.4141C316.585 49.6342 316.326 49.8059 316.013 49.929C315.703 50.0497 315.349 50.1101 314.951 50.1101ZM319.531 46.7614V50H318.47V44.5455H319.489V45.4332H319.556C319.682 45.1444 319.878 44.9124 320.146 44.7372C320.416 44.562 320.755 44.4744 321.165 44.4744C321.537 44.4744 321.862 44.5526 322.142 44.7088C322.421 44.8627 322.637 45.0923 322.791 45.3977C322.945 45.7031 323.022 46.0807 323.022 46.5305V50H321.96V46.6584C321.96 46.263 321.857 45.9541 321.651 45.7315C321.445 45.5066 321.163 45.3942 320.803 45.3942C320.557 45.3942 320.338 45.4474 320.146 45.554C319.956 45.6605 319.806 45.8168 319.695 46.0227C319.586 46.2263 319.531 46.4725 319.531 46.7614ZM326.733 52.1591C326.3 52.1591 325.927 52.1023 325.615 51.9886C325.304 51.875 325.051 51.7247 324.855 51.5376C324.658 51.3506 324.511 51.1458 324.414 50.9233L325.327 50.5469C325.391 50.651 325.476 50.7611 325.583 50.8771C325.691 50.9955 325.838 51.0961 326.023 51.179C326.21 51.2618 326.45 51.3033 326.744 51.3033C327.146 51.3033 327.479 51.205 327.742 51.0085C328.004 50.8144 328.136 50.5043 328.136 50.0781V49.0057H328.068C328.004 49.1217 327.912 49.2507 327.791 49.3928C327.673 49.5348 327.51 49.6579 327.301 49.7621C327.093 49.8662 326.822 49.9183 326.488 49.9183C326.057 49.9183 325.669 49.8177 325.323 49.6165C324.98 49.4129 324.708 49.1134 324.507 48.718C324.308 48.3203 324.208 47.8314 324.208 47.2514C324.208 46.6714 324.307 46.1742 324.503 45.7599C324.702 45.3456 324.974 45.0284 325.32 44.8082C325.665 44.5857 326.057 44.4744 326.495 44.4744C326.834 44.4744 327.107 44.5312 327.316 44.6449C327.524 44.7562 327.686 44.8864 327.802 45.0355C327.92 45.1847 328.012 45.3161 328.075 45.4297H328.154V44.5455H329.194V50.1207C329.194 50.5895 329.085 50.9742 328.867 51.2749C328.65 51.5755 328.355 51.7981 327.983 51.9425C327.614 52.0869 327.197 52.1591 326.733 52.1591ZM326.722 49.0376C327.028 49.0376 327.286 48.9666 327.497 48.8246C327.71 48.6802 327.871 48.4742 327.98 48.2067C328.091 47.9368 328.146 47.6136 328.146 47.2372C328.146 46.8703 328.092 46.5471 327.983 46.2678C327.874 45.9884 327.714 45.7706 327.504 45.6143C327.293 45.4557 327.033 45.3764 326.722 45.3764C326.403 45.3764 326.137 45.4593 325.923 45.625C325.71 45.7884 325.549 46.0109 325.441 46.2926C325.334 46.5743 325.281 46.8892 325.281 47.2372C325.281 47.5947 325.335 47.9084 325.444 48.1783C325.553 48.4482 325.714 48.6589 325.927 48.8104C326.142 48.9619 326.408 49.0376 326.722 49.0376ZM333.164 44.5455V45.3977H330.185V44.5455H333.164ZM330.984 43.2386H332.046V48.3984C332.046 48.6044 332.076 48.7595 332.138 48.8636C332.2 48.9654 332.279 49.0353 332.376 49.0732C332.475 49.1087 332.583 49.1264 332.699 49.1264C332.784 49.1264 332.859 49.1205 332.923 49.1087C332.987 49.0968 333.036 49.0874 333.072 49.0803L333.264 49.9574C333.202 49.9811 333.115 50.0047 333.001 50.0284C332.887 50.0545 332.745 50.0687 332.575 50.071C332.295 50.0758 332.035 50.026 331.794 49.9219C331.552 49.8177 331.357 49.6567 331.208 49.4389C331.058 49.2211 330.984 48.9477 330.984 48.6186V43.2386ZM335.518 46.7614V50H334.456V42.7273H335.504V45.4332H335.571C335.699 45.1397 335.894 44.9065 336.157 44.7337C336.42 44.5608 336.763 44.4744 337.187 44.4744C337.561 44.4744 337.888 44.5514 338.167 44.7053C338.449 44.8591 338.666 45.0888 338.82 45.3942C338.977 45.6972 339.055 46.076 339.055 46.5305V50H337.993V46.6584C337.993 46.2583 337.89 45.9482 337.684 45.728C337.478 45.5054 337.192 45.3942 336.825 45.3942C336.574 45.3942 336.349 45.4474 336.15 45.554C335.953 45.6605 335.798 45.8168 335.685 46.0227C335.573 46.2263 335.518 46.4725 335.518 46.7614Z" fill="white"/>
<path d="M373.574 94.3636C373.574 95.1402 373.432 95.8078 373.148 96.3665C372.864 96.9228 372.475 97.3513 371.98 97.652C371.488 97.9503 370.928 98.0994 370.3 98.0994C369.671 98.0994 369.108 97.9503 368.614 97.652C368.121 97.3513 367.733 96.9216 367.449 96.3629C367.165 95.8042 367.023 95.1378 367.023 94.3636C367.023 93.5871 367.165 92.9207 367.449 92.3643C367.733 91.8056 368.121 91.3771 368.614 91.0788C369.108 90.7782 369.671 90.6278 370.3 90.6278C370.928 90.6278 371.488 90.7782 371.98 91.0788C372.475 91.3771 372.864 91.8056 373.148 92.3643C373.432 92.9207 373.574 93.5871 373.574 94.3636ZM372.488 94.3636C372.488 93.7718 372.392 93.2734 372.2 92.8686C372.011 92.4614 371.75 92.1536 371.419 91.9453C371.09 91.7346 370.717 91.6293 370.3 91.6293C369.881 91.6293 369.507 91.7346 369.178 91.9453C368.849 92.1536 368.589 92.4614 368.397 92.8686C368.208 93.2734 368.113 93.7718 368.113 94.3636C368.113 94.9555 368.208 95.455 368.397 95.8622C368.589 96.267 368.849 96.5748 369.178 96.7855C369.507 96.9938 369.881 97.098 370.3 97.098C370.717 97.098 371.09 96.9938 371.419 96.7855C371.75 96.5748 372.011 96.267 372.2 95.8622C372.392 95.455 372.488 94.9555 372.488 94.3636ZM374.857 100.045V92.5455H375.894V93.4297H375.983C376.045 93.3161 376.133 93.1847 376.249 93.0355C376.365 92.8864 376.526 92.7562 376.732 92.6449C376.938 92.5312 377.211 92.4744 377.549 92.4744C377.989 92.4744 378.382 92.5857 378.728 92.8082C379.074 93.0308 379.345 93.3516 379.541 93.7706C379.74 94.1896 379.84 94.6939 379.84 95.2834C379.84 95.8729 379.741 96.3783 379.545 96.7997C379.348 97.2187 379.078 97.5419 378.735 97.7692C378.392 97.9941 378 98.1065 377.56 98.1065C377.228 98.1065 376.957 98.0509 376.747 97.9396C376.538 97.8284 376.375 97.6982 376.256 97.549C376.138 97.3999 376.047 97.2673 375.983 97.1513H375.919V100.045H374.857ZM375.898 95.2727C375.898 95.6562 375.953 95.9924 376.065 96.2812C376.176 96.5701 376.337 96.7962 376.548 96.9595C376.758 97.1205 377.016 97.201 377.322 97.201C377.639 97.201 377.904 97.117 378.117 96.9489C378.33 96.7784 378.491 96.5476 378.6 96.2564C378.711 95.9652 378.767 95.6373 378.767 95.2727C378.767 94.9129 378.713 94.5897 378.604 94.3033C378.497 94.0168 378.336 93.7907 378.121 93.625C377.908 93.4593 377.641 93.3764 377.322 93.3764C377.014 93.3764 376.754 93.4557 376.541 93.6143C376.33 93.773 376.17 93.9943 376.061 94.2784C375.952 94.5625 375.898 94.8939 375.898 95.2727ZM383.575 92.5455V93.3977H380.596V92.5455H383.575ZM381.395 91.2386H382.457V96.3984C382.457 96.6044 382.488 96.7595 382.549 96.8636C382.611 96.9654 382.69 97.0353 382.787 97.0732C382.886 97.1087 382.994 97.1264 383.11 97.1264C383.195 97.1264 383.27 97.1205 383.334 97.1087C383.398 97.0968 383.448 97.0874 383.483 97.0803L383.675 97.9574C383.613 97.9811 383.526 98.0047 383.412 98.0284C383.298 98.0545 383.156 98.0687 382.986 98.071C382.707 98.0758 382.446 98.026 382.205 97.9219C381.963 97.8177 381.768 97.6567 381.619 97.4389C381.47 97.2211 381.395 96.9477 381.395 96.6186V91.2386ZM384.75 98V92.5455H385.812V98H384.75ZM385.286 91.7038C385.101 91.7038 384.943 91.6423 384.81 91.5192C384.68 91.3937 384.615 91.2446 384.615 91.0717C384.615 90.8965 384.68 90.7474 384.81 90.6243C384.943 90.4988 385.101 90.4361 385.286 90.4361C385.471 90.4361 385.628 90.4988 385.758 90.6243C385.891 90.7474 385.957 90.8965 385.957 91.0717C385.957 91.2446 385.891 91.3937 385.758 91.5192C385.628 91.6423 385.471 91.7038 385.286 91.7038ZM389.538 98.1101C389.026 98.1101 388.58 97.9929 388.199 97.7585C387.818 97.5241 387.522 97.1963 387.311 96.7749C387.1 96.3535 386.995 95.861 386.995 95.2976C386.995 94.7318 387.1 94.237 387.311 93.8132C387.522 93.3894 387.818 93.0604 388.199 92.826C388.58 92.5916 389.026 92.4744 389.538 92.4744C390.049 92.4744 390.495 92.5916 390.877 92.826C391.258 93.0604 391.554 93.3894 391.764 93.8132C391.975 94.237 392.08 94.7318 392.08 95.2976C392.08 95.861 391.975 96.3535 391.764 96.7749C391.554 97.1963 391.258 97.5241 390.877 97.7585C390.495 97.9929 390.049 98.1101 389.538 98.1101ZM389.541 97.2188C389.873 97.2188 390.147 97.1312 390.365 96.956C390.583 96.7808 390.744 96.5476 390.848 96.2564C390.955 95.9652 391.008 95.6444 391.008 95.294C391.008 94.946 390.955 94.6264 390.848 94.3352C390.744 94.0417 390.583 93.8061 390.365 93.6286C390.147 93.451 389.873 93.3622 389.541 93.3622C389.207 93.3622 388.93 93.451 388.71 93.6286C388.493 93.8061 388.33 94.0417 388.224 94.3352C388.12 94.6264 388.068 94.946 388.068 95.294C388.068 95.6444 388.12 95.9652 388.224 96.2564C388.33 96.5476 388.493 96.7808 388.71 96.956C388.93 97.1312 389.207 97.2188 389.541 97.2188ZM394.327 94.7614V98H393.266V92.5455H394.285V93.4332H394.352C394.478 93.1444 394.674 92.9124 394.942 92.7372C395.212 92.562 395.551 92.4744 395.961 92.4744C396.333 92.4744 396.658 92.5526 396.937 92.7088C397.217 92.8627 397.433 93.0923 397.587 93.3977C397.741 93.7031 397.818 94.0807 397.818 94.5305V98H396.756V94.6584C396.756 94.263 396.653 93.9541 396.447 93.7315C396.241 93.5066 395.958 93.3942 395.599 93.3942C395.352 93.3942 395.133 93.4474 394.942 93.554C394.752 93.6605 394.602 93.8168 394.491 94.0227C394.382 94.2263 394.327 94.4725 394.327 94.7614ZM403.93 98.1065C403.49 98.1065 403.097 97.9941 402.752 97.7692C402.408 97.5419 402.138 97.2187 401.942 96.7997C401.748 96.3783 401.651 95.8729 401.651 95.2834C401.651 94.6939 401.749 94.1896 401.945 93.7706C402.144 93.3516 402.417 93.0308 402.762 92.8082C403.108 92.5857 403.5 92.4744 403.938 92.4744C404.276 92.4744 404.548 92.5312 404.754 92.6449C404.963 92.7562 405.124 92.8864 405.237 93.0355C405.353 93.1847 405.443 93.3161 405.507 93.4297H405.571V90.7273H406.633V98H405.596V97.1513H405.507C405.443 97.2673 405.351 97.3999 405.23 97.549C405.112 97.6982 404.948 97.8284 404.74 97.9396C404.532 98.0509 404.262 98.1065 403.93 98.1065ZM404.165 97.201C404.47 97.201 404.728 97.1205 404.939 96.9595C405.152 96.7962 405.313 96.5701 405.422 96.2812C405.533 95.9924 405.589 95.6562 405.589 95.2727C405.589 94.8939 405.534 94.5625 405.426 94.2784C405.317 93.9943 405.157 93.773 404.946 93.6143C404.735 93.4557 404.475 93.3764 404.165 93.3764C403.845 93.3764 403.579 93.4593 403.366 93.625C403.153 93.7907 402.992 94.0168 402.883 94.3033C402.776 94.5897 402.723 94.9129 402.723 95.2727C402.723 95.6373 402.778 95.9652 402.886 96.2564C402.995 96.5476 403.156 96.7784 403.369 96.9489C403.585 97.117 403.85 97.201 404.165 97.201ZM409.736 98.1207C409.39 98.1207 409.078 98.0568 408.798 97.929C408.519 97.7988 408.297 97.6106 408.134 97.3643C407.973 97.1181 407.893 96.8163 407.893 96.4588C407.893 96.151 407.952 95.8977 408.07 95.6989C408.189 95.5 408.348 95.3426 408.55 95.2266C408.751 95.1106 408.976 95.023 409.224 94.9638C409.473 94.9046 409.726 94.8596 409.984 94.8288C410.311 94.791 410.576 94.7602 410.78 94.7365C410.983 94.7105 411.131 94.669 411.224 94.6122C411.316 94.5554 411.362 94.4631 411.362 94.3352V94.3104C411.362 94.0002 411.275 93.7599 411.099 93.5895C410.927 93.419 410.668 93.3338 410.325 93.3338C409.968 93.3338 409.686 93.4131 409.48 93.5717C409.276 93.728 409.136 93.902 409.057 94.0938L408.06 93.8665C408.178 93.535 408.351 93.2675 408.578 93.0639C408.808 92.858 409.072 92.7088 409.37 92.6165C409.668 92.5218 409.982 92.4744 410.311 92.4744C410.529 92.4744 410.76 92.5005 411.003 92.5526C411.25 92.6023 411.479 92.6946 411.692 92.8295C411.908 92.9645 412.084 93.1574 412.222 93.4084C412.359 93.657 412.427 93.9801 412.427 94.3778V98H411.391V97.2543H411.348C411.279 97.3916 411.176 97.5265 411.039 97.6591C410.902 97.7917 410.725 97.9018 410.51 97.9893C410.294 98.0769 410.036 98.1207 409.736 98.1207ZM409.967 97.2685C410.26 97.2685 410.511 97.2105 410.719 97.0945C410.93 96.9785 411.09 96.8269 411.199 96.6399C411.31 96.4505 411.366 96.2481 411.366 96.0327V95.3295C411.328 95.3674 411.254 95.4029 411.146 95.4361C411.039 95.4669 410.917 95.4941 410.78 95.5178C410.642 95.5391 410.509 95.5592 410.378 95.5781C410.248 95.5947 410.139 95.6089 410.052 95.6207C409.846 95.6468 409.658 95.6906 409.487 95.7521C409.319 95.8137 409.184 95.9025 409.082 96.0185C408.983 96.1321 408.933 96.2836 408.933 96.473C408.933 96.7358 409.03 96.9347 409.224 97.0696C409.418 97.2022 409.666 97.2685 409.967 97.2685ZM416.388 92.5455V93.3977H413.408V92.5455H416.388ZM414.207 91.2386H415.269V96.3984C415.269 96.6044 415.3 96.7595 415.362 96.8636C415.423 96.9654 415.502 97.0353 415.6 97.0732C415.699 97.1087 415.807 97.1264 415.923 97.1264C416.008 97.1264 416.082 97.1205 416.146 97.1087C416.21 97.0968 416.26 97.0874 416.296 97.0803L416.487 97.9574C416.426 97.9811 416.338 98.0047 416.225 98.0284C416.111 98.0545 415.969 98.0687 415.798 98.071C415.519 98.0758 415.259 98.026 415.017 97.9219C414.776 97.8177 414.58 97.6567 414.431 97.4389C414.282 97.2211 414.207 96.9477 414.207 96.6186V91.2386ZM419.15 98.1207C418.804 98.1207 418.492 98.0568 418.212 97.929C417.933 97.7988 417.712 97.6106 417.548 97.3643C417.387 97.1181 417.307 96.8163 417.307 96.4588C417.307 96.151 417.366 95.8977 417.484 95.6989C417.603 95.5 417.762 95.3426 417.964 95.2266C418.165 95.1106 418.39 95.023 418.638 94.9638C418.887 94.9046 419.14 94.8596 419.398 94.8288C419.725 94.791 419.99 94.7602 420.194 94.7365C420.397 94.7105 420.545 94.669 420.638 94.6122C420.73 94.5554 420.776 94.4631 420.776 94.3352V94.3104C420.776 94.0002 420.689 93.7599 420.513 93.5895C420.341 93.419 420.083 93.3338 419.739 93.3338C419.382 93.3338 419.1 93.4131 418.894 93.5717C418.69 93.728 418.55 93.902 418.472 94.0938L417.474 93.8665C417.592 93.535 417.765 93.2675 417.992 93.0639C418.222 92.858 418.486 92.7088 418.784 92.6165C419.082 92.5218 419.396 92.4744 419.725 92.4744C419.943 92.4744 420.174 92.5005 420.418 92.5526C420.664 92.6023 420.893 92.6946 421.106 92.8295C421.322 92.9645 421.498 93.1574 421.636 93.4084C421.773 93.657 421.842 93.9801 421.842 94.3778V98H420.805V97.2543H420.762C420.693 97.3916 420.59 97.5265 420.453 97.6591C420.316 97.7917 420.139 97.9018 419.924 97.9893C419.708 98.0769 419.45 98.1207 419.15 98.1207ZM419.381 97.2685C419.674 97.2685 419.925 97.2105 420.133 97.0945C420.344 96.9785 420.504 96.8269 420.613 96.6399C420.724 96.4505 420.78 96.2481 420.78 96.0327V95.3295C420.742 95.3674 420.668 95.4029 420.56 95.4361C420.453 95.4669 420.331 95.4941 420.194 95.5178C420.056 95.5391 419.923 95.5592 419.793 95.5781C419.662 95.5947 419.553 95.6089 419.466 95.6207C419.26 95.6468 419.072 95.6906 418.901 95.7521C418.733 95.8137 418.598 95.9025 418.496 96.0185C418.397 96.1321 418.347 96.2836 418.347 96.473C418.347 96.7358 418.444 96.9347 418.638 97.0696C418.833 97.2022 419.08 97.2685 419.381 97.2685Z" fill="white"/>
<line x1="104" y1="144.5" x2="687" y2="144.5" stroke="white"/>
<line x1="395" y1="34.5" x2="687" y2="34.5" stroke="white"/>
<line x1="104.5" y1="145" x2="104.5" y2="115" stroke="white"/>
<line x1="104.5" y1="87" x2="104.5" y2="57" stroke="white"/>
<path d="M103.933 95.636C103.933 95.4419 104.001 95.275 104.138 95.1353C104.278 94.9956 104.446 94.9258 104.643 94.9258C104.837 94.9258 105.003 94.9956 105.14 95.1353C105.28 95.275 105.349 95.4419 105.349 95.636C105.349 95.8301 105.28 95.997 105.14 96.1367C105.003 96.2764 104.837 96.3462 104.643 96.3462C104.513 96.3462 104.393 96.3131 104.284 96.2468C104.178 96.1829 104.092 96.0977 104.028 95.9911C103.964 95.8846 103.933 95.7662 103.933 95.636ZM103.933 100.997C103.933 100.803 104.001 100.636 104.138 100.497C104.278 100.357 104.446 100.287 104.643 100.287C104.837 100.287 105.003 100.357 105.14 100.497C105.28 100.636 105.349 100.803 105.349 100.997C105.349 101.191 105.28 101.358 105.14 101.498C105.003 101.638 104.837 101.708 104.643 101.708C104.513 101.708 104.393 101.674 104.284 101.608C104.178 101.544 104.092 101.459 104.028 101.352C103.964 101.246 103.933 101.128 103.933 100.997ZM103.933 106.359C103.933 106.165 104.001 105.998 104.138 105.858C104.278 105.718 104.446 105.648 104.643 105.648C104.837 105.648 105.003 105.718 105.14 105.858C105.28 105.998 105.349 106.165 105.349 106.359C105.349 106.553 105.28 106.72 105.14 106.859C105.003 106.999 104.837 107.069 104.643 107.069C104.513 107.069 104.393 107.036 104.284 106.969C104.178 106.906 104.092 106.82 104.028 106.714C103.964 106.607 103.933 106.489 103.933 106.359Z" fill="white"/>
<line x1="686.5" y1="145" x2="686.5" y2="115" stroke="white"/>
<line x1="686.5" y1="87" x2="686.5" y2="35" stroke="white"/>
<path d="M685.933 95.636C685.933 95.4419 686.001 95.275 686.138 95.1353C686.278 94.9956 686.446 94.9258 686.643 94.9258C686.837 94.9258 687.003 94.9956 687.14 95.1353C687.28 95.275 687.349 95.4419 687.349 95.636C687.349 95.8301 687.28 95.997 687.14 96.1367C687.003 96.2764 686.837 96.3462 686.643 96.3462C686.513 96.3462 686.393 96.3131 686.284 96.2468C686.178 96.1829 686.092 96.0977 686.028 95.9911C685.964 95.8846 685.933 95.7662 685.933 95.636ZM685.933 100.997C685.933 100.803 686.001 100.636 686.138 100.497C686.278 100.357 686.446 100.287 686.643 100.287C686.837 100.287 687.003 100.357 687.14 100.497C687.28 100.636 687.349 100.803 687.349 100.997C687.349 101.191 687.28 101.358 687.14 101.498C687.003 101.638 686.837 101.708 686.643 101.708C686.513 101.708 686.393 101.674 686.284 101.608C686.178 101.544 686.092 101.459 686.028 101.352C685.964 101.246 685.933 101.128 685.933 100.997ZM685.933 106.359C685.933 106.165 686.001 105.998 686.138 105.858C686.278 105.718 686.446 105.648 686.643 105.648C686.837 105.648 687.003 105.718 687.14 105.858C687.28 105.998 687.349 106.165 687.349 106.359C687.349 106.553 687.28 106.72 687.14 106.859C687.003 106.999 686.837 107.069 686.643 107.069C686.513 107.069 686.393 107.036 686.284 106.969C686.178 106.906 686.092 106.82 686.028 106.714C685.964 106.607 685.933 106.489 685.933 106.359Z" fill="white"/>
</svg>
