<svg width="792" height="171" viewBox="0 0 792 171" fill="none" xmlns="http://www.w3.org/2000/svg">
<rect width="792" height="171" fill="#1B1B1D"/>
<line x1="104.5" y1="34" x2="104.5" y2="31" stroke="white"/>
<line x1="122.5" y1="34" x2="122.5" y2="31" stroke="white"/>
<line x1="140.5" y1="34" x2="140.5" y2="31" stroke="white"/>
<line x1="159.5" y1="34" x2="159.5" y2="31" stroke="white"/>
<line x1="177.5" y1="34" x2="177.5" y2="31" stroke="white"/>
<line x1="195.5" y1="34" x2="195.5" y2="31" stroke="white"/>
<line x1="213.5" y1="34" x2="213.5" y2="31" stroke="white"/>
<line x1="231.5" y1="34" x2="231.5" y2="31" stroke="white"/>
<line x1="250.5" y1="34" x2="250.5" y2="31" stroke="white"/>
<line x1="268.5" y1="34" x2="268.5" y2="31" stroke="white"/>
<line x1="286.5" y1="34" x2="286.5" y2="31" stroke="white"/>
<line x1="304.5" y1="34" x2="304.5" y2="31" stroke="white"/>
<line x1="322.5" y1="34" x2="322.5" y2="31" stroke="white"/>
<line x1="340.5" y1="34" x2="340.5" y2="31" stroke="white"/>
<line x1="359.5" y1="34" x2="359.5" y2="31" stroke="white"/>
<line x1="377.5" y1="34" x2="377.5" y2="31" stroke="white"/>
<line x1="395.5" y1="34" x2="395.5" y2="31" stroke="white"/>
<line x1="413.5" y1="34" x2="413.5" y2="31" stroke="white"/>
<line x1="431.5" y1="34" x2="431.5" y2="31" stroke="white"/>
<line x1="450.5" y1="34" x2="450.5" y2="31" stroke="white"/>
<line x1="468.5" y1="34" x2="468.5" y2="31" stroke="white"/>
<line x1="486.5" y1="34" x2="486.5" y2="31" stroke="white"/>
<line x1="504.5" y1="34" x2="504.5" y2="31" stroke="white"/>
<line x1="522.5" y1="34" x2="522.5" y2="31" stroke="white"/>
<line x1="541.5" y1="34" x2="541.5" y2="31" stroke="white"/>
<line x1="559.5" y1="34" x2="559.5" y2="31" stroke="white"/>
<line x1="577.5" y1="34" x2="577.5" y2="31" stroke="white"/>
<line x1="595.5" y1="34" x2="595.5" y2="31" stroke="white"/>
<line x1="613.5" y1="34" x2="613.5" y2="31" stroke="white"/>
<line x1="631.5" y1="34" x2="631.5" y2="31" stroke="white"/>
<line x1="650.5" y1="34" x2="650.5" y2="31" stroke="white"/>
<line x1="668.5" y1="34" x2="668.5" y2="31" stroke="white"/>
<line x1="686.5" y1="34" x2="686.5" y2="31" stroke="white"/>
<path d="M131.596 18.7273V26H130.495V19.8281H130.452L128.712 20.9645V19.9134L130.527 18.7273H131.596Z" fill="white"/>
<path d="M113.504 26.1207C112.943 26.1184 112.464 25.9704 112.066 25.6768C111.668 25.3833 111.364 24.956 111.153 24.3949C110.942 23.8338 110.837 23.1579 110.837 22.3672C110.837 21.5788 110.942 20.9053 111.153 20.3466C111.366 19.7879 111.672 19.3617 112.069 19.0682C112.469 18.7746 112.948 18.6278 113.504 18.6278C114.06 18.6278 114.537 18.7758 114.935 19.0717C115.333 19.3653 115.637 19.7914 115.848 20.3501C116.061 20.9065 116.167 21.5788 116.167 22.3672C116.167 23.1603 116.062 23.8374 115.851 24.3984C115.641 24.9571 115.336 25.3845 114.939 25.6804C114.541 25.974 114.063 26.1207 113.504 26.1207ZM113.504 25.1726C113.996 25.1726 114.381 24.9323 114.658 24.4517C114.937 23.9711 115.077 23.2763 115.077 22.3672C115.077 21.7635 115.013 21.2533 114.885 20.8366C114.76 20.4176 114.579 20.1004 114.342 19.8849C114.108 19.6671 113.828 19.5582 113.504 19.5582C113.014 19.5582 112.629 19.7997 112.35 20.2827C112.071 20.7656 111.93 21.4605 111.927 22.3672C111.927 22.9732 111.99 23.4858 112.116 23.9048C112.243 24.3215 112.424 24.6375 112.659 24.853C112.893 25.0661 113.175 25.1726 113.504 25.1726Z" fill="white"/>
<path d="M146.133 26V25.2045L148.594 22.6548C148.857 22.3778 149.074 22.1352 149.244 21.9268C149.417 21.7161 149.546 21.5161 149.631 21.3267C149.716 21.1373 149.759 20.9361 149.759 20.723C149.759 20.4815 149.702 20.2732 149.588 20.098C149.475 19.9205 149.32 19.7843 149.123 19.6896C148.927 19.5926 148.705 19.544 148.459 19.544C148.199 19.544 147.971 19.5973 147.777 19.7038C147.583 19.8104 147.434 19.9607 147.33 20.1548C147.226 20.349 147.174 20.5762 147.174 20.8366H146.126C146.126 20.3939 146.228 20.0069 146.431 19.6754C146.635 19.344 146.914 19.0871 147.27 18.9048C147.625 18.7202 148.028 18.6278 148.48 18.6278C148.937 18.6278 149.34 18.719 149.688 18.9013C150.038 19.0812 150.312 19.3274 150.508 19.6399C150.705 19.95 150.803 20.3004 150.803 20.6911C150.803 20.9609 150.752 21.2249 150.65 21.483C150.551 21.741 150.377 22.0286 150.128 22.3459C149.88 22.6607 149.534 23.0431 149.091 23.4929L147.646 25.0057V25.0589H150.92V26H146.133Z" fill="white"/>
<path d="M166.509 26.0994C166.021 26.0994 165.586 26.0154 165.202 25.8473C164.821 25.6792 164.519 25.446 164.297 25.1477C164.076 24.8471 163.958 24.4991 163.941 24.1037H165.056C165.071 24.3191 165.143 24.5062 165.273 24.6648C165.406 24.821 165.578 24.9418 165.792 25.027C166.005 25.1122 166.241 25.1548 166.502 25.1548C166.788 25.1548 167.042 25.1051 167.262 25.0057C167.484 24.9062 167.658 24.7678 167.784 24.5902C167.909 24.4103 167.972 24.2031 167.972 23.9688C167.972 23.7249 167.909 23.5107 167.784 23.326C167.661 23.139 167.48 22.9922 167.24 22.8857C167.004 22.7791 166.717 22.7259 166.381 22.7259H165.767V21.831H166.381C166.651 21.831 166.888 21.7824 167.091 21.6854C167.297 21.5883 167.458 21.4534 167.574 21.2805C167.69 21.1054 167.748 20.9006 167.748 20.6662C167.748 20.4413 167.697 20.246 167.596 20.0803C167.496 19.9122 167.354 19.7808 167.169 19.6861C166.987 19.5914 166.772 19.544 166.523 19.544C166.286 19.544 166.065 19.5878 165.859 19.6754C165.655 19.7607 165.49 19.8838 165.362 20.0447C165.234 20.2034 165.165 20.3939 165.156 20.6165H164.094C164.106 20.2235 164.222 19.8778 164.442 19.5795C164.665 19.2812 164.958 19.0481 165.323 18.88C165.687 18.7119 166.092 18.6278 166.537 18.6278C167.004 18.6278 167.406 18.719 167.745 18.9013C168.086 19.0812 168.348 19.3215 168.533 19.6222C168.72 19.9228 168.812 20.2519 168.81 20.6094C168.812 21.0166 168.699 21.3622 168.469 21.6463C168.242 21.9304 167.939 22.121 167.56 22.218V22.2749C168.043 22.3482 168.417 22.54 168.682 22.8501C168.95 23.1603 169.082 23.545 169.08 24.0043C169.082 24.4044 168.971 24.763 168.746 25.0803C168.524 25.3975 168.219 25.6473 167.833 25.8295C167.448 26.0095 167.006 26.0994 166.509 26.0994Z" fill="white"/>
<path d="M182.775 24.5795V23.6918L185.918 18.7273H186.618V20.0341H186.174L183.926 23.5923V23.6491H188.233V24.5795H182.775ZM186.224 26V24.3097L186.231 23.9048V18.7273H187.271V26H186.224Z" fill="white"/>
<path d="M203.5 26.0994C203.054 26.0994 202.654 26.0142 202.299 25.8438C201.947 25.6709 201.665 25.4342 201.454 25.1335C201.243 24.8329 201.131 24.4896 201.117 24.1037H202.182C202.208 24.4162 202.347 24.6731 202.598 24.8743C202.849 25.0755 203.149 25.1761 203.5 25.1761C203.779 25.1761 204.026 25.1122 204.242 24.9844C204.46 24.8542 204.63 24.6754 204.753 24.4482C204.879 24.2209 204.941 23.9616 204.941 23.6705C204.941 23.3745 204.877 23.1106 204.75 22.8786C204.622 22.6465 204.445 22.4643 204.22 22.3317C203.998 22.1991 203.742 22.1316 203.453 22.1293C203.233 22.1293 203.012 22.1671 202.789 22.2429C202.567 22.3187 202.387 22.4181 202.25 22.5412L201.245 22.392L201.653 18.7273H205.652V19.6683H202.566L202.335 21.7031H202.377C202.519 21.5658 202.708 21.451 202.942 21.3587C203.179 21.2663 203.432 21.2202 203.702 21.2202C204.145 21.2202 204.539 21.3255 204.884 21.5362C205.233 21.7469 205.506 22.0346 205.705 22.3991C205.906 22.7614 206.005 23.178 206.003 23.6491C206.005 24.1203 205.899 24.5405 205.684 24.9098C205.47 25.2791 205.175 25.5703 204.796 25.7834C204.419 25.9941 203.987 26.0994 203.5 26.0994Z" fill="white"/>
<path d="M221.56 26.0994C221.236 26.0947 220.916 26.0355 220.601 25.9219C220.289 25.8082 220.005 25.6188 219.749 25.3537C219.493 25.0885 219.288 24.7322 219.134 24.2848C218.983 23.8374 218.907 23.2786 218.907 22.6087C218.907 21.9742 218.97 21.4107 219.095 20.9183C219.223 20.4259 219.407 20.0104 219.646 19.6719C219.885 19.331 220.174 19.0717 220.512 18.8942C220.851 18.7166 221.231 18.6278 221.652 18.6278C222.085 18.6278 222.47 18.7131 222.806 18.8835C223.143 19.054 223.415 19.2895 223.623 19.5902C223.834 19.8909 223.968 20.233 224.024 20.6165H222.941C222.868 20.3134 222.722 20.0661 222.505 19.8743C222.287 19.6825 222.003 19.5866 221.652 19.5866C221.12 19.5866 220.704 19.8187 220.406 20.2827C220.11 20.7467 219.961 21.3918 219.958 22.218H220.012C220.137 22.0121 220.291 21.8369 220.473 21.6925C220.658 21.5457 220.864 21.4332 221.091 21.3551C221.321 21.2746 221.562 21.2344 221.816 21.2344C222.237 21.2344 222.618 21.3374 222.959 21.5433C223.302 21.7469 223.576 22.0286 223.779 22.3885C223.983 22.7483 224.085 23.1603 224.085 23.6243C224.085 24.0883 223.979 24.5085 223.769 24.8849C223.56 25.2614 223.267 25.5597 222.888 25.7798C222.509 25.9976 222.067 26.1042 221.56 26.0994ZM221.556 25.1761C221.836 25.1761 222.085 25.1075 222.306 24.9702C222.526 24.8329 222.7 24.6482 222.828 24.4162C222.956 24.1842 223.019 23.925 223.019 23.6385C223.019 23.3591 222.957 23.1046 222.831 22.875C222.708 22.6454 222.538 22.4631 222.32 22.3281C222.104 22.1932 221.858 22.1257 221.581 22.1257C221.371 22.1257 221.175 22.166 220.995 22.2464C220.818 22.3269 220.661 22.4382 220.527 22.5803C220.392 22.7223 220.285 22.8857 220.207 23.0703C220.131 23.2526 220.093 23.4455 220.093 23.6491C220.093 23.9214 220.156 24.1735 220.282 24.4055C220.409 24.6375 220.583 24.8246 220.804 24.9666C221.026 25.1063 221.277 25.1761 221.556 25.1761Z" fill="white"/>
<path d="M237.049 26L240.224 19.7216V19.6683H236.552V18.7273H241.36V19.7003L238.196 26H237.049Z" fill="white"/>
<path d="M257.498 26.0994C256.989 26.0994 256.539 26.0118 256.148 25.8366C255.76 25.6615 255.456 25.42 255.236 25.1122C255.016 24.8045 254.907 24.4541 254.909 24.0611C254.907 23.7533 254.969 23.4704 255.097 23.2124C255.227 22.9519 255.404 22.7353 255.626 22.5625C255.849 22.3873 256.097 22.276 256.372 22.2287V22.1861C256.01 22.0985 255.72 21.9044 255.502 21.6037C255.284 21.303 255.177 20.9574 255.179 20.5668C255.177 20.1951 255.275 19.8636 255.474 19.5724C255.675 19.2789 255.951 19.0481 256.301 18.88C256.651 18.7119 257.05 18.6278 257.498 18.6278C257.94 18.6278 258.336 18.7131 258.684 18.8835C259.034 19.0516 259.31 19.2824 259.511 19.576C259.713 19.8672 259.814 20.1974 259.817 20.5668C259.814 20.9574 259.703 21.303 259.483 21.6037C259.263 21.9044 258.976 22.0985 258.623 22.1861V22.2287C258.896 22.276 259.141 22.3873 259.359 22.5625C259.579 22.7353 259.754 22.9519 259.884 23.2124C260.017 23.4704 260.084 23.7533 260.087 24.0611C260.084 24.4541 259.973 24.8045 259.753 25.1122C259.533 25.42 259.227 25.6615 258.837 25.8366C258.448 26.0118 258.002 26.0994 257.498 26.0994ZM257.498 25.201C257.798 25.201 258.059 25.1513 258.279 25.0518C258.499 24.95 258.67 24.8092 258.79 24.6293C258.911 24.447 258.973 24.2339 258.975 23.9901C258.973 23.7367 258.906 23.513 258.776 23.3189C258.648 23.1248 258.474 22.9721 258.254 22.8608C258.034 22.7495 257.782 22.6939 257.498 22.6939C257.211 22.6939 256.957 22.7495 256.734 22.8608C256.512 22.9721 256.337 23.1248 256.209 23.3189C256.081 23.513 256.018 23.7367 256.021 23.9901C256.018 24.2339 256.076 24.447 256.195 24.6293C256.315 24.8092 256.487 24.95 256.709 25.0518C256.932 25.1513 257.195 25.201 257.498 25.201ZM257.498 21.8168C257.739 21.8168 257.954 21.7682 258.141 21.6712C258.328 21.5741 258.474 21.4392 258.581 21.2663C258.69 21.0935 258.745 20.8911 258.748 20.6591C258.745 20.4318 258.691 20.233 258.584 20.0625C258.48 19.892 258.335 19.7607 258.148 19.6683C257.961 19.5736 257.744 19.5263 257.498 19.5263C257.247 19.5263 257.027 19.5736 256.837 19.6683C256.65 19.7607 256.505 19.892 256.4 20.0625C256.296 20.233 256.245 20.4318 256.248 20.6591C256.245 20.8911 256.297 21.0935 256.404 21.2663C256.511 21.4392 256.657 21.5741 256.844 21.6712C257.034 21.7682 257.252 21.8168 257.498 21.8168Z" fill="white"/>
<path d="M276.439 18.6278C276.764 18.6302 277.083 18.6894 277.398 18.8054C277.713 18.9214 277.997 19.1108 278.25 19.3736C278.506 19.6364 278.71 19.9915 278.861 20.4389C279.015 20.884 279.093 21.438 279.095 22.1009C279.095 22.7377 279.032 23.3047 278.904 23.8018C278.776 24.2966 278.592 24.7145 278.353 25.0554C278.117 25.3963 277.829 25.6555 277.49 25.8331C277.152 26.0107 276.771 26.0994 276.347 26.0994C275.914 26.0994 275.529 26.0142 275.193 25.8438C274.857 25.6733 274.583 25.4377 274.372 25.1371C274.162 24.834 274.03 24.486 273.978 24.093H275.061C275.132 24.4055 275.277 24.6589 275.495 24.853C275.715 25.0447 275.999 25.1406 276.347 25.1406C276.88 25.1406 277.295 24.9086 277.593 24.4446C277.892 23.9782 278.042 23.3272 278.044 22.4915H277.987C277.864 22.6951 277.71 22.8703 277.526 23.017C277.344 23.1638 277.139 23.2775 276.911 23.358C276.684 23.4384 276.442 23.4787 276.184 23.4787C275.764 23.4787 275.383 23.3757 275.04 23.1697C274.697 22.9638 274.423 22.6809 274.22 22.321C274.016 21.9612 273.914 21.5504 273.914 21.0888C273.914 20.6295 274.018 20.2128 274.227 19.8388C274.438 19.4647 274.731 19.1688 275.108 18.951C275.486 18.7308 275.93 18.6231 276.439 18.6278ZM276.443 19.5511C276.166 19.5511 275.916 19.6198 275.693 19.7571C275.473 19.892 275.299 20.0755 275.171 20.3075C275.044 20.5372 274.98 20.7929 274.98 21.0746C274.98 21.3563 275.041 21.612 275.164 21.8416C275.29 22.0689 275.46 22.25 275.676 22.3849C275.893 22.5175 276.142 22.5838 276.421 22.5838C276.63 22.5838 276.824 22.5436 277.004 22.4631C277.184 22.3826 277.341 22.2713 277.476 22.1293C277.611 21.9848 277.716 21.8215 277.792 21.6392C277.868 21.4569 277.906 21.2652 277.906 21.0639C277.906 20.7964 277.842 20.5478 277.714 20.3182C277.589 20.0885 277.416 19.9039 277.196 19.7642C276.975 19.6222 276.724 19.5511 276.443 19.5511Z" fill="white"/>
<path d="M291.868 18.7273V26H290.767V19.8281H290.725L288.984 20.9645V19.9134L290.799 18.7273H291.868ZM296.367 26.1207C295.806 26.1184 295.327 25.9704 294.929 25.6768C294.531 25.3833 294.227 24.956 294.016 24.3949C293.806 23.8338 293.7 23.1579 293.7 22.3672C293.7 21.5788 293.806 20.9053 294.016 20.3466C294.229 19.7879 294.535 19.3617 294.933 19.0682C295.333 18.7746 295.811 18.6278 296.367 18.6278C296.924 18.6278 297.401 18.7758 297.798 19.0717C298.196 19.3653 298.5 19.7914 298.711 20.3501C298.924 20.9065 299.031 21.5788 299.031 22.3672C299.031 23.1603 298.925 23.8374 298.715 24.3984C298.504 24.9571 298.2 25.3845 297.802 25.6804C297.404 25.974 296.926 26.1207 296.367 26.1207ZM296.367 25.1726C296.86 25.1726 297.244 24.9323 297.521 24.4517C297.801 23.9711 297.94 23.2763 297.94 22.3672C297.94 21.7635 297.877 21.2533 297.749 20.8366C297.623 20.4176 297.442 20.1004 297.205 19.8849C296.971 19.6671 296.692 19.5582 296.367 19.5582C295.877 19.5582 295.493 19.7997 295.213 20.2827C294.934 20.7656 294.793 21.4605 294.791 22.3672C294.791 22.9732 294.853 23.4858 294.979 23.9048C295.107 24.3215 295.288 24.6375 295.522 24.853C295.756 25.0661 296.038 25.1726 296.367 25.1726Z" fill="white"/>
<path d="M310.732 18.7273V26H309.631V19.8281H309.589L307.849 20.9645V19.9134L309.663 18.7273H310.732ZM315.459 18.7273V26H314.358V19.8281H314.315L312.575 20.9645V19.9134L314.39 18.7273H315.459Z" fill="white"/>
<path d="M328.529 18.7273V26H327.428V19.8281H327.386L325.646 20.9645V19.9134L327.46 18.7273H328.529ZM330.496 26V25.2045L332.957 22.6548C333.22 22.3778 333.437 22.1352 333.607 21.9268C333.78 21.7161 333.909 21.5161 333.994 21.3267C334.08 21.1373 334.122 20.9361 334.122 20.723C334.122 20.4815 334.065 20.2732 333.952 20.098C333.838 19.9205 333.683 19.7843 333.487 19.6896C333.29 19.5926 333.069 19.544 332.822 19.544C332.562 19.544 332.335 19.5973 332.141 19.7038C331.946 19.8104 331.797 19.9607 331.693 20.1548C331.589 20.349 331.537 20.5762 331.537 20.8366H330.489C330.489 20.3939 330.591 20.0069 330.795 19.6754C330.998 19.344 331.278 19.0871 331.633 18.9048C331.988 18.7202 332.392 18.6278 332.844 18.6278C333.301 18.6278 333.703 18.719 334.051 18.9013C334.402 19.0812 334.675 19.3274 334.871 19.6399C335.068 19.95 335.166 20.3004 335.166 20.6911C335.166 20.9609 335.115 21.2249 335.013 21.483C334.914 21.741 334.74 22.0286 334.491 22.3459C334.243 22.6607 333.897 23.0431 333.455 23.4929L332.009 25.0057V25.0589H335.283V26H330.496Z" fill="white"/>
<path d="M345.873 18.7273V26H344.772V19.8281H344.729L342.989 20.9645V19.9134L344.804 18.7273H345.873ZM350.372 26.0994C349.884 26.0994 349.449 26.0154 349.065 25.8473C348.684 25.6792 348.382 25.446 348.16 25.1477C347.94 24.8471 347.821 24.4991 347.805 24.1037H348.92C348.934 24.3191 349.006 24.5062 349.136 24.6648C349.269 24.821 349.442 24.9418 349.655 25.027C349.868 25.1122 350.105 25.1548 350.365 25.1548C350.652 25.1548 350.905 25.1051 351.125 25.0057C351.348 24.9062 351.522 24.7678 351.647 24.5902C351.772 24.4103 351.835 24.2031 351.835 23.9688C351.835 23.7249 351.772 23.5107 351.647 23.326C351.524 23.139 351.343 22.9922 351.104 22.8857C350.867 22.7791 350.58 22.7259 350.244 22.7259H349.63V21.831H350.244C350.514 21.831 350.751 21.7824 350.955 21.6854C351.161 21.5883 351.321 21.4534 351.438 21.2805C351.554 21.1054 351.612 20.9006 351.612 20.6662C351.612 20.4413 351.561 20.246 351.459 20.0803C351.359 19.9122 351.217 19.7808 351.033 19.6861C350.85 19.5914 350.635 19.544 350.386 19.544C350.15 19.544 349.928 19.5878 349.722 19.6754C349.519 19.7607 349.353 19.8838 349.225 20.0447C349.097 20.2034 349.029 20.3939 349.019 20.6165H347.957C347.969 20.2235 348.085 19.8778 348.305 19.5795C348.528 19.2812 348.821 19.0481 349.186 18.88C349.551 18.7119 349.955 18.6278 350.401 18.6278C350.867 18.6278 351.269 18.719 351.608 18.9013C351.949 19.0812 352.212 19.3215 352.396 19.6222C352.583 19.9228 352.676 20.2519 352.673 20.6094C352.676 21.0166 352.562 21.3622 352.332 21.6463C352.105 21.9304 351.802 22.121 351.423 22.218V22.2749C351.906 22.3482 352.28 22.54 352.545 22.8501C352.813 23.1603 352.946 23.545 352.943 24.0043C352.946 24.4044 352.834 24.763 352.609 25.0803C352.387 25.3975 352.083 25.6473 351.697 25.8295C351.311 26.0095 350.869 26.0994 350.372 26.0994Z" fill="white"/>
<path d="M364.824 18.7273V26H363.723V19.8281H363.681L361.941 20.9645V19.9134L363.755 18.7273H364.824ZM366.639 24.5795V23.6918L369.781 18.7273H370.481V20.0341H370.037L367.789 23.5923V23.6491H372.097V24.5795H366.639ZM370.087 26V24.3097L370.094 23.9048V18.7273H371.134V26H370.087Z" fill="white"/>
<path d="M383.495 18.7273V26H382.394V19.8281H382.351L380.611 20.9645V19.9134L382.426 18.7273H383.495ZM387.863 26.0994C387.418 26.0994 387.018 26.0142 386.663 25.8438C386.31 25.6709 386.028 25.4342 385.817 25.1335C385.607 24.8329 385.494 24.4896 385.48 24.1037H386.545C386.571 24.4162 386.71 24.6731 386.961 24.8743C387.212 25.0755 387.512 25.1761 387.863 25.1761C388.142 25.1761 388.39 25.1122 388.605 24.9844C388.823 24.8542 388.993 24.6754 389.116 24.4482C389.242 24.2209 389.305 23.9616 389.305 23.6705C389.305 23.3745 389.241 23.1106 389.113 22.8786C388.985 22.6465 388.809 22.4643 388.584 22.3317C388.361 22.1991 388.105 22.1316 387.817 22.1293C387.597 22.1293 387.375 22.1671 387.153 22.2429C386.93 22.3187 386.75 22.4181 386.613 22.5412L385.608 22.392L386.016 18.7273H390.015V19.6683H386.929L386.698 21.7031H386.741C386.883 21.5658 387.071 21.451 387.305 21.3587C387.542 21.2663 387.795 21.2202 388.065 21.2202C388.508 21.2202 388.902 21.3255 389.248 21.5362C389.596 21.7469 389.869 22.0346 390.068 22.3991C390.269 22.7614 390.369 23.178 390.366 23.6491C390.369 24.1203 390.262 24.5405 390.047 24.9098C389.834 25.2791 389.538 25.5703 389.159 25.7834C388.783 25.9941 388.351 26.0994 387.863 26.0994Z" fill="white"/>
<path d="M400.917 18.7273V26H399.816V19.8281H399.773L398.033 20.9645V19.9134L399.848 18.7273H400.917ZM405.423 26.0994C405.099 26.0947 404.779 26.0355 404.464 25.9219C404.152 25.8082 403.868 25.6188 403.612 25.3537C403.356 25.0885 403.152 24.7322 402.998 24.2848C402.846 23.8374 402.771 23.2786 402.771 22.6087C402.771 21.9742 402.833 21.4107 402.959 20.9183C403.087 20.4259 403.27 20.0104 403.509 19.6719C403.748 19.331 404.037 19.0717 404.376 18.8942C404.714 18.7166 405.094 18.6278 405.516 18.6278C405.949 18.6278 406.333 18.7131 406.67 18.8835C407.006 19.054 407.278 19.2895 407.486 19.5902C407.697 19.8909 407.831 20.233 407.888 20.6165H406.805C406.731 20.3134 406.586 20.0661 406.368 19.8743C406.15 19.6825 405.866 19.5866 405.516 19.5866C404.983 19.5866 404.567 19.8187 404.269 20.2827C403.973 20.7467 403.824 21.3918 403.822 22.218H403.875C404 22.0121 404.154 21.8369 404.337 21.6925C404.521 21.5457 404.727 21.4332 404.954 21.3551C405.184 21.2746 405.426 21.2344 405.679 21.2344C406.1 21.2344 406.481 21.3374 406.822 21.5433C407.166 21.7469 407.439 22.0286 407.643 22.3885C407.846 22.7483 407.948 23.1603 407.948 23.6243C407.948 24.0883 407.843 24.5085 407.632 24.8849C407.424 25.2614 407.13 25.5597 406.751 25.7798C406.373 25.9976 405.93 26.1042 405.423 26.0994ZM405.42 25.1761C405.699 25.1761 405.949 25.1075 406.169 24.9702C406.389 24.8329 406.563 24.6482 406.691 24.4162C406.819 24.1842 406.883 23.925 406.883 23.6385C406.883 23.3591 406.82 23.1046 406.695 22.875C406.571 22.6454 406.401 22.4631 406.183 22.3281C405.968 22.1932 405.722 22.1257 405.445 22.1257C405.234 22.1257 405.039 22.166 404.859 22.2464C404.681 22.3269 404.525 22.4382 404.39 22.5803C404.255 22.7223 404.148 22.8857 404.07 23.0703C403.994 23.2526 403.957 23.4455 403.957 23.6491C403.957 23.9214 404.019 24.1735 404.145 24.4055C404.273 24.6375 404.447 24.8246 404.667 24.9666C404.889 25.1063 405.14 25.1761 405.42 25.1761Z" fill="white"/>
<path d="M419.7 18.7273V26H418.599V19.8281H418.557L416.816 20.9645V19.9134L418.631 18.7273H419.7ZM421.912 26L425.087 19.7216V19.6683H421.415V18.7273H426.223V19.7003L423.059 26H421.912Z" fill="white"/>
<path d="M436.936 18.7273V26H435.835V19.8281H435.793L434.053 20.9645V19.9134L435.867 18.7273H436.936ZM441.361 26.0994C440.852 26.0994 440.402 26.0118 440.012 25.8366C439.623 25.6615 439.319 25.42 439.099 25.1122C438.879 24.8045 438.77 24.4541 438.772 24.0611C438.77 23.7533 438.833 23.4704 438.96 23.2124C439.091 22.9519 439.267 22.7353 439.49 22.5625C439.712 22.3873 439.961 22.276 440.235 22.2287V22.1861C439.873 22.0985 439.583 21.9044 439.365 21.6037C439.148 21.303 439.04 20.9574 439.042 20.5668C439.04 20.1951 439.138 19.8636 439.337 19.5724C439.538 19.2789 439.814 19.0481 440.164 18.88C440.515 18.7119 440.914 18.6278 441.361 18.6278C441.804 18.6278 442.199 18.7131 442.547 18.8835C442.898 19.0516 443.173 19.2824 443.375 19.576C443.576 19.8672 443.678 20.1974 443.68 20.5668C443.678 20.9574 443.566 21.303 443.346 21.6037C443.126 21.9044 442.84 22.0985 442.487 22.1861V22.2287C442.759 22.276 443.004 22.3873 443.222 22.5625C443.442 22.7353 443.617 22.9519 443.747 23.2124C443.88 23.4704 443.947 23.7533 443.95 24.0611C443.947 24.4541 443.836 24.8045 443.616 25.1122C443.396 25.42 443.09 25.6615 442.7 25.8366C442.312 26.0118 441.865 26.0994 441.361 26.0994ZM441.361 25.201C441.662 25.201 441.922 25.1513 442.142 25.0518C442.362 24.95 442.533 24.8092 442.654 24.6293C442.774 24.447 442.836 24.2339 442.838 23.9901C442.836 23.7367 442.77 23.513 442.639 23.3189C442.512 23.1248 442.338 22.9721 442.117 22.8608C441.897 22.7495 441.645 22.6939 441.361 22.6939C441.075 22.6939 440.82 22.7495 440.598 22.8608C440.375 22.9721 440.2 23.1248 440.072 23.3189C439.944 23.513 439.881 23.7367 439.884 23.9901C439.881 24.2339 439.939 24.447 440.058 24.6293C440.179 24.8092 440.35 24.95 440.573 25.0518C440.795 25.1513 441.058 25.201 441.361 25.201ZM441.361 21.8168C441.603 21.8168 441.817 21.7682 442.004 21.6712C442.191 21.5741 442.338 21.4392 442.444 21.2663C442.553 21.0935 442.609 20.8911 442.611 20.6591C442.609 20.4318 442.554 20.233 442.448 20.0625C442.344 19.892 442.198 19.7607 442.011 19.6683C441.824 19.5736 441.607 19.5263 441.361 19.5263C441.11 19.5263 440.89 19.5736 440.701 19.6683C440.514 19.7607 440.368 19.892 440.264 20.0625C440.16 20.233 440.109 20.4318 440.111 20.6591C440.109 20.8911 440.161 21.0935 440.267 21.2663C440.374 21.4392 440.521 21.5741 440.708 21.6712C440.897 21.7682 441.115 21.8168 441.361 21.8168Z" fill="white"/>
<path d="M455.917 18.7273V26H454.816V19.8281H454.773L453.033 20.9645V19.9134L454.848 18.7273H455.917ZM460.302 18.6278C460.627 18.6302 460.946 18.6894 461.261 18.8054C461.576 18.9214 461.86 19.1108 462.114 19.3736C462.369 19.6364 462.573 19.9915 462.724 20.4389C462.878 20.884 462.956 21.438 462.959 22.1009C462.959 22.7377 462.895 23.3047 462.767 23.8018C462.639 24.2966 462.456 24.7145 462.217 25.0554C461.98 25.3963 461.692 25.6555 461.354 25.8331C461.015 26.0107 460.634 26.0994 460.21 26.0994C459.777 26.0994 459.392 26.0142 459.056 25.8438C458.72 25.6733 458.446 25.4377 458.236 25.1371C458.025 24.834 457.894 24.486 457.842 24.093H458.925C458.996 24.4055 459.14 24.6589 459.358 24.853C459.578 25.0447 459.862 25.1406 460.21 25.1406C460.743 25.1406 461.158 24.9086 461.457 24.4446C461.755 23.9782 461.905 23.3272 461.908 22.4915H461.851C461.728 22.6951 461.574 22.8703 461.389 23.017C461.207 23.1638 461.002 23.2775 460.775 23.358C460.547 23.4384 460.305 23.4787 460.047 23.4787C459.628 23.4787 459.247 23.3757 458.903 23.1697C458.56 22.9638 458.287 22.6809 458.083 22.321C457.879 21.9612 457.778 21.5504 457.778 21.0888C457.778 20.6295 457.882 20.2128 458.09 19.8388C458.301 19.4647 458.594 19.1688 458.971 18.951C459.35 18.7308 459.793 18.6231 460.302 18.6278ZM460.306 19.5511C460.029 19.5511 459.779 19.6198 459.557 19.7571C459.337 19.892 459.163 20.0755 459.035 20.3075C458.907 20.5372 458.843 20.7929 458.843 21.0746C458.843 21.3563 458.905 21.612 459.028 21.8416C459.153 22.0689 459.324 22.25 459.539 22.3849C459.757 22.5175 460.005 22.5838 460.285 22.5838C460.493 22.5838 460.687 22.5436 460.867 22.4631C461.047 22.3826 461.204 22.2713 461.339 22.1293C461.474 21.9848 461.58 21.8215 461.655 21.6392C461.731 21.4569 461.769 21.2652 461.769 21.0639C461.769 20.7964 461.705 20.5478 461.577 20.3182C461.452 20.0885 461.279 19.9039 461.059 19.7642C460.839 19.6222 460.588 19.5511 460.306 19.5511Z" fill="white"/>
<path d="M470.906 26V25.2045L473.367 22.6548C473.629 22.3778 473.846 22.1352 474.016 21.9268C474.189 21.7161 474.318 21.5161 474.403 21.3267C474.489 21.1373 474.531 20.9361 474.531 20.723C474.531 20.4815 474.475 20.2732 474.361 20.098C474.247 19.9205 474.092 19.7843 473.896 19.6896C473.699 19.5926 473.478 19.544 473.232 19.544C472.971 19.544 472.744 19.5973 472.55 19.7038C472.356 19.8104 472.207 19.9607 472.102 20.1548C471.998 20.349 471.946 20.5762 471.946 20.8366H470.899C470.899 20.3939 471 20.0069 471.204 19.6754C471.408 19.344 471.687 19.0871 472.042 18.9048C472.397 18.7202 472.801 18.6278 473.253 18.6278C473.71 18.6278 474.112 18.719 474.46 18.9013C474.811 19.0812 475.084 19.3274 475.281 19.6399C475.477 19.95 475.575 20.3004 475.575 20.6911C475.575 20.9609 475.524 21.2249 475.423 21.483C475.323 21.741 475.149 22.0286 474.901 22.3459C474.652 22.6607 474.306 23.0431 473.864 23.4929L472.418 25.0057V25.0589H475.693V26H470.906ZM479.57 26.1207C479.009 26.1184 478.53 25.9704 478.132 25.6768C477.734 25.3833 477.43 24.956 477.22 24.3949C477.009 23.8338 476.903 23.1579 476.903 22.3672C476.903 21.5788 477.009 20.9053 477.22 20.3466C477.433 19.7879 477.738 19.3617 478.136 19.0682C478.536 18.7746 479.014 18.6278 479.57 18.6278C480.127 18.6278 480.604 18.7758 481.002 19.0717C481.399 19.3653 481.703 19.7914 481.914 20.3501C482.127 20.9065 482.234 21.5788 482.234 22.3672C482.234 23.1603 482.128 23.8374 481.918 24.3984C481.707 24.9571 481.403 25.3845 481.005 25.6804C480.607 25.974 480.129 26.1207 479.57 26.1207ZM479.57 25.1726C480.063 25.1726 480.448 24.9323 480.725 24.4517C481.004 23.9711 481.144 23.2763 481.144 22.3672C481.144 21.7635 481.08 21.2533 480.952 20.8366C480.826 20.4176 480.645 20.1004 480.408 19.8849C480.174 19.6671 479.895 19.5582 479.57 19.5582C479.08 19.5582 478.696 19.7997 478.416 20.2827C478.137 20.7656 477.996 21.4605 477.994 22.3672C477.994 22.9732 478.056 23.4858 478.182 23.9048C478.31 24.3215 478.491 24.6375 478.725 24.853C478.96 25.0661 479.241 25.1726 479.57 25.1726Z" fill="white"/>
<path d="M489.77 26V25.2045L492.231 22.6548C492.494 22.3778 492.71 22.1352 492.881 21.9268C493.054 21.7161 493.183 21.5161 493.268 21.3267C493.353 21.1373 493.396 20.9361 493.396 20.723C493.396 20.4815 493.339 20.2732 493.225 20.098C493.112 19.9205 492.956 19.7843 492.76 19.6896C492.563 19.5926 492.342 19.544 492.096 19.544C491.835 19.544 491.608 19.5973 491.414 19.7038C491.22 19.8104 491.071 19.9607 490.967 20.1548C490.862 20.349 490.81 20.5762 490.81 20.8366H489.763C489.763 20.3939 489.865 20.0069 490.068 19.6754C490.272 19.344 490.551 19.0871 490.906 18.9048C491.261 18.7202 491.665 18.6278 492.117 18.6278C492.574 18.6278 492.977 18.719 493.325 18.9013C493.675 19.0812 493.948 19.3274 494.145 19.6399C494.341 19.95 494.44 20.3004 494.44 20.6911C494.44 20.9609 494.389 21.2249 494.287 21.483C494.188 21.741 494.013 22.0286 493.765 22.3459C493.516 22.6607 493.171 23.0431 492.728 23.4929L491.283 25.0057V25.0589H494.557V26H489.77ZM498.662 18.7273V26H497.561V19.8281H497.518L495.778 20.9645V19.9134L497.593 18.7273H498.662Z" fill="white"/>
<path d="M507.067 26V25.2045L509.528 22.6548C509.79 22.3778 510.007 22.1352 510.178 21.9268C510.35 21.7161 510.479 21.5161 510.565 21.3267C510.65 21.1373 510.692 20.9361 510.692 20.723C510.692 20.4815 510.636 20.2732 510.522 20.098C510.408 19.9205 510.253 19.7843 510.057 19.6896C509.86 19.5926 509.639 19.544 509.393 19.544C509.132 19.544 508.905 19.5973 508.711 19.7038C508.517 19.8104 508.368 19.9607 508.263 20.1548C508.159 20.349 508.107 20.5762 508.107 20.8366H507.06C507.06 20.3939 507.161 20.0069 507.365 19.6754C507.569 19.344 507.848 19.0871 508.203 18.9048C508.558 18.7202 508.962 18.6278 509.414 18.6278C509.871 18.6278 510.273 18.719 510.621 18.9013C510.972 19.0812 511.245 19.3274 511.442 19.6399C511.638 19.95 511.737 20.3004 511.737 20.6911C511.737 20.9609 511.686 21.2249 511.584 21.483C511.484 21.741 511.31 22.0286 511.062 22.3459C510.813 22.6607 510.468 23.0431 510.025 23.4929L508.58 25.0057V25.0589H511.854V26H507.067ZM513.2 26V25.2045L515.661 22.6548C515.923 22.3778 516.14 22.1352 516.31 21.9268C516.483 21.7161 516.612 21.5161 516.697 21.3267C516.783 21.1373 516.825 20.9361 516.825 20.723C516.825 20.4815 516.768 20.2732 516.655 20.098C516.541 19.9205 516.386 19.7843 516.19 19.6896C515.993 19.5926 515.772 19.544 515.526 19.544C515.265 19.544 515.038 19.5973 514.844 19.7038C514.65 19.8104 514.5 19.9607 514.396 20.1548C514.292 20.349 514.24 20.5762 514.24 20.8366H513.192C513.192 20.3939 513.294 20.0069 513.498 19.6754C513.701 19.344 513.981 19.0871 514.336 18.9048C514.691 18.7202 515.095 18.6278 515.547 18.6278C516.004 18.6278 516.406 18.719 516.754 18.9013C517.105 19.0812 517.378 19.3274 517.575 19.6399C517.771 19.95 517.869 20.3004 517.869 20.6911C517.869 20.9609 517.818 21.2249 517.717 21.483C517.617 21.741 517.443 22.0286 517.195 22.3459C516.946 22.6607 516.6 23.0431 516.158 23.4929L514.712 25.0057V25.0589H517.987V26H513.2Z" fill="white"/>
<path d="M524.911 26V25.2045L527.371 22.6548C527.634 22.3778 527.851 22.1352 528.021 21.9268C528.194 21.7161 528.323 21.5161 528.408 21.3267C528.494 21.1373 528.536 20.9361 528.536 20.723C528.536 20.4815 528.479 20.2732 528.366 20.098C528.252 19.9205 528.097 19.7843 527.901 19.6896C527.704 19.5926 527.483 19.544 527.237 19.544C526.976 19.544 526.749 19.5973 526.555 19.7038C526.361 19.8104 526.211 19.9607 526.107 20.1548C526.003 20.349 525.951 20.5762 525.951 20.8366H524.903C524.903 20.3939 525.005 20.0069 525.209 19.6754C525.412 19.344 525.692 19.0871 526.047 18.9048C526.402 18.7202 526.806 18.6278 527.258 18.6278C527.715 18.6278 528.117 18.719 528.465 18.9013C528.816 19.0812 529.089 19.3274 529.286 19.6399C529.482 19.95 529.58 20.3004 529.58 20.6911C529.58 20.9609 529.529 21.2249 529.428 21.483C529.328 21.741 529.154 22.0286 528.906 22.3459C528.657 22.6607 528.311 23.0431 527.869 23.4929L526.423 25.0057V25.0589H529.697V26H524.911ZM533.575 26.0994C533.088 26.0994 532.652 26.0154 532.268 25.8473C531.887 25.6792 531.585 25.446 531.363 25.1477C531.143 24.8471 531.024 24.4991 531.008 24.1037H532.123C532.137 24.3191 532.209 24.5062 532.339 24.6648C532.472 24.821 532.645 24.9418 532.858 25.027C533.071 25.1122 533.308 25.1548 533.568 25.1548C533.855 25.1548 534.108 25.1051 534.328 25.0057C534.551 24.9062 534.725 24.7678 534.85 24.5902C534.976 24.4103 535.038 24.2031 535.038 23.9688C535.038 23.7249 534.976 23.5107 534.85 23.326C534.727 23.139 534.546 22.9922 534.307 22.8857C534.07 22.7791 533.784 22.7259 533.447 22.7259H532.833V21.831H533.447C533.717 21.831 533.954 21.7824 534.158 21.6854C534.364 21.5883 534.525 21.4534 534.641 21.2805C534.757 21.1054 534.815 20.9006 534.815 20.6662C534.815 20.4413 534.764 20.246 534.662 20.0803C534.563 19.9122 534.42 19.7808 534.236 19.6861C534.054 19.5914 533.838 19.544 533.589 19.544C533.353 19.544 533.131 19.5878 532.925 19.6754C532.722 19.7607 532.556 19.8838 532.428 20.0447C532.3 20.2034 532.232 20.3939 532.222 20.6165H531.161C531.172 20.2235 531.288 19.8778 531.509 19.5795C531.731 19.2812 532.025 19.0481 532.389 18.88C532.754 18.7119 533.159 18.6278 533.604 18.6278C534.07 18.6278 534.473 18.719 534.811 18.9013C535.152 19.0812 535.415 19.3215 535.599 19.6222C535.786 19.9228 535.879 20.2519 535.876 20.6094C535.879 21.0166 535.765 21.3622 535.536 21.6463C535.308 21.9304 535.005 22.121 534.626 22.218V22.2749C535.109 22.3482 535.483 22.54 535.749 22.8501C536.016 23.1603 536.149 23.545 536.146 24.0043C536.149 24.4044 536.037 24.763 535.812 25.0803C535.59 25.3975 535.286 25.6473 534.9 25.8295C534.514 26.0095 534.072 26.0994 533.575 26.0994Z" fill="white"/>
<path d="M542.94 26V25.2045L545.401 22.6548C545.664 22.3778 545.88 22.1352 546.051 21.9268C546.223 21.7161 546.352 21.5161 546.438 21.3267C546.523 21.1373 546.566 20.9361 546.566 20.723C546.566 20.4815 546.509 20.2732 546.395 20.098C546.281 19.9205 546.126 19.7843 545.93 19.6896C545.733 19.5926 545.512 19.544 545.266 19.544C545.005 19.544 544.778 19.5973 544.584 19.7038C544.39 19.8104 544.241 19.9607 544.137 20.1548C544.032 20.349 543.98 20.5762 543.98 20.8366H542.933C542.933 20.3939 543.035 20.0069 543.238 19.6754C543.442 19.344 543.721 19.0871 544.076 18.9048C544.431 18.7202 544.835 18.6278 545.287 18.6278C545.744 18.6278 546.146 18.719 546.494 18.9013C546.845 19.0812 547.118 19.3274 547.315 19.6399C547.511 19.95 547.61 20.3004 547.61 20.6911C547.61 20.9609 547.559 21.2249 547.457 21.483C547.357 21.741 547.183 22.0286 546.935 22.3459C546.686 22.6607 546.341 23.0431 545.898 23.4929L544.453 25.0057V25.0589H547.727V26H542.94ZM548.764 24.5795V23.6918L551.906 18.7273H552.606V20.0341H552.162L549.914 23.5923V23.6491H554.222V24.5795H548.764ZM552.212 26V24.3097L552.219 23.9048V18.7273H553.259V26H552.212Z" fill="white"/>
<path d="M562.033 26V25.2045L564.494 22.6548C564.756 22.3778 564.973 22.1352 565.143 21.9268C565.316 21.7161 565.445 21.5161 565.53 21.3267C565.616 21.1373 565.658 20.9361 565.658 20.723C565.658 20.4815 565.601 20.2732 565.488 20.098C565.374 19.9205 565.219 19.7843 565.023 19.6896C564.826 19.5926 564.605 19.544 564.359 19.544C564.098 19.544 563.871 19.5973 563.677 19.7038C563.483 19.8104 563.333 19.9607 563.229 20.1548C563.125 20.349 563.073 20.5762 563.073 20.8366H562.025C562.025 20.3939 562.127 20.0069 562.331 19.6754C562.534 19.344 562.814 19.0871 563.169 18.9048C563.524 18.7202 563.928 18.6278 564.38 18.6278C564.837 18.6278 565.239 18.719 565.587 18.9013C565.938 19.0812 566.211 19.3274 566.408 19.6399C566.604 19.95 566.702 20.3004 566.702 20.6911C566.702 20.9609 566.651 21.2249 566.55 21.483C566.45 21.741 566.276 22.0286 566.028 22.3459C565.779 22.6607 565.433 23.0431 564.991 23.4929L563.545 25.0057V25.0589H566.82V26H562.033ZM570.566 26.0994C570.121 26.0994 569.721 26.0142 569.366 25.8438C569.013 25.6709 568.731 25.4342 568.521 25.1335C568.31 24.8329 568.197 24.4896 568.183 24.1037H569.248C569.275 24.4162 569.413 24.6731 569.664 24.8743C569.915 25.0755 570.216 25.1761 570.566 25.1761C570.845 25.1761 571.093 25.1122 571.308 24.9844C571.526 24.8542 571.696 24.6754 571.82 24.4482C571.945 24.2209 572.008 23.9616 572.008 23.6705C572.008 23.3745 571.944 23.1106 571.816 22.8786C571.688 22.6465 571.512 22.4643 571.287 22.3317C571.064 22.1991 570.809 22.1316 570.52 22.1293C570.3 22.1293 570.078 22.1671 569.856 22.2429C569.633 22.3187 569.453 22.4181 569.316 22.5412L568.311 22.392L568.719 18.7273H572.718V19.6683H569.632L569.401 21.7031H569.444C569.586 21.5658 569.774 21.451 570.008 21.3587C570.245 21.2663 570.498 21.2202 570.768 21.2202C571.211 21.2202 571.605 21.3255 571.951 21.5362C572.299 21.7469 572.572 22.0346 572.771 22.3991C572.972 22.7614 573.072 23.178 573.07 23.6491C573.072 24.1203 572.965 24.5405 572.75 24.9098C572.537 25.2791 572.241 25.5703 571.862 25.7834C571.486 25.9941 571.054 26.0994 570.566 26.0994Z" fill="white"/>
<path d="M579.954 26V25.2045L582.415 22.6548C582.678 22.3778 582.895 22.1352 583.065 21.9268C583.238 21.7161 583.367 21.5161 583.452 21.3267C583.538 21.1373 583.58 20.9361 583.58 20.723C583.58 20.4815 583.523 20.2732 583.41 20.098C583.296 19.9205 583.141 19.7843 582.945 19.6896C582.748 19.5926 582.527 19.544 582.28 19.544C582.02 19.544 581.793 19.5973 581.599 19.7038C581.405 19.8104 581.255 19.9607 581.151 20.1548C581.047 20.349 580.995 20.5762 580.995 20.8366H579.947C579.947 20.3939 580.049 20.0069 580.253 19.6754C580.456 19.344 580.736 19.0871 581.091 18.9048C581.446 18.7202 581.85 18.6278 582.302 18.6278C582.759 18.6278 583.161 18.719 583.509 18.9013C583.86 19.0812 584.133 19.3274 584.329 19.6399C584.526 19.95 584.624 20.3004 584.624 20.6911C584.624 20.9609 584.573 21.2249 584.472 21.483C584.372 21.741 584.198 22.0286 583.949 22.3459C583.701 22.6607 583.355 23.0431 582.913 23.4929L581.467 25.0057V25.0589H584.741V26H579.954ZM588.626 26.0994C588.302 26.0947 587.982 26.0355 587.668 25.9219C587.355 25.8082 587.071 25.6188 586.815 25.3537C586.56 25.0885 586.355 24.7322 586.201 24.2848C586.049 23.8374 585.974 23.2786 585.974 22.6087C585.974 21.9742 586.036 21.4107 586.162 20.9183C586.29 20.4259 586.473 20.0104 586.712 19.6719C586.951 19.331 587.24 19.0717 587.579 18.8942C587.917 18.7166 588.297 18.6278 588.719 18.6278C589.152 18.6278 589.537 18.7131 589.873 18.8835C590.209 19.054 590.481 19.2895 590.69 19.5902C590.9 19.8909 591.034 20.233 591.091 20.6165H590.008C589.934 20.3134 589.789 20.0661 589.571 19.8743C589.353 19.6825 589.069 19.5866 588.719 19.5866C588.186 19.5866 587.771 19.8187 587.472 20.2827C587.176 20.7467 587.027 21.3918 587.025 22.218H587.078C587.204 22.0121 587.357 21.8369 587.54 21.6925C587.724 21.5457 587.93 21.4332 588.158 21.3551C588.387 21.2746 588.629 21.2344 588.882 21.2344C589.303 21.2344 589.685 21.3374 590.025 21.5433C590.369 21.7469 590.642 22.0286 590.846 22.3885C591.049 22.7483 591.151 23.1603 591.151 23.6243C591.151 24.0883 591.046 24.5085 590.835 24.8849C590.627 25.2614 590.333 25.5597 589.954 25.7798C589.576 25.9976 589.133 26.1042 588.626 26.0994ZM588.623 25.1761C588.902 25.1761 589.152 25.1075 589.372 24.9702C589.592 24.8329 589.766 24.6482 589.894 24.4162C590.022 24.1842 590.086 23.925 590.086 23.6385C590.086 23.3591 590.023 23.1046 589.898 22.875C589.775 22.6454 589.604 22.4631 589.386 22.3281C589.171 22.1932 588.925 22.1257 588.648 22.1257C588.437 22.1257 588.242 22.166 588.062 22.2464C587.884 22.3269 587.728 22.4382 587.593 22.5803C587.458 22.7223 587.351 22.8857 587.273 23.0703C587.198 23.2526 587.16 23.4455 587.16 23.6491C587.16 23.9214 587.222 24.1735 587.348 24.4055C587.476 24.6375 587.65 24.8246 587.87 24.9666C588.092 25.1063 588.343 25.1761 588.623 25.1761Z" fill="white"/>
<path d="M597.738 26V25.2045L600.199 22.6548C600.461 22.3778 600.678 22.1352 600.848 21.9268C601.021 21.7161 601.15 21.5161 601.236 21.3267C601.321 21.1373 601.363 20.9361 601.363 20.723C601.363 20.4815 601.307 20.2732 601.193 20.098C601.079 19.9205 600.924 19.7843 600.728 19.6896C600.531 19.5926 600.31 19.544 600.064 19.544C599.803 19.544 599.576 19.5973 599.382 19.7038C599.188 19.8104 599.039 19.9607 598.934 20.1548C598.83 20.349 598.778 20.5762 598.778 20.8366H597.731C597.731 20.3939 597.832 20.0069 598.036 19.6754C598.24 19.344 598.519 19.0871 598.874 18.9048C599.229 18.7202 599.633 18.6278 600.085 18.6278C600.542 18.6278 600.944 18.719 601.292 18.9013C601.643 19.0812 601.916 19.3274 602.113 19.6399C602.309 19.95 602.407 20.3004 602.407 20.6911C602.407 20.9609 602.357 21.2249 602.255 21.483C602.155 21.741 601.981 22.0286 601.733 22.3459C601.484 22.6607 601.138 23.0431 600.696 23.4929L599.25 25.0057V25.0589H602.525V26H597.738ZM604.116 26L607.29 19.7216V19.6683H603.618V18.7273H608.427V19.7003L605.263 26H604.116Z" fill="white"/>
<path d="M615.974 26V25.2045L618.435 22.6548C618.698 22.3778 618.914 22.1352 619.085 21.9268C619.258 21.7161 619.387 21.5161 619.472 21.3267C619.557 21.1373 619.6 20.9361 619.6 20.723C619.6 20.4815 619.543 20.2732 619.429 20.098C619.316 19.9205 619.161 19.7843 618.964 19.6896C618.768 19.5926 618.546 19.544 618.3 19.544C618.04 19.544 617.812 19.5973 617.618 19.7038C617.424 19.8104 617.275 19.9607 617.171 20.1548C617.067 20.349 617.014 20.5762 617.014 20.8366H615.967C615.967 20.3939 616.069 20.0069 616.272 19.6754C616.476 19.344 616.755 19.0871 617.11 18.9048C617.465 18.7202 617.869 18.6278 618.321 18.6278C618.778 18.6278 619.181 18.719 619.529 18.9013C619.879 19.0812 620.152 19.3274 620.349 19.6399C620.545 19.95 620.644 20.3004 620.644 20.6911C620.644 20.9609 620.593 21.2249 620.491 21.483C620.392 21.741 620.218 22.0286 619.969 22.3459C619.72 22.6607 619.375 23.0431 618.932 23.4929L617.487 25.0057V25.0589H620.761V26H615.974ZM624.564 26.0994C624.055 26.0994 623.605 26.0118 623.215 25.8366C622.826 25.6615 622.522 25.42 622.302 25.1122C622.082 24.8045 621.973 24.4541 621.975 24.0611C621.973 23.7533 622.036 23.4704 622.164 23.2124C622.294 22.9519 622.47 22.7353 622.693 22.5625C622.915 22.3873 623.164 22.276 623.438 22.2287V22.1861C623.076 22.0985 622.786 21.9044 622.568 21.6037C622.351 21.303 622.243 20.9574 622.245 20.5668C622.243 20.1951 622.341 19.8636 622.54 19.5724C622.741 19.2789 623.017 19.0481 623.367 18.88C623.718 18.7119 624.117 18.6278 624.564 18.6278C625.007 18.6278 625.402 18.7131 625.75 18.8835C626.101 19.0516 626.376 19.2824 626.578 19.576C626.779 19.8672 626.881 20.1974 626.883 20.5668C626.881 20.9574 626.769 21.303 626.549 21.6037C626.329 21.9044 626.043 22.0985 625.69 22.1861V22.2287C625.962 22.276 626.207 22.3873 626.425 22.5625C626.645 22.7353 626.82 22.9519 626.951 23.2124C627.083 23.4704 627.151 23.7533 627.153 24.0611C627.151 24.4541 627.039 24.8045 626.819 25.1122C626.599 25.42 626.294 25.6615 625.903 25.8366C625.515 26.0118 625.068 26.0994 624.564 26.0994ZM624.564 25.201C624.865 25.201 625.125 25.1513 625.345 25.0518C625.566 24.95 625.736 24.8092 625.857 24.6293C625.978 24.447 626.039 24.2339 626.041 23.9901C626.039 23.7367 625.973 23.513 625.843 23.3189C625.715 23.1248 625.541 22.9721 625.321 22.8608C625.1 22.7495 624.848 22.6939 624.564 22.6939C624.278 22.6939 624.023 22.7495 623.801 22.8608C623.578 22.9721 623.403 23.1248 623.275 23.3189C623.147 23.513 623.085 23.7367 623.087 23.9901C623.085 24.2339 623.143 24.447 623.261 24.6293C623.382 24.8092 623.553 24.95 623.776 25.0518C623.998 25.1513 624.261 25.201 624.564 25.201ZM624.564 21.8168C624.806 21.8168 625.02 21.7682 625.207 21.6712C625.394 21.5741 625.541 21.4392 625.647 21.2663C625.756 21.0935 625.812 20.8911 625.814 20.6591C625.812 20.4318 625.757 20.233 625.651 20.0625C625.547 19.892 625.401 19.7607 625.214 19.6683C625.027 19.5736 624.81 19.5263 624.564 19.5263C624.313 19.5263 624.093 19.5736 623.904 19.6683C623.717 19.7607 623.571 19.892 623.467 20.0625C623.363 20.233 623.312 20.4318 623.314 20.6591C623.312 20.8911 623.364 21.0935 623.47 21.2663C623.577 21.4392 623.724 21.5741 623.911 21.6712C624.1 21.7682 624.318 21.8168 624.564 21.8168Z" fill="white"/>
<path d="M633.954 26V25.2045L636.415 22.6548C636.678 22.3778 636.895 22.1352 637.065 21.9268C637.238 21.7161 637.367 21.5161 637.452 21.3267C637.538 21.1373 637.58 20.9361 637.58 20.723C637.58 20.4815 637.523 20.2732 637.41 20.098C637.296 19.9205 637.141 19.7843 636.945 19.6896C636.748 19.5926 636.527 19.544 636.28 19.544C636.02 19.544 635.793 19.5973 635.599 19.7038C635.405 19.8104 635.255 19.9607 635.151 20.1548C635.047 20.349 634.995 20.5762 634.995 20.8366H633.947C633.947 20.3939 634.049 20.0069 634.253 19.6754C634.456 19.344 634.736 19.0871 635.091 18.9048C635.446 18.7202 635.85 18.6278 636.302 18.6278C636.759 18.6278 637.161 18.719 637.509 18.9013C637.86 19.0812 638.133 19.3274 638.329 19.6399C638.526 19.95 638.624 20.3004 638.624 20.6911C638.624 20.9609 638.573 21.2249 638.472 21.483C638.372 21.741 638.198 22.0286 637.949 22.3459C637.701 22.6607 637.355 23.0431 636.913 23.4929L635.467 25.0057V25.0589H638.741V26H633.954ZM642.506 18.6278C642.83 18.6302 643.15 18.6894 643.464 18.8054C643.779 18.9214 644.063 19.1108 644.317 19.3736C644.572 19.6364 644.776 19.9915 644.927 20.4389C645.081 20.884 645.159 21.438 645.162 22.1009C645.162 22.7377 645.098 23.3047 644.97 23.8018C644.842 24.2966 644.659 24.7145 644.42 25.0554C644.183 25.3963 643.895 25.6555 643.557 25.8331C643.218 26.0107 642.837 26.0994 642.413 26.0994C641.98 26.0994 641.595 26.0142 641.259 25.8438C640.923 25.6733 640.65 25.4377 640.439 25.1371C640.228 24.834 640.097 24.486 640.045 24.093H641.128C641.199 24.4055 641.343 24.6589 641.561 24.853C641.781 25.0447 642.065 25.1406 642.413 25.1406C642.946 25.1406 643.361 24.9086 643.66 24.4446C643.958 23.9782 644.108 23.3272 644.111 22.4915H644.054C643.931 22.6951 643.777 22.8703 643.592 23.017C643.41 23.1638 643.205 23.2775 642.978 23.358C642.751 23.4384 642.508 23.4787 642.25 23.4787C641.831 23.4787 641.45 23.3757 641.106 23.1697C640.763 22.9638 640.49 22.6809 640.286 22.321C640.083 21.9612 639.981 21.5504 639.981 21.0888C639.981 20.6295 640.085 20.2128 640.293 19.8388C640.504 19.4647 640.797 19.1688 641.174 18.951C641.553 18.7308 641.997 18.6231 642.506 18.6278ZM642.509 19.5511C642.232 19.5511 641.982 19.6198 641.76 19.7571C641.54 19.892 641.366 20.0755 641.238 20.3075C641.11 20.5372 641.046 20.7929 641.046 21.0746C641.046 21.3563 641.108 21.612 641.231 21.8416C641.356 22.0689 641.527 22.25 641.742 22.3849C641.96 22.5175 642.208 22.5838 642.488 22.5838C642.696 22.5838 642.89 22.5436 643.07 22.4631C643.25 22.3826 643.408 22.2713 643.543 22.1293C643.677 21.9848 643.783 21.8215 643.859 21.6392C643.934 21.4569 643.972 21.2652 643.972 21.0639C643.972 20.7964 643.908 20.5478 643.78 20.3182C643.655 20.0885 643.482 19.9039 643.262 19.7642C643.042 19.6222 642.791 19.5511 642.509 19.5511Z" fill="white"/>
<path d="M655.281 26.0994C654.794 26.0994 654.358 26.0154 653.975 25.8473C653.593 25.6792 653.292 25.446 653.069 25.1477C652.849 24.8471 652.73 24.4991 652.714 24.1037H653.829C653.843 24.3191 653.915 24.5062 654.046 24.6648C654.178 24.821 654.351 24.9418 654.564 25.027C654.777 25.1122 655.014 25.1548 655.274 25.1548C655.561 25.1548 655.814 25.1051 656.034 25.0057C656.257 24.9062 656.431 24.7678 656.556 24.5902C656.682 24.4103 656.744 24.2031 656.744 23.9688C656.744 23.7249 656.682 23.5107 656.556 23.326C656.433 23.139 656.252 22.9922 656.013 22.8857C655.776 22.7791 655.49 22.7259 655.153 22.7259H654.539V21.831H655.153C655.423 21.831 655.66 21.7824 655.864 21.6854C656.07 21.5883 656.231 21.4534 656.347 21.2805C656.463 21.1054 656.521 20.9006 656.521 20.6662C656.521 20.4413 656.47 20.246 656.368 20.0803C656.269 19.9122 656.127 19.7808 655.942 19.6861C655.76 19.5914 655.544 19.544 655.296 19.544C655.059 19.544 654.837 19.5878 654.631 19.6754C654.428 19.7607 654.262 19.8838 654.134 20.0447C654.006 20.2034 653.938 20.3939 653.928 20.6165H652.867C652.878 20.2235 652.994 19.8778 653.215 19.5795C653.437 19.2812 653.731 19.0481 654.095 18.88C654.46 18.7119 654.865 18.6278 655.31 18.6278C655.776 18.6278 656.179 18.719 656.517 18.9013C656.858 19.0812 657.121 19.3215 657.305 19.6222C657.493 19.9228 657.585 20.2519 657.582 20.6094C657.585 21.0166 657.471 21.3622 657.242 21.6463C657.014 21.9304 656.711 22.121 656.332 22.218V22.2749C656.815 22.3482 657.189 22.54 657.455 22.8501C657.722 23.1603 657.855 23.545 657.852 24.0043C657.855 24.4044 657.743 24.763 657.519 25.0803C657.296 25.3975 656.992 25.6473 656.606 25.8295C656.22 26.0095 655.778 26.0994 655.281 26.0994ZM661.727 26.1207C661.166 26.1184 660.686 25.9704 660.288 25.6768C659.891 25.3833 659.586 24.956 659.376 24.3949C659.165 23.8338 659.06 23.1579 659.06 22.3672C659.06 21.5788 659.165 20.9053 659.376 20.3466C659.589 19.7879 659.894 19.3617 660.292 19.0682C660.692 18.7746 661.17 18.6278 661.727 18.6278C662.283 18.6278 662.76 18.7758 663.158 19.0717C663.555 19.3653 663.86 19.7914 664.07 20.3501C664.283 20.9065 664.39 21.5788 664.39 22.3672C664.39 23.1603 664.285 23.8374 664.074 24.3984C663.863 24.9571 663.559 25.3845 663.161 25.6804C662.764 25.974 662.285 26.1207 661.727 26.1207ZM661.727 25.1726C662.219 25.1726 662.604 24.9323 662.881 24.4517C663.16 23.9711 663.3 23.2763 663.3 22.3672C663.3 21.7635 663.236 21.2533 663.108 20.8366C662.983 20.4176 662.801 20.1004 662.565 19.8849C662.33 19.6671 662.051 19.5582 661.727 19.5582C661.237 19.5582 660.852 19.7997 660.573 20.2827C660.293 20.7656 660.152 21.4605 660.15 22.3672C660.15 22.9732 660.213 23.4858 660.338 23.9048C660.466 24.3215 660.647 24.6375 660.881 24.853C661.116 25.0661 661.398 25.1726 661.727 25.1726Z" fill="white"/>
<path d="M673.646 26.0994C673.158 26.0994 672.722 26.0154 672.339 25.8473C671.958 25.6792 671.656 25.446 671.433 25.1477C671.213 24.8471 671.095 24.4991 671.078 24.1037H672.193C672.207 24.3191 672.28 24.5062 672.41 24.6648C672.542 24.821 672.715 24.9418 672.928 25.027C673.141 25.1122 673.378 25.1548 673.638 25.1548C673.925 25.1548 674.178 25.1051 674.398 25.0057C674.621 24.9062 674.795 24.7678 674.92 24.5902C675.046 24.4103 675.109 24.2031 675.109 23.9688C675.109 23.7249 675.046 23.5107 674.92 23.326C674.797 23.139 674.616 22.9922 674.377 22.8857C674.14 22.7791 673.854 22.7259 673.518 22.7259H672.903V21.831H673.518C673.788 21.831 674.024 21.7824 674.228 21.6854C674.434 21.5883 674.595 21.4534 674.711 21.2805C674.827 21.1054 674.885 20.9006 674.885 20.6662C674.885 20.4413 674.834 20.246 674.732 20.0803C674.633 19.9122 674.491 19.7808 674.306 19.6861C674.124 19.5914 673.908 19.544 673.66 19.544C673.423 19.544 673.202 19.5878 672.996 19.6754C672.792 19.7607 672.626 19.8838 672.499 20.0447C672.371 20.2034 672.302 20.3939 672.293 20.6165H671.231C671.243 20.2235 671.359 19.8778 671.579 19.5795C671.801 19.2812 672.095 19.0481 672.46 18.88C672.824 18.7119 673.229 18.6278 673.674 18.6278C674.14 18.6278 674.543 18.719 674.881 18.9013C675.222 19.0812 675.485 19.3215 675.67 19.6222C675.857 19.9228 675.949 20.2519 675.947 20.6094C675.949 21.0166 675.835 21.3622 675.606 21.6463C675.379 21.9304 675.076 22.121 674.697 22.218V22.2749C675.18 22.3482 675.554 22.54 675.819 22.8501C676.086 23.1603 676.219 23.545 676.217 24.0043C676.219 24.4044 676.108 24.763 675.883 25.0803C675.66 25.3975 675.356 25.6473 674.97 25.8295C674.584 26.0095 674.143 26.0994 673.646 26.0994ZM680.318 18.7273V26H679.217V19.8281H679.175L677.435 20.9645V19.9134L679.249 18.7273H680.318Z" fill="white"/>
<rect x="-0.5" y="0.5" width="146" height="22" transform="matrix(-1 0 0 1 250 34)" stroke="white"/>
<path d="M165.643 43.6719V42.7273H171.272V43.6719H169.003V50H167.909V43.6719H165.643ZM172.477 52.0455C172.318 52.0455 172.174 52.0324 172.044 52.0064C171.913 51.9827 171.816 51.9567 171.752 51.9283L172.008 51.0582C172.202 51.1103 172.375 51.1328 172.526 51.1257C172.678 51.1186 172.812 51.0618 172.928 50.9553C173.046 50.8487 173.15 50.6747 173.24 50.4332L173.372 50.071L171.376 44.5455H172.512L173.894 48.7784H173.95L175.332 44.5455H176.472L174.224 50.728C174.12 51.0121 173.987 51.2524 173.826 51.4489C173.665 51.6477 173.473 51.7969 173.251 51.8963C173.028 51.9957 172.77 52.0455 172.477 52.0455ZM177.47 52.0455V44.5455H178.507V45.4297H178.595C178.657 45.3161 178.746 45.1847 178.862 45.0355C178.978 44.8864 179.139 44.7562 179.345 44.6449C179.551 44.5312 179.823 44.4744 180.161 44.4744C180.602 44.4744 180.995 44.5857 181.34 44.8082C181.686 45.0308 181.957 45.3516 182.154 45.7706C182.352 46.1896 182.452 46.6939 182.452 47.2834C182.452 47.8729 182.354 48.3783 182.157 48.7997C181.961 49.2187 181.691 49.5419 181.347 49.7692C181.004 49.9941 180.612 50.1065 180.172 50.1065C179.841 50.1065 179.57 50.0509 179.359 49.9396C179.151 49.8284 178.987 49.6982 178.869 49.549C178.75 49.3999 178.659 49.2673 178.595 49.1513H178.531V52.0455H177.47ZM178.51 47.2727C178.51 47.6562 178.566 47.9924 178.677 48.2812C178.788 48.5701 178.949 48.7962 179.16 48.9595C179.371 49.1205 179.629 49.201 179.934 49.201C180.251 49.201 180.517 49.117 180.73 48.9489C180.943 48.7784 181.104 48.5476 181.213 48.2564C181.324 47.9652 181.379 47.6373 181.379 47.2727C181.379 46.9129 181.325 46.5897 181.216 46.3033C181.11 46.0168 180.949 45.7907 180.733 45.625C180.52 45.4593 180.254 45.3764 179.934 45.3764C179.626 45.3764 179.366 45.4557 179.153 45.6143C178.942 45.773 178.782 45.9943 178.673 46.2784C178.565 46.5625 178.51 46.8939 178.51 47.2727ZM185.992 50.1101C185.455 50.1101 184.992 49.9953 184.604 49.7656C184.218 49.5336 183.92 49.2081 183.709 48.7891C183.501 48.3677 183.396 47.8741 183.396 47.3082C183.396 46.7495 183.501 46.2571 183.709 45.831C183.92 45.4048 184.213 45.0722 184.59 44.8331C184.968 44.594 185.411 44.4744 185.918 44.4744C186.226 44.4744 186.524 44.5253 186.813 44.6271C187.102 44.7289 187.361 44.8887 187.59 45.1065C187.82 45.3243 188.001 45.6072 188.134 45.9553C188.266 46.3009 188.333 46.7211 188.333 47.2159V47.5923H183.997V46.7969H187.292C187.292 46.5175 187.235 46.2701 187.122 46.0547C187.008 45.8369 186.848 45.6652 186.642 45.5398C186.439 45.4143 186.2 45.3516 185.925 45.3516C185.627 45.3516 185.366 45.425 185.144 45.5717C184.923 45.7161 184.753 45.9055 184.632 46.1399C184.514 46.3719 184.455 46.6241 184.455 46.8963V47.5178C184.455 47.8823 184.519 48.1925 184.646 48.4482C184.777 48.7038 184.958 48.8991 185.19 49.0341C185.422 49.1667 185.693 49.233 186.003 49.233C186.204 49.233 186.388 49.2045 186.553 49.1477C186.719 49.0885 186.862 49.0009 186.983 48.8849C187.104 48.7689 187.196 48.6257 187.26 48.4553L188.265 48.6364C188.185 48.9323 188.04 49.1915 187.832 49.4141C187.626 49.6342 187.367 49.8059 187.054 49.929C186.744 50.0497 186.39 50.1101 185.992 50.1101Z" fill="white"/>
<rect x="-0.5" y="0.5" width="145" height="22" transform="matrix(-1 0 0 1 395 34)" stroke="white"/>
<path d="M317.086 45.0923H315.978C315.935 44.8556 315.856 44.6473 315.74 44.4673C315.624 44.2874 315.482 44.1347 315.314 44.0092C315.145 43.8838 314.957 43.7891 314.749 43.7251C314.543 43.6612 314.324 43.6293 314.092 43.6293C313.673 43.6293 313.298 43.7346 312.966 43.9453C312.637 44.156 312.377 44.465 312.185 44.8722C311.996 45.2794 311.901 45.7765 311.901 46.3636C311.901 46.9555 311.996 47.455 312.185 47.8622C312.377 48.2694 312.638 48.5772 312.97 48.7855C313.301 48.9938 313.674 49.098 314.088 49.098C314.318 49.098 314.536 49.0672 314.742 49.0057C314.95 48.9418 315.138 48.8482 315.306 48.7251C315.475 48.602 315.617 48.4517 315.733 48.2741C315.851 48.0942 315.933 47.8883 315.978 47.6562L317.086 47.6598C317.026 48.0173 316.912 48.3464 316.741 48.647C316.573 48.9453 316.356 49.2034 316.091 49.4212C315.828 49.6366 315.528 49.8035 315.189 49.9219C314.851 50.0402 314.481 50.0994 314.081 50.0994C313.452 50.0994 312.891 49.9503 312.398 49.652C311.906 49.3513 311.517 48.9216 311.233 48.3629C310.952 47.8042 310.811 47.1378 310.811 46.3636C310.811 45.5871 310.953 44.9207 311.237 44.3643C311.521 43.8056 311.909 43.3771 312.402 43.0788C312.894 42.7782 313.454 42.6278 314.081 42.6278C314.467 42.6278 314.827 42.6835 315.161 42.7947C315.497 42.9036 315.799 43.0646 316.066 43.2777C316.334 43.4884 316.555 43.7464 316.73 44.0518C316.906 44.3549 317.024 44.7017 317.086 45.0923ZM320.611 50.1101C320.1 50.1101 319.653 49.9929 319.272 49.7585C318.891 49.5241 318.595 49.1963 318.384 48.7749C318.174 48.3535 318.068 47.861 318.068 47.2976C318.068 46.7318 318.174 46.237 318.384 45.8132C318.595 45.3894 318.891 45.0604 319.272 44.826C319.653 44.5916 320.1 44.4744 320.611 44.4744C321.122 44.4744 321.569 44.5916 321.95 44.826C322.331 45.0604 322.627 45.3894 322.838 45.8132C323.048 46.237 323.154 46.7318 323.154 47.2976C323.154 47.861 323.048 48.3535 322.838 48.7749C322.627 49.1963 322.331 49.5241 321.95 49.7585C321.569 49.9929 321.122 50.1101 320.611 50.1101ZM320.615 49.2188C320.946 49.2188 321.221 49.1312 321.438 48.956C321.656 48.7808 321.817 48.5476 321.921 48.2564C322.028 47.9652 322.081 47.6444 322.081 47.294C322.081 46.946 322.028 46.6264 321.921 46.3352C321.817 46.0417 321.656 45.8061 321.438 45.6286C321.221 45.451 320.946 45.3622 320.615 45.3622C320.281 45.3622 320.004 45.451 319.784 45.6286C319.566 45.8061 319.404 46.0417 319.297 46.3352C319.193 46.6264 319.141 46.946 319.141 47.294C319.141 47.6444 319.193 47.9652 319.297 48.2564C319.404 48.5476 319.566 48.7808 319.784 48.956C320.004 49.1312 320.281 49.2188 320.615 49.2188ZM326.381 50.1065C325.94 50.1065 325.547 49.9941 325.202 49.7692C324.858 49.5419 324.589 49.2187 324.392 48.7997C324.198 48.3783 324.101 47.8729 324.101 47.2834C324.101 46.6939 324.199 46.1896 324.396 45.7706C324.594 45.3516 324.867 45.0308 325.212 44.8082C325.558 44.5857 325.95 44.4744 326.388 44.4744C326.726 44.4744 326.999 44.5312 327.205 44.6449C327.413 44.7562 327.574 44.8864 327.688 45.0355C327.804 45.1847 327.893 45.3161 327.957 45.4297H328.021V42.7273H329.083V50H328.046V49.1513H327.957C327.893 49.2673 327.801 49.3999 327.68 49.549C327.562 49.6982 327.399 49.8284 327.19 49.9396C326.982 50.0509 326.712 50.1065 326.381 50.1065ZM326.615 49.201C326.92 49.201 327.179 49.1205 327.389 48.9595C327.602 48.7962 327.763 48.5701 327.872 48.2812C327.983 47.9924 328.039 47.6562 328.039 47.2727C328.039 46.8939 327.985 46.5625 327.876 46.2784C327.767 45.9943 327.607 45.773 327.396 45.6143C327.186 45.4557 326.925 45.3764 326.615 45.3764C326.295 45.3764 326.029 45.4593 325.816 45.625C325.603 45.7907 325.442 46.0168 325.333 46.3033C325.227 46.5897 325.173 46.9129 325.173 47.2727C325.173 47.6373 325.228 47.9652 325.337 48.2564C325.446 48.5476 325.607 48.7784 325.82 48.9489C326.035 49.117 326.3 49.201 326.615 49.201ZM332.949 50.1101C332.412 50.1101 331.949 49.9953 331.561 49.7656C331.175 49.5336 330.877 49.2081 330.666 48.7891C330.458 48.3677 330.354 47.8741 330.354 47.3082C330.354 46.7495 330.458 46.2571 330.666 45.831C330.877 45.4048 331.17 45.0722 331.547 44.8331C331.925 44.594 332.368 44.4744 332.875 44.4744C333.183 44.4744 333.481 44.5253 333.77 44.6271C334.059 44.7289 334.318 44.8887 334.547 45.1065C334.777 45.3243 334.958 45.6072 335.091 45.9553C335.223 46.3009 335.29 46.7211 335.29 47.2159V47.5923H330.954V46.7969H334.249C334.249 46.5175 334.192 46.2701 334.079 46.0547C333.965 45.8369 333.805 45.6652 333.599 45.5398C333.396 45.4143 333.157 45.3516 332.882 45.3516C332.584 45.3516 332.323 45.425 332.101 45.5717C331.881 45.7161 331.71 45.9055 331.589 46.1399C331.471 46.3719 331.412 46.6241 331.412 46.8963V47.5178C331.412 47.8823 331.476 48.1925 331.604 48.4482C331.734 48.7038 331.915 48.8991 332.147 49.0341C332.379 49.1667 332.65 49.233 332.96 49.233C333.161 49.233 333.345 49.2045 333.51 49.1477C333.676 49.0885 333.819 49.0009 333.94 48.8849C334.061 48.7689 334.153 48.6257 334.217 48.4553L335.222 48.6364C335.142 48.9323 334.997 49.1915 334.789 49.4141C334.583 49.6342 334.324 49.8059 334.011 49.929C333.701 50.0497 333.347 50.1101 332.949 50.1101Z" fill="white"/>
<rect x="395.5" y="34.5" width="291" height="22" stroke="white"/>
<path d="M523.027 44.0923H521.919C521.876 43.8556 521.797 43.6473 521.681 43.4673C521.565 43.2874 521.423 43.1347 521.255 43.0092C521.087 42.8838 520.899 42.7891 520.69 42.7251C520.484 42.6612 520.265 42.6293 520.033 42.6293C519.614 42.6293 519.239 42.7346 518.908 42.9453C518.579 43.156 518.318 43.465 518.126 43.8722C517.937 44.2794 517.842 44.7765 517.842 45.3636C517.842 45.9555 517.937 46.455 518.126 46.8622C518.318 47.2694 518.58 47.5772 518.911 47.7855C519.243 47.9938 519.616 48.098 520.03 48.098C520.259 48.098 520.477 48.0672 520.683 48.0057C520.892 47.9418 521.08 47.8482 521.248 47.7251C521.416 47.602 521.558 47.4517 521.674 47.2741C521.792 47.0942 521.874 46.8883 521.919 46.6562L523.027 46.6598C522.968 47.0173 522.853 47.3464 522.683 47.647C522.514 47.9453 522.298 48.2034 522.033 48.4212C521.77 48.6366 521.469 48.8035 521.131 48.9219C520.792 49.0402 520.423 49.0994 520.023 49.0994C519.393 49.0994 518.832 48.9503 518.339 48.652C517.847 48.3513 517.459 47.9216 517.175 47.3629C516.893 46.8042 516.752 46.1378 516.752 45.3636C516.752 44.5871 516.894 43.9207 517.178 43.3643C517.462 42.8056 517.851 42.3771 518.343 42.0788C518.835 41.7782 519.395 41.6278 520.023 41.6278C520.409 41.6278 520.768 41.6835 521.102 41.7947C521.438 41.9036 521.74 42.0646 522.008 42.2777C522.275 42.4884 522.497 42.7464 522.672 43.0518C522.847 43.3549 522.965 43.7017 523.027 44.0923ZM525.317 45.7614V49H524.255V41.7273H525.302V44.4332H525.37C525.498 44.1397 525.693 43.9065 525.956 43.7337C526.219 43.5608 526.562 43.4744 526.986 43.4744C527.36 43.4744 527.686 43.5514 527.966 43.7053C528.247 43.8591 528.465 44.0888 528.619 44.3942C528.775 44.6972 528.854 45.076 528.854 45.5305V49H527.792V45.6584C527.792 45.2583 527.689 44.9482 527.483 44.728C527.277 44.5054 526.99 44.3942 526.623 44.3942C526.372 44.3942 526.148 44.4474 525.949 44.554C525.752 44.6605 525.597 44.8168 525.483 45.0227C525.372 45.2263 525.317 45.4725 525.317 45.7614ZM532.621 49.1101C532.084 49.1101 531.621 48.9953 531.233 48.7656C530.847 48.5336 530.549 48.2081 530.338 47.7891C530.13 47.3677 530.025 46.8741 530.025 46.3082C530.025 45.7495 530.13 45.2571 530.338 44.831C530.549 44.4048 530.842 44.0722 531.219 43.8331C531.597 43.594 532.04 43.4744 532.547 43.4744C532.854 43.4744 533.153 43.5253 533.442 43.6271C533.73 43.7289 533.99 43.8887 534.219 44.1065C534.449 44.3243 534.63 44.6072 534.763 44.9553C534.895 45.3009 534.961 45.7211 534.961 46.2159V46.5923H530.626V45.7969H533.921C533.921 45.5175 533.864 45.2701 533.751 45.0547C533.637 44.8369 533.477 44.6652 533.271 44.5398C533.068 44.4143 532.828 44.3516 532.554 44.3516C532.256 44.3516 531.995 44.425 531.773 44.5717C531.552 44.7161 531.382 44.9055 531.261 45.1399C531.143 45.3719 531.084 45.6241 531.084 45.8963V46.5178C531.084 46.8823 531.148 47.1925 531.275 47.4482C531.406 47.7038 531.587 47.8991 531.819 48.0341C532.051 48.1667 532.322 48.233 532.632 48.233C532.833 48.233 533.017 48.2045 533.182 48.1477C533.348 48.0885 533.491 48.0009 533.612 47.8849C533.733 47.7689 533.825 47.6257 533.889 47.4553L534.894 47.6364C534.814 47.9323 534.669 48.1915 534.461 48.4141C534.255 48.6342 533.996 48.8059 533.683 48.929C533.373 49.0497 533.019 49.1101 532.621 49.1101ZM538.437 49.1101C537.909 49.1101 537.455 48.9905 537.074 48.7514C536.695 48.5099 536.404 48.1773 536.2 47.7536C535.996 47.3298 535.895 46.8445 535.895 46.2976C535.895 45.7436 535.999 45.2547 536.207 44.831C536.415 44.4048 536.709 44.0722 537.088 43.8331C537.467 43.594 537.913 43.4744 538.426 43.4744C538.841 43.4744 539.21 43.5514 539.534 43.7053C539.859 43.8568 540.12 44.0698 540.319 44.3445C540.52 44.6191 540.64 44.9399 540.678 45.3068H539.645C539.588 45.0511 539.458 44.831 539.254 44.6463C539.053 44.4616 538.783 44.3693 538.444 44.3693C538.148 44.3693 537.889 44.4474 537.667 44.6037C537.446 44.7576 537.275 44.9777 537.152 45.2642C537.029 45.5483 536.967 45.8845 536.967 46.2727C536.967 46.6705 537.027 47.0137 537.148 47.3026C537.269 47.5914 537.439 47.8151 537.659 47.9737C537.882 48.1323 538.144 48.2116 538.444 48.2116C538.645 48.2116 538.828 48.175 538.991 48.1016C539.157 48.0258 539.295 47.9181 539.407 47.7784C539.52 47.6387 539.6 47.4706 539.645 47.2741H540.678C540.64 47.6269 540.525 47.9418 540.333 48.2188C540.142 48.4957 539.885 48.7135 539.563 48.8722C539.243 49.0308 538.868 49.1101 538.437 49.1101ZM542.79 47.1499L542.783 45.8537H542.968L545.141 43.5455H546.412L543.933 46.1733H543.767L542.79 47.1499ZM541.813 49V41.7273H542.875V49H541.813ZM545.258 49L543.305 46.4077L544.036 45.6655L546.561 49H545.258ZM551.467 44.8771L550.505 45.0476C550.465 44.9245 550.401 44.8073 550.313 44.696C550.228 44.5848 550.112 44.4936 549.965 44.4226C549.818 44.3516 549.635 44.3161 549.415 44.3161C549.114 44.3161 548.863 44.3835 548.662 44.5185C548.461 44.651 548.36 44.8227 548.36 45.0334C548.36 45.2157 548.427 45.3625 548.562 45.4737C548.697 45.585 548.915 45.6761 549.216 45.7472L550.082 45.946C550.584 46.062 550.958 46.2408 551.204 46.4822C551.451 46.7237 551.574 47.0374 551.574 47.4233C551.574 47.75 551.479 48.0412 551.29 48.2969C551.103 48.5502 550.841 48.7491 550.505 48.8935C550.171 49.0379 549.784 49.1101 549.344 49.1101C548.733 49.1101 548.234 48.9799 547.849 48.7195C547.463 48.4567 547.226 48.0838 547.138 47.6009L548.165 47.4446C548.229 47.7121 548.36 47.9145 548.559 48.0518C548.758 48.1868 549.017 48.2543 549.336 48.2543C549.684 48.2543 549.963 48.1821 550.171 48.0376C550.379 47.8909 550.483 47.7121 550.483 47.5014C550.483 47.331 550.42 47.1877 550.292 47.0717C550.166 46.9557 549.973 46.8681 549.713 46.8089L548.79 46.6065C548.281 46.4905 547.904 46.3059 547.66 46.0526C547.419 45.7992 547.298 45.4785 547.298 45.0902C547.298 44.7682 547.388 44.4865 547.568 44.245C547.748 44.0036 547.997 43.8153 548.314 43.6804C548.631 43.5431 548.994 43.4744 549.404 43.4744C549.993 43.4744 550.457 43.6023 550.796 43.858C551.135 44.1113 551.358 44.451 551.467 44.8771ZM556.196 46.7379V43.5455H557.262V49H556.218V48.0554H556.161C556.035 48.3466 555.834 48.5893 555.557 48.7834C555.283 48.9751 554.94 49.071 554.531 49.071C554.181 49.071 553.87 48.9941 553.6 48.8402C553.333 48.6839 553.122 48.4531 552.968 48.1477C552.817 47.8423 552.741 47.4647 552.741 47.0149V43.5455H553.803V46.8871C553.803 47.2588 553.906 47.5547 554.112 47.7749C554.318 47.995 554.585 48.1051 554.914 48.1051C555.113 48.1051 555.311 48.0554 555.507 47.956C555.706 47.8565 555.871 47.7062 556.001 47.505C556.134 47.3037 556.199 47.0481 556.196 46.7379ZM558.688 49V43.5455H559.708V44.4332H559.775C559.889 44.1326 560.075 43.8982 560.333 43.7301C560.591 43.5597 560.9 43.4744 561.259 43.4744C561.624 43.4744 561.929 43.5597 562.176 43.7301C562.424 43.9006 562.608 44.1349 562.726 44.4332H562.783C562.913 44.142 563.12 43.91 563.404 43.7372C563.688 43.562 564.027 43.4744 564.42 43.4744C564.915 43.4744 565.318 43.6295 565.631 43.9396C565.946 44.2498 566.103 44.7173 566.103 45.3423V49H565.041V45.4418C565.041 45.0724 564.941 44.8049 564.74 44.6392C564.538 44.4735 564.298 44.3906 564.019 44.3906C563.673 44.3906 563.404 44.4972 563.213 44.7102C563.021 44.9209 562.925 45.192 562.925 45.5234V49H561.867V45.3743C561.867 45.0784 561.774 44.8404 561.59 44.6605C561.405 44.4806 561.165 44.3906 560.869 44.3906C560.668 44.3906 560.482 44.4439 560.311 44.5504C560.143 44.6546 560.007 44.8002 559.903 44.9872C559.801 45.1742 559.75 45.3909 559.75 45.6371V49H558.688Z" fill="white"/>
<path d="M362.079 96.7273H363.411L365.726 102.381H365.812L368.127 96.7273H369.459V104H368.415V98.7372H368.347L366.202 103.989H365.336L363.191 98.7337H363.123V104H362.079V96.7273ZM373.32 104.11C372.782 104.11 372.319 103.995 371.931 103.766C371.545 103.534 371.247 103.208 371.036 102.789C370.828 102.368 370.724 101.874 370.724 101.308C370.724 100.75 370.828 100.257 371.036 99.831C371.247 99.4048 371.54 99.0722 371.917 98.8331C372.296 98.594 372.738 98.4744 373.245 98.4744C373.553 98.4744 373.851 98.5253 374.14 98.6271C374.429 98.7289 374.688 98.8887 374.918 99.1065C375.147 99.3243 375.328 99.6072 375.461 99.9553C375.593 100.301 375.66 100.721 375.66 101.216V101.592H371.324V100.797H374.619C374.619 100.518 374.562 100.27 374.449 100.055C374.335 99.8369 374.175 99.6652 373.969 99.5398C373.766 99.4143 373.527 99.3516 373.252 99.3516C372.954 99.3516 372.693 99.425 372.471 99.5717C372.251 99.7161 372.08 99.9055 371.959 100.14C371.841 100.372 371.782 100.624 371.782 100.896V101.518C371.782 101.882 371.846 102.192 371.974 102.448C372.104 102.704 372.285 102.899 372.517 103.034C372.749 103.167 373.02 103.233 373.33 103.233C373.531 103.233 373.715 103.205 373.881 103.148C374.046 103.089 374.19 103.001 374.31 102.885C374.431 102.769 374.523 102.626 374.587 102.455L375.592 102.636C375.512 102.932 375.367 103.192 375.159 103.414C374.953 103.634 374.694 103.806 374.381 103.929C374.071 104.05 373.717 104.11 373.32 104.11ZM380.925 99.8771L379.963 100.048C379.923 99.9245 379.859 99.8073 379.771 99.696C379.686 99.5848 379.57 99.4936 379.423 99.4226C379.276 99.3516 379.093 99.3161 378.873 99.3161C378.572 99.3161 378.321 99.3835 378.12 99.5185C377.919 99.651 377.818 99.8227 377.818 100.033C377.818 100.216 377.885 100.362 378.02 100.474C378.155 100.585 378.373 100.676 378.674 100.747L379.54 100.946C380.042 101.062 380.416 101.241 380.662 101.482C380.909 101.724 381.032 102.037 381.032 102.423C381.032 102.75 380.937 103.041 380.748 103.297C380.561 103.55 380.299 103.749 379.963 103.893C379.629 104.038 379.242 104.11 378.802 104.11C378.191 104.11 377.692 103.98 377.307 103.719C376.921 103.457 376.684 103.084 376.596 102.601L377.623 102.445C377.687 102.712 377.818 102.915 378.017 103.052C378.216 103.187 378.475 103.254 378.794 103.254C379.142 103.254 379.421 103.182 379.629 103.038C379.837 102.891 379.941 102.712 379.941 102.501C379.941 102.331 379.878 102.188 379.75 102.072C379.624 101.956 379.431 101.868 379.171 101.809L378.248 101.607C377.739 101.491 377.362 101.306 377.118 101.053C376.877 100.799 376.756 100.478 376.756 100.09C376.756 99.7682 376.846 99.4865 377.026 99.245C377.206 99.0036 377.455 98.8153 377.772 98.6804C378.089 98.5431 378.452 98.4744 378.862 98.4744C379.451 98.4744 379.915 98.6023 380.254 98.858C380.593 99.1113 380.816 99.451 380.925 99.8771ZM386.286 99.8771L385.324 100.048C385.284 99.9245 385.22 99.8073 385.132 99.696C385.047 99.5848 384.931 99.4936 384.784 99.4226C384.638 99.3516 384.454 99.3161 384.234 99.3161C383.933 99.3161 383.682 99.3835 383.481 99.5185C383.28 99.651 383.179 99.8227 383.179 100.033C383.179 100.216 383.247 100.362 383.382 100.474C383.517 100.585 383.734 100.676 384.035 100.747L384.902 100.946C385.403 101.062 385.777 101.241 386.024 101.482C386.27 101.724 386.393 102.037 386.393 102.423C386.393 102.75 386.298 103.041 386.109 103.297C385.922 103.55 385.66 103.749 385.324 103.893C384.99 104.038 384.603 104.11 384.163 104.11C383.552 104.11 383.054 103.98 382.668 103.719C382.282 103.457 382.045 103.084 381.958 102.601L382.984 102.445C383.048 102.712 383.179 102.915 383.378 103.052C383.577 103.187 383.836 103.254 384.156 103.254C384.504 103.254 384.782 103.182 384.99 103.038C385.199 102.891 385.303 102.712 385.303 102.501C385.303 102.331 385.239 102.188 385.111 102.072C384.986 101.956 384.793 101.868 384.532 101.809L383.609 101.607C383.1 101.491 382.724 101.306 382.48 101.053C382.238 100.799 382.117 100.478 382.117 100.09C382.117 99.7682 382.207 99.4865 382.387 99.245C382.567 99.0036 382.816 98.8153 383.133 98.6804C383.45 98.5431 383.814 98.4744 384.223 98.4744C384.813 98.4744 385.277 98.6023 385.615 98.858C385.954 99.1113 386.178 99.451 386.286 99.8771ZM389.148 104.121C388.802 104.121 388.49 104.057 388.21 103.929C387.931 103.799 387.71 103.611 387.546 103.364C387.385 103.118 387.305 102.816 387.305 102.459C387.305 102.151 387.364 101.898 387.482 101.699C387.601 101.5 387.761 101.343 387.962 101.227C388.163 101.111 388.388 101.023 388.636 100.964C388.885 100.905 389.138 100.86 389.396 100.829C389.723 100.791 389.988 100.76 390.192 100.737C390.395 100.71 390.543 100.669 390.636 100.612C390.728 100.555 390.774 100.463 390.774 100.335V100.31C390.774 100 390.687 99.7599 390.511 99.5895C390.339 99.419 390.081 99.3338 389.737 99.3338C389.38 99.3338 389.098 99.4131 388.892 99.5717C388.689 99.728 388.548 99.902 388.47 100.094L387.472 99.8665C387.59 99.535 387.763 99.2675 387.99 99.0639C388.22 98.858 388.484 98.7088 388.782 98.6165C389.08 98.5218 389.394 98.4744 389.723 98.4744C389.941 98.4744 390.172 98.5005 390.416 98.5526C390.662 98.6023 390.891 98.6946 391.104 98.8295C391.32 98.9645 391.496 99.1574 391.634 99.4084C391.771 99.657 391.84 99.9801 391.84 100.378V104H390.803V103.254H390.76C390.691 103.392 390.588 103.527 390.451 103.659C390.314 103.792 390.137 103.902 389.922 103.989C389.707 104.077 389.448 104.121 389.148 104.121ZM389.379 103.268C389.672 103.268 389.923 103.21 390.131 103.094C390.342 102.978 390.502 102.827 390.611 102.64C390.722 102.451 390.778 102.248 390.778 102.033V101.33C390.74 101.367 390.667 101.403 390.558 101.436C390.451 101.467 390.329 101.494 390.192 101.518C390.055 101.539 389.921 101.559 389.791 101.578C389.66 101.595 389.551 101.609 389.464 101.621C389.258 101.647 389.07 101.691 388.899 101.752C388.731 101.814 388.596 101.902 388.494 102.018C388.395 102.132 388.345 102.284 388.345 102.473C388.345 102.736 388.442 102.935 388.636 103.07C388.831 103.202 389.078 103.268 389.379 103.268ZM395.541 106.159C395.108 106.159 394.735 106.102 394.422 105.989C394.112 105.875 393.859 105.725 393.662 105.538C393.466 105.351 393.319 105.146 393.222 104.923L394.134 104.547C394.198 104.651 394.284 104.761 394.39 104.877C394.499 104.996 394.646 105.096 394.831 105.179C395.018 105.262 395.258 105.303 395.551 105.303C395.954 105.303 396.286 105.205 396.549 105.009C396.812 104.814 396.943 104.504 396.943 104.078V103.006H396.876C396.812 103.122 396.72 103.251 396.599 103.393C396.481 103.535 396.317 103.658 396.109 103.762C395.901 103.866 395.63 103.918 395.296 103.918C394.865 103.918 394.477 103.818 394.131 103.616C393.788 103.413 393.515 103.113 393.314 102.718C393.115 102.32 393.016 101.831 393.016 101.251C393.016 100.671 393.114 100.174 393.311 99.7599C393.509 99.3456 393.782 99.0284 394.127 98.8082C394.473 98.5857 394.865 98.4744 395.303 98.4744C395.641 98.4744 395.915 98.5312 396.123 98.6449C396.331 98.7562 396.494 98.8864 396.61 99.0355C396.728 99.1847 396.819 99.3161 396.883 99.4297H396.961V98.5455H398.002V104.121C398.002 104.589 397.893 104.974 397.675 105.275C397.457 105.576 397.162 105.798 396.791 105.942C396.421 106.087 396.005 106.159 395.541 106.159ZM395.53 103.038C395.835 103.038 396.094 102.967 396.304 102.825C396.517 102.68 396.678 102.474 396.787 102.207C396.898 101.937 396.954 101.614 396.954 101.237C396.954 100.87 396.9 100.547 396.791 100.268C396.682 99.9884 396.522 99.7706 396.311 99.6143C396.101 99.4557 395.84 99.3764 395.53 99.3764C395.21 99.3764 394.944 99.4593 394.731 99.625C394.518 99.7884 394.357 100.011 394.248 100.293C394.142 100.574 394.088 100.889 394.088 101.237C394.088 101.595 394.143 101.908 394.252 102.178C394.361 102.448 394.522 102.659 394.735 102.81C394.95 102.962 395.215 103.038 395.53 103.038ZM401.777 104.11C401.239 104.11 400.776 103.995 400.388 103.766C400.002 103.534 399.704 103.208 399.493 102.789C399.285 102.368 399.181 101.874 399.181 101.308C399.181 100.75 399.285 100.257 399.493 99.831C399.704 99.4048 399.997 99.0722 400.374 98.8331C400.753 98.594 401.195 98.4744 401.702 98.4744C402.01 98.4744 402.308 98.5253 402.597 98.6271C402.886 98.7289 403.145 98.8887 403.375 99.1065C403.604 99.3243 403.785 99.6072 403.918 99.9553C404.05 100.301 404.117 100.721 404.117 101.216V101.592H399.781V100.797H403.076C403.076 100.518 403.019 100.27 402.906 100.055C402.792 99.8369 402.632 99.6652 402.426 99.5398C402.223 99.4143 401.984 99.3516 401.709 99.3516C401.411 99.3516 401.15 99.425 400.928 99.5717C400.708 99.7161 400.537 99.9055 400.416 100.14C400.298 100.372 400.239 100.624 400.239 100.896V101.518C400.239 101.882 400.303 102.192 400.431 102.448C400.561 102.704 400.742 102.899 400.974 103.034C401.206 103.167 401.477 103.233 401.787 103.233C401.988 103.233 402.172 103.205 402.338 103.148C402.503 103.089 402.647 103.001 402.767 102.885C402.888 102.769 402.98 102.626 403.044 102.455L404.049 102.636C403.969 102.932 403.824 103.192 403.616 103.414C403.41 103.634 403.151 103.806 402.838 103.929C402.528 104.05 402.174 104.11 401.777 104.11ZM408.027 104V96.7273H410.69C411.206 96.7273 411.633 96.8125 411.972 96.983C412.31 97.151 412.564 97.3795 412.732 97.6683C412.9 97.9548 412.984 98.2779 412.984 98.6378C412.984 98.9408 412.928 99.1965 412.817 99.4048C412.706 99.6108 412.557 99.7765 412.37 99.902C412.185 100.025 411.981 100.115 411.759 100.172V100.243C412 100.255 412.236 100.333 412.465 100.477C412.697 100.619 412.889 100.822 413.041 101.085C413.192 101.347 413.268 101.667 413.268 102.043C413.268 102.415 413.18 102.749 413.005 103.045C412.832 103.338 412.565 103.571 412.203 103.744C411.84 103.915 411.378 104 410.814 104H408.027ZM409.124 103.059H410.708C411.233 103.059 411.61 102.957 411.837 102.754C412.064 102.55 412.178 102.295 412.178 101.99C412.178 101.76 412.12 101.55 412.004 101.358C411.888 101.166 411.722 101.013 411.507 100.9C411.294 100.786 411.04 100.729 410.747 100.729H409.124V103.059ZM409.124 99.8736H410.594C410.84 99.8736 411.062 99.8262 411.258 99.7315C411.457 99.6368 411.614 99.5043 411.73 99.3338C411.849 99.161 411.908 98.9574 411.908 98.723C411.908 98.4223 411.803 98.1702 411.592 97.9666C411.381 97.763 411.058 97.6612 410.622 97.6612H409.124V99.8736ZM416.782 104.11C416.271 104.11 415.824 103.993 415.443 103.759C415.062 103.524 414.766 103.196 414.555 102.775C414.345 102.353 414.239 101.861 414.239 101.298C414.239 100.732 414.345 100.237 414.555 99.8132C414.766 99.3894 415.062 99.0604 415.443 98.826C415.824 98.5916 416.271 98.4744 416.782 98.4744C417.293 98.4744 417.739 98.5916 418.121 98.826C418.502 99.0604 418.798 99.3894 419.008 99.8132C419.219 100.237 419.324 100.732 419.324 101.298C419.324 101.861 419.219 102.353 419.008 102.775C418.798 103.196 418.502 103.524 418.121 103.759C417.739 103.993 417.293 104.11 416.782 104.11ZM416.785 103.219C417.117 103.219 417.391 103.131 417.609 102.956C417.827 102.781 417.988 102.548 418.092 102.256C418.199 101.965 418.252 101.644 418.252 101.294C418.252 100.946 418.199 100.626 418.092 100.335C417.988 100.042 417.827 99.8061 417.609 99.6286C417.391 99.451 417.117 99.3622 416.785 99.3622C416.452 99.3622 416.175 99.451 415.954 99.6286C415.737 99.8061 415.574 100.042 415.468 100.335C415.364 100.626 415.312 100.946 415.312 101.294C415.312 101.644 415.364 101.965 415.468 102.256C415.574 102.548 415.737 102.781 415.954 102.956C416.175 103.131 416.452 103.219 416.785 103.219ZM422.552 104.107C422.111 104.107 421.718 103.994 421.373 103.769C421.029 103.542 420.759 103.219 420.563 102.8C420.369 102.378 420.272 101.873 420.272 101.283C420.272 100.694 420.37 100.19 420.566 99.7706C420.765 99.3516 421.038 99.0308 421.383 98.8082C421.729 98.5857 422.121 98.4744 422.559 98.4744C422.897 98.4744 423.169 98.5312 423.375 98.6449C423.584 98.7562 423.745 98.8864 423.858 99.0355C423.974 99.1847 424.064 99.3161 424.128 99.4297H424.192V96.7273H425.254V104H424.217V103.151H424.128C424.064 103.267 423.972 103.4 423.851 103.549C423.733 103.698 423.57 103.828 423.361 103.94C423.153 104.051 422.883 104.107 422.552 104.107ZM422.786 103.201C423.091 103.201 423.349 103.121 423.56 102.96C423.773 102.796 423.934 102.57 424.043 102.281C424.154 101.992 424.21 101.656 424.21 101.273C424.21 100.894 424.156 100.562 424.047 100.278C423.938 99.9943 423.778 99.773 423.567 99.6143C423.357 99.4557 423.096 99.3764 422.786 99.3764C422.466 99.3764 422.2 99.4593 421.987 99.625C421.774 99.7907 421.613 100.017 421.504 100.303C421.397 100.59 421.344 100.913 421.344 101.273C421.344 101.637 421.399 101.965 421.508 102.256C421.616 102.548 421.777 102.778 421.991 102.949C422.206 103.117 422.471 103.201 422.786 103.201ZM427.441 106.045C427.282 106.045 427.138 106.032 427.007 106.006C426.877 105.983 426.78 105.957 426.716 105.928L426.972 105.058C427.166 105.11 427.339 105.133 427.49 105.126C427.642 105.119 427.776 105.062 427.892 104.955C428.01 104.849 428.114 104.675 428.204 104.433L428.335 104.071L426.34 98.5455H427.476L428.858 102.778H428.914L430.296 98.5455H431.436L429.188 104.728C429.084 105.012 428.951 105.252 428.79 105.449C428.629 105.648 428.437 105.797 428.215 105.896C427.992 105.996 427.734 106.045 427.441 106.045Z" fill="white"/>
<line x1="104" y1="144.5" x2="687" y2="144.5" stroke="white"/>
<line x1="104.5" y1="145" x2="104.5" y2="115" stroke="white"/>
<line x1="104.5" y1="87" x2="104.5" y2="57" stroke="white"/>
<line x1="104" y1="56.5" x2="687" y2="56.5" stroke="white"/>
<path d="M103.933 95.636C103.933 95.4419 104.001 95.275 104.138 95.1353C104.278 94.9956 104.446 94.9258 104.643 94.9258C104.837 94.9258 105.003 94.9956 105.14 95.1353C105.28 95.275 105.349 95.4419 105.349 95.636C105.349 95.8301 105.28 95.997 105.14 96.1367C105.003 96.2764 104.837 96.3462 104.643 96.3462C104.513 96.3462 104.393 96.3131 104.284 96.2468C104.178 96.1829 104.092 96.0977 104.028 95.9911C103.964 95.8846 103.933 95.7662 103.933 95.636ZM103.933 100.997C103.933 100.803 104.001 100.636 104.138 100.497C104.278 100.357 104.446 100.287 104.643 100.287C104.837 100.287 105.003 100.357 105.14 100.497C105.28 100.636 105.349 100.803 105.349 100.997C105.349 101.191 105.28 101.358 105.14 101.498C105.003 101.638 104.837 101.708 104.643 101.708C104.513 101.708 104.393 101.674 104.284 101.608C104.178 101.544 104.092 101.459 104.028 101.352C103.964 101.246 103.933 101.128 103.933 100.997ZM103.933 106.359C103.933 106.165 104.001 105.998 104.138 105.858C104.278 105.718 104.446 105.648 104.643 105.648C104.837 105.648 105.003 105.718 105.14 105.858C105.28 105.998 105.349 106.165 105.349 106.359C105.349 106.553 105.28 106.72 105.14 106.859C105.003 106.999 104.837 107.069 104.643 107.069C104.513 107.069 104.393 107.036 104.284 106.969C104.178 106.906 104.092 106.82 104.028 106.714C103.964 106.607 103.933 106.489 103.933 106.359Z" fill="white"/>
<line x1="686.5" y1="145" x2="686.5" y2="115" stroke="white"/>
<line x1="686.5" y1="87" x2="686.5" y2="57" stroke="white"/>
<path d="M685.933 95.636C685.933 95.4419 686.001 95.275 686.138 95.1353C686.278 94.9956 686.446 94.9258 686.643 94.9258C686.837 94.9258 687.003 94.9956 687.14 95.1353C687.28 95.275 687.349 95.4419 687.349 95.636C687.349 95.8301 687.28 95.997 687.14 96.1367C687.003 96.2764 686.837 96.3462 686.643 96.3462C686.513 96.3462 686.393 96.3131 686.284 96.2468C686.178 96.1829 686.092 96.0977 686.028 95.9911C685.964 95.8846 685.933 95.7662 685.933 95.636ZM685.933 100.997C685.933 100.803 686.001 100.636 686.138 100.497C686.278 100.357 686.446 100.287 686.643 100.287C686.837 100.287 687.003 100.357 687.14 100.497C687.28 100.636 687.349 100.803 687.349 100.997C687.349 101.191 687.28 101.358 687.14 101.498C687.003 101.638 686.837 101.708 686.643 101.708C686.513 101.708 686.393 101.674 686.284 101.608C686.178 101.544 686.092 101.459 686.028 101.352C685.964 101.246 685.933 101.128 685.933 100.997ZM685.933 106.359C685.933 106.165 686.001 105.998 686.138 105.858C686.278 105.718 686.446 105.648 686.643 105.648C686.837 105.648 687.003 105.718 687.14 105.858C687.28 105.998 687.349 106.165 687.349 106.359C687.349 106.553 687.28 106.72 687.14 106.859C687.003 106.999 686.837 107.069 686.643 107.069C686.513 107.069 686.393 107.036 686.284 106.969C686.178 106.906 686.092 106.82 686.028 106.714C685.964 106.607 685.933 106.489 685.933 106.359Z" fill="white"/>
</svg>
