<svg width="792" height="187" viewBox="0 0 792 187" fill="none" xmlns="http://www.w3.org/2000/svg">
<rect width="792" height="187" fill="#1B1B1D"/>
<path d="M648.426 103.794V102.273H655.594V103.794H652.922V111H651.098V103.794H648.426ZM656.74 111V104.455H658.555V111H656.74ZM657.652 103.611C657.382 103.611 657.151 103.521 656.957 103.342C656.767 103.161 656.672 102.943 656.672 102.69C656.672 102.44 656.767 102.226 656.957 102.047C657.151 101.865 657.382 101.774 657.652 101.774C657.922 101.774 658.152 101.865 658.342 102.047C658.536 102.226 658.632 102.44 658.632 102.69C658.632 102.943 658.536 103.161 658.342 103.342C658.152 103.521 657.922 103.611 657.652 103.611ZM660.01 111V104.455H661.74V105.609H661.816C661.953 105.226 662.18 104.923 662.498 104.702C662.816 104.48 663.197 104.369 663.64 104.369C664.089 104.369 664.471 104.482 664.787 104.706C665.102 104.928 665.312 105.229 665.417 105.609H665.485C665.619 105.234 665.86 104.935 666.21 104.71C666.562 104.483 666.978 104.369 667.458 104.369C668.069 104.369 668.565 104.564 668.946 104.953C669.329 105.339 669.521 105.888 669.521 106.598V111H667.71V106.956C667.71 106.592 667.613 106.32 667.42 106.138C667.227 105.956 666.985 105.865 666.696 105.865C666.366 105.865 666.109 105.97 665.924 106.18C665.74 106.388 665.647 106.662 665.647 107.003V111H663.887V106.918C663.887 106.597 663.795 106.341 663.61 106.151C663.429 105.96 663.189 105.865 662.89 105.865C662.689 105.865 662.507 105.916 662.345 106.018C662.186 106.118 662.059 106.259 661.966 106.44C661.872 106.619 661.825 106.83 661.825 107.071V111H660.01ZM673.938 111.128C673.265 111.128 672.685 110.991 672.199 110.719C671.716 110.443 671.344 110.054 671.083 109.551C670.821 109.045 670.691 108.447 670.691 107.757C670.691 107.084 670.821 106.493 671.083 105.984C671.344 105.476 671.712 105.08 672.186 104.795C672.664 104.511 673.223 104.369 673.865 104.369C674.297 104.369 674.699 104.439 675.071 104.578C675.446 104.714 675.773 104.92 676.051 105.196C676.333 105.472 676.551 105.818 676.708 106.236C676.864 106.651 676.942 107.136 676.942 107.693V108.192H671.415V107.067H675.233C675.233 106.805 675.176 106.574 675.063 106.372C674.949 106.17 674.792 106.013 674.59 105.899C674.391 105.783 674.159 105.724 673.895 105.724C673.62 105.724 673.375 105.788 673.162 105.916C672.952 106.041 672.787 106.21 672.668 106.423C672.549 106.634 672.488 106.868 672.485 107.126V108.196C672.485 108.52 672.544 108.8 672.664 109.036C672.786 109.271 672.958 109.453 673.179 109.581C673.401 109.709 673.664 109.773 673.968 109.773C674.169 109.773 674.354 109.744 674.522 109.688C674.689 109.631 674.833 109.545 674.952 109.432C675.071 109.318 675.162 109.179 675.225 109.014L676.904 109.125C676.819 109.528 676.644 109.881 676.38 110.182C676.118 110.48 675.78 110.713 675.365 110.881C674.953 111.045 674.478 111.128 673.938 111.128Z" fill="white"/>
<path d="M156.206 119.455V120.818H152.264V119.455H156.206ZM153.159 117.886H154.974V123.989C154.974 124.156 155 124.287 155.051 124.381C155.102 124.472 155.173 124.536 155.264 124.572C155.358 124.609 155.466 124.628 155.588 124.628C155.673 124.628 155.759 124.621 155.844 124.607C155.929 124.589 155.994 124.577 156.04 124.568L156.325 125.919C156.234 125.947 156.107 125.98 155.942 126.017C155.777 126.057 155.577 126.081 155.341 126.089C154.903 126.107 154.52 126.048 154.19 125.915C153.864 125.781 153.609 125.574 153.428 125.293C153.246 125.011 153.156 124.656 153.159 124.227V117.886ZM160.301 126.128C159.628 126.128 159.048 125.991 158.562 125.719C158.08 125.443 157.707 125.054 157.446 124.551C157.185 124.045 157.054 123.447 157.054 122.757C157.054 122.084 157.185 121.493 157.446 120.984C157.707 120.476 158.075 120.08 158.55 119.795C159.027 119.511 159.587 119.369 160.229 119.369C160.661 119.369 161.063 119.439 161.435 119.578C161.81 119.714 162.136 119.92 162.415 120.196C162.696 120.472 162.915 120.818 163.071 121.236C163.227 121.651 163.305 122.136 163.305 122.693V123.192H157.778V122.067H161.597C161.597 121.805 161.54 121.574 161.426 121.372C161.313 121.17 161.155 121.013 160.953 120.899C160.754 120.783 160.523 120.724 160.259 120.724C159.983 120.724 159.739 120.788 159.526 120.916C159.315 121.041 159.151 121.21 159.031 121.423C158.912 121.634 158.851 121.868 158.848 122.126V123.196C158.848 123.52 158.908 123.8 159.027 124.036C159.149 124.271 159.321 124.453 159.543 124.581C159.764 124.709 160.027 124.773 160.331 124.773C160.533 124.773 160.717 124.744 160.885 124.688C161.053 124.631 161.196 124.545 161.315 124.432C161.435 124.318 161.526 124.179 161.588 124.014L163.267 124.125C163.182 124.528 163.007 124.881 162.743 125.182C162.482 125.48 162.143 125.713 161.729 125.881C161.317 126.045 160.841 126.128 160.301 126.128ZM166.305 122.216V126H164.49V119.455H166.22V120.609H166.297C166.442 120.229 166.685 119.928 167.026 119.706C167.366 119.482 167.78 119.369 168.266 119.369C168.72 119.369 169.116 119.469 169.455 119.668C169.793 119.866 170.055 120.151 170.243 120.52C170.43 120.886 170.524 121.324 170.524 121.832V126H168.709V122.156C168.712 121.756 168.609 121.443 168.402 121.219C168.195 120.991 167.909 120.878 167.545 120.878C167.301 120.878 167.085 120.93 166.898 121.036C166.713 121.141 166.568 121.294 166.463 121.496C166.361 121.695 166.308 121.935 166.305 122.216ZM175.436 119.455V120.818H171.495V119.455H175.436ZM172.39 117.886H174.205V123.989C174.205 124.156 174.23 124.287 174.282 124.381C174.333 124.472 174.404 124.536 174.495 124.572C174.588 124.609 174.696 124.628 174.819 124.628C174.904 124.628 174.989 124.621 175.074 124.607C175.159 124.589 175.225 124.577 175.27 124.568L175.556 125.919C175.465 125.947 175.337 125.98 175.172 126.017C175.007 126.057 174.807 126.081 174.571 126.089C174.134 126.107 173.75 126.048 173.421 125.915C173.094 125.781 172.84 125.574 172.658 125.293C172.476 125.011 172.387 124.656 172.39 124.227V117.886ZM178.485 126.124C178.068 126.124 177.696 126.051 177.369 125.906C177.042 125.759 176.784 125.541 176.593 125.254C176.406 124.964 176.312 124.604 176.312 124.172C176.312 123.808 176.379 123.503 176.512 123.256C176.646 123.009 176.828 122.81 177.058 122.659C177.288 122.509 177.549 122.395 177.842 122.318C178.137 122.241 178.447 122.188 178.771 122.156C179.152 122.116 179.458 122.08 179.691 122.045C179.924 122.009 180.093 121.955 180.199 121.884C180.304 121.812 180.356 121.707 180.356 121.568V121.543C180.356 121.273 180.271 121.064 180.1 120.916C179.933 120.768 179.694 120.695 179.385 120.695C179.058 120.695 178.798 120.767 178.605 120.912C178.412 121.054 178.284 121.233 178.221 121.449L176.542 121.312C176.627 120.915 176.795 120.571 177.045 120.281C177.295 119.989 177.618 119.764 178.012 119.608C178.41 119.449 178.87 119.369 179.393 119.369C179.757 119.369 180.105 119.412 180.437 119.497C180.772 119.582 181.069 119.714 181.328 119.893C181.589 120.072 181.795 120.303 181.946 120.584C182.096 120.862 182.172 121.196 182.172 121.585V126H180.45V125.092H180.399C180.294 125.297 180.153 125.477 179.977 125.634C179.801 125.787 179.589 125.908 179.342 125.996C179.095 126.081 178.809 126.124 178.485 126.124ZM179.005 124.871C179.272 124.871 179.508 124.818 179.713 124.713C179.917 124.605 180.078 124.46 180.194 124.278C180.311 124.097 180.369 123.891 180.369 123.661V122.966C180.312 123.003 180.234 123.037 180.135 123.068C180.038 123.097 179.929 123.124 179.806 123.149C179.684 123.172 179.562 123.193 179.44 123.213C179.318 123.23 179.207 123.246 179.108 123.26C178.895 123.291 178.708 123.341 178.549 123.409C178.39 123.477 178.267 123.57 178.179 123.686C178.091 123.8 178.047 123.942 178.047 124.112C178.047 124.359 178.136 124.548 178.315 124.679C178.497 124.807 178.727 124.871 179.005 124.871ZM187.061 119.455V120.818H183.12V119.455H187.061ZM184.015 117.886H185.83V123.989C185.83 124.156 185.855 124.287 185.907 124.381C185.958 124.472 186.029 124.536 186.12 124.572C186.213 124.609 186.321 124.628 186.444 124.628C186.529 124.628 186.614 124.621 186.699 124.607C186.784 124.589 186.85 124.577 186.895 124.568L187.181 125.919C187.09 125.947 186.962 125.98 186.797 126.017C186.632 126.057 186.432 126.081 186.196 126.089C185.759 126.107 185.375 126.048 185.046 125.915C184.719 125.781 184.465 125.574 184.283 125.293C184.101 125.011 184.012 124.656 184.015 124.227V117.886ZM188.244 126V119.455H190.059V126H188.244ZM189.156 118.611C188.886 118.611 188.654 118.521 188.461 118.342C188.271 118.161 188.176 117.943 188.176 117.69C188.176 117.44 188.271 117.226 188.461 117.047C188.654 116.865 188.886 116.774 189.156 116.774C189.426 116.774 189.656 116.865 189.846 117.047C190.039 117.226 190.136 117.44 190.136 117.69C190.136 117.943 190.039 118.161 189.846 118.342C189.656 118.521 189.426 118.611 189.156 118.611ZM197.616 119.455L195.327 126H193.282L190.994 119.455H192.911L194.271 124.138H194.339L195.694 119.455H197.616ZM201.317 126.128C200.643 126.128 200.064 125.991 199.578 125.719C199.095 125.443 198.723 125.054 198.462 124.551C198.2 124.045 198.07 123.447 198.07 122.757C198.07 122.084 198.2 121.493 198.462 120.984C198.723 120.476 199.091 120.08 199.565 119.795C200.043 119.511 200.602 119.369 201.244 119.369C201.676 119.369 202.078 119.439 202.45 119.578C202.825 119.714 203.152 119.92 203.43 120.196C203.712 120.472 203.93 120.818 204.087 121.236C204.243 121.651 204.321 122.136 204.321 122.693V123.192H198.794V122.067H202.612C202.612 121.805 202.555 121.574 202.442 121.372C202.328 121.17 202.17 121.013 201.969 120.899C201.77 120.783 201.538 120.724 201.274 120.724C200.999 120.724 200.754 120.788 200.541 120.916C200.331 121.041 200.166 121.21 200.047 121.423C199.928 121.634 199.866 121.868 199.864 122.126V123.196C199.864 123.52 199.923 123.8 200.043 124.036C200.165 124.271 200.337 124.453 200.558 124.581C200.78 124.709 201.043 124.773 201.347 124.773C201.548 124.773 201.733 124.744 201.901 124.688C202.068 124.631 202.212 124.545 202.331 124.432C202.45 124.318 202.541 124.179 202.604 124.014L204.283 124.125C204.197 124.528 204.023 124.881 203.759 125.182C203.497 125.48 203.159 125.713 202.744 125.881C202.332 126.045 201.857 126.128 201.317 126.128Z" fill="white"/>
<path d="M205.759 49V40.2727H209.202C209.864 40.2727 210.428 40.3991 210.893 40.652C211.359 40.902 211.714 41.25 211.959 41.696C212.206 42.1392 212.33 42.6506 212.33 43.2301C212.33 43.8097 212.205 44.321 211.955 44.7642C211.705 45.2074 211.342 45.5526 210.868 45.7997C210.396 46.0469 209.825 46.1705 209.155 46.1705H206.96V44.6918H208.857C209.212 44.6918 209.504 44.6307 209.734 44.5085C209.967 44.3835 210.141 44.2116 210.254 43.9929C210.371 43.7713 210.429 43.517 210.429 43.2301C210.429 42.9403 210.371 42.6875 210.254 42.4716C210.141 42.2528 209.967 42.0838 209.734 41.9645C209.501 41.8423 209.206 41.7812 208.848 41.7812H207.604V49H205.759ZM213.494 49V42.4545H215.254V43.5966H215.322C215.441 43.1903 215.642 42.8835 215.923 42.6761C216.204 42.4659 216.528 42.3608 216.895 42.3608C216.985 42.3608 217.083 42.3665 217.189 42.3778C217.294 42.3892 217.386 42.4048 217.466 42.4247V44.0355C217.38 44.0099 217.262 43.9872 217.112 43.9673C216.961 43.9474 216.824 43.9375 216.699 43.9375C216.431 43.9375 216.193 43.9957 215.983 44.1122C215.775 44.2259 215.61 44.3849 215.488 44.5895C215.369 44.794 215.309 45.0298 215.309 45.2969V49H213.494ZM221.082 49.1278C220.409 49.1278 219.83 48.9915 219.344 48.7188C218.861 48.4432 218.489 48.054 218.227 47.5511C217.966 47.0455 217.835 46.4474 217.835 45.7571C217.835 45.0838 217.966 44.4929 218.227 43.9844C218.489 43.4759 218.857 43.0795 219.331 42.7955C219.808 42.5114 220.368 42.3693 221.01 42.3693C221.442 42.3693 221.844 42.4389 222.216 42.5781C222.591 42.7145 222.918 42.9205 223.196 43.196C223.477 43.4716 223.696 43.8182 223.852 44.2358C224.009 44.6506 224.087 45.1364 224.087 45.6932V46.1918H218.56V45.0668H222.378C222.378 44.8054 222.321 44.5739 222.207 44.3722C222.094 44.1705 221.936 44.0128 221.734 43.8991C221.536 43.7827 221.304 43.7244 221.04 43.7244C220.764 43.7244 220.52 43.7884 220.307 43.9162C220.097 44.0412 219.932 44.2102 219.812 44.4233C219.693 44.6335 219.632 44.8679 219.629 45.1264V46.196C219.629 46.5199 219.689 46.7997 219.808 47.0355C219.93 47.2713 220.102 47.4531 220.324 47.581C220.545 47.7088 220.808 47.7727 221.112 47.7727C221.314 47.7727 221.499 47.7443 221.666 47.6875C221.834 47.6307 221.977 47.5455 222.097 47.4318C222.216 47.3182 222.307 47.179 222.369 47.0142L224.048 47.125C223.963 47.5284 223.788 47.8807 223.524 48.1818C223.263 48.4801 222.925 48.7131 222.51 48.8807C222.098 49.0455 221.622 49.1278 221.082 49.1278ZM228.791 42.4545V43.8182H224.751V42.4545H228.791ZM225.676 49V41.9815C225.676 41.5071 225.768 41.1136 225.953 40.8011C226.141 40.4886 226.396 40.2543 226.72 40.098C227.044 39.9418 227.412 39.8636 227.824 39.8636C228.102 39.8636 228.357 39.8849 228.587 39.9276C228.82 39.9702 228.993 40.0085 229.107 40.0426L228.783 41.4062C228.712 41.3835 228.624 41.3622 228.518 41.3423C228.416 41.3224 228.311 41.3125 228.203 41.3125C227.936 41.3125 227.75 41.375 227.645 41.5C227.54 41.6222 227.487 41.794 227.487 42.0156V49H225.676ZM232.649 49.1278C231.975 49.1278 231.396 48.9915 230.91 48.7188C230.427 48.4432 230.055 48.054 229.794 47.5511C229.532 47.0455 229.402 46.4474 229.402 45.7571C229.402 45.0838 229.532 44.4929 229.794 43.9844C230.055 43.4759 230.423 43.0795 230.897 42.7955C231.375 42.5114 231.934 42.3693 232.576 42.3693C233.008 42.3693 233.41 42.4389 233.782 42.5781C234.157 42.7145 234.484 42.9205 234.762 43.196C235.044 43.4716 235.262 43.8182 235.419 44.2358C235.575 44.6506 235.653 45.1364 235.653 45.6932V46.1918H230.126V45.0668H233.944C233.944 44.8054 233.887 44.5739 233.774 44.3722C233.66 44.1705 233.502 44.0128 233.301 43.8991C233.102 43.7827 232.87 43.7244 232.606 43.7244C232.331 43.7244 232.086 43.7884 231.873 43.9162C231.663 44.0412 231.498 44.2102 231.379 44.4233C231.26 44.6335 231.199 44.8679 231.196 45.1264V46.196C231.196 46.5199 231.255 46.7997 231.375 47.0355C231.497 47.2713 231.669 47.4531 231.89 47.581C232.112 47.7088 232.375 47.7727 232.679 47.7727C232.88 47.7727 233.065 47.7443 233.233 47.6875C233.4 47.6307 233.544 47.5455 233.663 47.4318C233.782 47.3182 233.873 47.179 233.936 47.0142L235.615 47.125C235.529 47.5284 235.355 47.8807 235.091 48.1818C234.829 48.4801 234.491 48.7131 234.076 48.8807C233.664 49.0455 233.189 49.1278 232.649 49.1278ZM236.838 49V42.4545H238.598V43.5966H238.666C238.785 43.1903 238.985 42.8835 239.267 42.6761C239.548 42.4659 239.872 42.3608 240.238 42.3608C240.329 42.3608 240.427 42.3665 240.532 42.3778C240.637 42.3892 240.73 42.4048 240.809 42.4247V44.0355C240.724 44.0099 240.606 43.9872 240.456 43.9673C240.305 43.9474 240.167 43.9375 240.042 43.9375C239.775 43.9375 239.537 43.9957 239.326 44.1122C239.119 44.2259 238.954 44.3849 238.832 44.5895C238.713 44.794 238.653 45.0298 238.653 45.2969V49H236.838ZM241.748 49V42.4545H243.508V43.5966H243.576C243.695 43.1903 243.896 42.8835 244.177 42.6761C244.458 42.4659 244.782 42.3608 245.148 42.3608C245.239 42.3608 245.337 42.3665 245.442 42.3778C245.548 42.3892 245.64 42.4048 245.719 42.4247V44.0355C245.634 44.0099 245.516 43.9872 245.366 43.9673C245.215 43.9474 245.077 43.9375 244.952 43.9375C244.685 43.9375 244.447 43.9957 244.237 44.1122C244.029 44.2259 243.864 44.3849 243.742 44.5895C243.623 44.794 243.563 45.0298 243.563 45.2969V49H241.748ZM249.336 49.1278C248.663 49.1278 248.083 48.9915 247.598 48.7188C247.115 48.4432 246.743 48.054 246.481 47.5511C246.22 47.0455 246.089 46.4474 246.089 45.7571C246.089 45.0838 246.22 44.4929 246.481 43.9844C246.743 43.4759 247.11 43.0795 247.585 42.7955C248.062 42.5114 248.622 42.3693 249.264 42.3693C249.696 42.3693 250.098 42.4389 250.47 42.5781C250.845 42.7145 251.172 42.9205 251.45 43.196C251.731 43.4716 251.95 43.8182 252.106 44.2358C252.262 44.6506 252.341 45.1364 252.341 45.6932V46.1918H246.814V45.0668H250.632C250.632 44.8054 250.575 44.5739 250.461 44.3722C250.348 44.1705 250.19 44.0128 249.988 43.8991C249.789 43.7827 249.558 43.7244 249.294 43.7244C249.018 43.7244 248.774 43.7884 248.561 43.9162C248.35 44.0412 248.186 44.2102 248.066 44.4233C247.947 44.6335 247.886 44.8679 247.883 45.1264V46.196C247.883 46.5199 247.943 46.7997 248.062 47.0355C248.184 47.2713 248.356 47.4531 248.578 47.581C248.799 47.7088 249.062 47.7727 249.366 47.7727C249.568 47.7727 249.752 47.7443 249.92 47.6875C250.088 47.6307 250.231 47.5455 250.35 47.4318C250.47 47.3182 250.561 47.179 250.623 47.0142L252.302 47.125C252.217 47.5284 252.042 47.8807 251.778 48.1818C251.517 48.4801 251.179 48.7131 250.764 48.8807C250.352 49.0455 249.876 49.1278 249.336 49.1278ZM255.937 49.1065C255.44 49.1065 254.99 48.9787 254.586 48.723C254.186 48.4645 253.868 48.0852 253.632 47.5852C253.399 47.0824 253.282 46.4659 253.282 45.7358C253.282 44.9858 253.403 44.3622 253.645 43.8651C253.886 43.3651 254.207 42.9915 254.608 42.7443C255.011 42.4943 255.453 42.3693 255.933 42.3693C256.299 42.3693 256.605 42.4318 256.849 42.5568C257.096 42.679 257.295 42.8324 257.446 43.017C257.599 43.1989 257.716 43.3778 257.795 43.554H257.85V40.2727H259.662V49H257.872V47.9517H257.795C257.71 48.1335 257.589 48.3139 257.433 48.4929C257.279 48.669 257.079 48.8153 256.832 48.9318C256.588 49.0483 256.289 49.1065 255.937 49.1065ZM256.512 47.6619C256.805 47.6619 257.052 47.5824 257.254 47.4233C257.458 47.2614 257.615 47.0355 257.723 46.7457C257.833 46.456 257.889 46.1165 257.889 45.7273C257.889 45.3381 257.835 45 257.727 44.7131C257.619 44.4261 257.463 44.2045 257.258 44.0483C257.054 43.892 256.805 43.8139 256.512 43.8139C256.214 43.8139 255.963 43.8949 255.758 44.0568C255.554 44.2187 255.399 44.4432 255.294 44.7301C255.189 45.017 255.136 45.3494 255.136 45.7273C255.136 46.108 255.189 46.4446 255.294 46.7372C255.402 47.027 255.556 47.2543 255.758 47.419C255.963 47.581 256.214 47.6619 256.512 47.6619ZM263.966 49V40.2727H265.811V47.4787H269.552V49H263.966ZM270.74 49V42.4545H272.555V49H270.74ZM271.652 41.6108C271.382 41.6108 271.151 41.5213 270.957 41.3423C270.767 41.1605 270.672 40.9432 270.672 40.6903C270.672 40.4403 270.767 40.2259 270.957 40.0469C271.151 39.8651 271.382 39.7741 271.652 39.7741C271.922 39.7741 272.152 39.8651 272.342 40.0469C272.536 40.2259 272.632 40.4403 272.632 40.6903C272.632 40.9432 272.536 41.1605 272.342 41.3423C272.152 41.5213 271.922 41.6108 271.652 41.6108ZM277.529 42.4545V43.8182H273.49V42.4545H277.529ZM274.414 49V41.9815C274.414 41.5071 274.507 41.1136 274.691 40.8011C274.879 40.4886 275.135 40.2543 275.458 40.098C275.782 39.9418 276.15 39.8636 276.562 39.8636C276.841 39.8636 277.095 39.8849 277.325 39.9276C277.558 39.9702 277.731 40.0085 277.845 40.0426L277.521 41.4062C277.45 41.3835 277.362 41.3622 277.257 41.3423C277.154 41.3224 277.049 41.3125 276.941 41.3125C276.674 41.3125 276.488 41.375 276.383 41.5C276.278 41.6222 276.225 41.794 276.225 42.0156V49H274.414ZM281.387 49.1278C280.714 49.1278 280.134 48.9915 279.648 48.7188C279.165 48.4432 278.793 48.054 278.532 47.5511C278.271 47.0455 278.14 46.4474 278.14 45.7571C278.14 45.0838 278.271 44.4929 278.532 43.9844C278.793 43.4759 279.161 43.0795 279.636 42.7955C280.113 42.5114 280.673 42.3693 281.315 42.3693C281.746 42.3693 282.148 42.4389 282.521 42.5781C282.896 42.7145 283.222 42.9205 283.501 43.196C283.782 43.4716 284.001 43.8182 284.157 44.2358C284.313 44.6506 284.391 45.1364 284.391 45.6932V46.1918H278.864V45.0668H282.683C282.683 44.8054 282.626 44.5739 282.512 44.3722C282.398 44.1705 282.241 44.0128 282.039 43.8991C281.84 43.7827 281.609 43.7244 281.344 43.7244C281.069 43.7244 280.825 43.7884 280.612 43.9162C280.401 44.0412 280.237 44.2102 280.117 44.4233C279.998 44.6335 279.937 44.8679 279.934 45.1264V46.196C279.934 46.5199 279.994 46.7997 280.113 47.0355C280.235 47.2713 280.407 47.4531 280.629 47.581C280.85 47.7088 281.113 47.7727 281.417 47.7727C281.619 47.7727 281.803 47.7443 281.971 47.6875C282.138 47.6307 282.282 47.5455 282.401 47.4318C282.521 47.3182 282.612 47.179 282.674 47.0142L284.353 47.125C284.268 47.5284 284.093 47.8807 283.829 48.1818C283.567 48.4801 283.229 48.7131 282.815 48.8807C282.403 49.0455 281.927 49.1278 281.387 49.1278ZM289.058 42.4545V43.8182H285.116V42.4545H289.058ZM286.011 40.8864H287.826V46.9886C287.826 47.1562 287.852 47.2869 287.903 47.3807C287.954 47.4716 288.025 47.5355 288.116 47.5724C288.21 47.6094 288.317 47.6278 288.44 47.6278C288.525 47.6278 288.61 47.6207 288.695 47.6065C288.781 47.5895 288.846 47.5767 288.891 47.5682L289.177 48.919C289.086 48.9474 288.958 48.9801 288.793 49.017C288.629 49.0568 288.428 49.081 288.192 49.0895C287.755 49.1065 287.371 49.0483 287.042 48.9148C286.715 48.7812 286.461 48.5739 286.279 48.2926C286.097 48.0114 286.008 47.6562 286.011 47.2273V40.8864ZM290.24 49V42.4545H292.055V49H290.24ZM291.152 41.6108C290.882 41.6108 290.651 41.5213 290.457 41.3423C290.267 41.1605 290.172 40.9432 290.172 40.6903C290.172 40.4403 290.267 40.2259 290.457 40.0469C290.651 39.8651 290.882 39.7741 291.152 39.7741C291.422 39.7741 291.652 39.8651 291.842 40.0469C292.036 40.2259 292.132 40.4403 292.132 40.6903C292.132 40.9432 292.036 41.1605 291.842 41.3423C291.652 41.5213 291.422 41.6108 291.152 41.6108ZM293.51 49V42.4545H295.24V43.6094H295.316C295.453 43.2259 295.68 42.9233 295.998 42.7017C296.316 42.4801 296.697 42.3693 297.14 42.3693C297.589 42.3693 297.971 42.4815 298.287 42.706C298.602 42.9276 298.812 43.2287 298.917 43.6094H298.985C299.119 43.2344 299.36 42.9347 299.71 42.7102C300.062 42.483 300.478 42.3693 300.958 42.3693C301.569 42.3693 302.065 42.5639 302.446 42.9531C302.829 43.3395 303.021 43.8878 303.021 44.598V49H301.21V44.956C301.21 44.5923 301.113 44.3196 300.92 44.1378C300.727 43.956 300.485 43.8651 300.196 43.8651C299.866 43.8651 299.609 43.9702 299.424 44.1804C299.24 44.3878 299.147 44.6619 299.147 45.0028V49H297.387V44.9176C297.387 44.5966 297.295 44.3409 297.11 44.1506C296.929 43.9602 296.689 43.8651 296.39 43.8651C296.189 43.8651 296.007 43.9162 295.845 44.0185C295.686 44.1179 295.559 44.2585 295.466 44.4403C295.372 44.6193 295.325 44.8295 295.325 45.071V49H293.51ZM307.438 49.1278C306.765 49.1278 306.185 48.9915 305.699 48.7188C305.216 48.4432 304.844 48.054 304.583 47.5511C304.321 47.0455 304.191 46.4474 304.191 45.7571C304.191 45.0838 304.321 44.4929 304.583 43.9844C304.844 43.4759 305.212 43.0795 305.686 42.7955C306.164 42.5114 306.723 42.3693 307.365 42.3693C307.797 42.3693 308.199 42.4389 308.571 42.5781C308.946 42.7145 309.273 42.9205 309.551 43.196C309.833 43.4716 310.051 43.8182 310.208 44.2358C310.364 44.6506 310.442 45.1364 310.442 45.6932V46.1918H304.915V45.0668H308.733C308.733 44.8054 308.676 44.5739 308.563 44.3722C308.449 44.1705 308.292 44.0128 308.09 43.8991C307.891 43.7827 307.659 43.7244 307.395 43.7244C307.12 43.7244 306.875 43.7884 306.662 43.9162C306.452 44.0412 306.287 44.2102 306.168 44.4233C306.049 44.6335 305.988 44.8679 305.985 45.1264V46.196C305.985 46.5199 306.044 46.7997 306.164 47.0355C306.286 47.2713 306.458 47.4531 306.679 47.581C306.901 47.7088 307.164 47.7727 307.468 47.7727C307.669 47.7727 307.854 47.7443 308.022 47.6875C308.189 47.6307 308.333 47.5455 308.452 47.4318C308.571 47.3182 308.662 47.179 308.725 47.0142L310.404 47.125C310.319 47.5284 310.144 47.8807 309.88 48.1818C309.618 48.4801 309.28 48.7131 308.865 48.8807C308.453 49.0455 307.978 49.1278 307.438 49.1278Z" fill="white"/>
<path d="M283.724 128.455V119.455H285.514V120.554H285.595C285.675 120.378 285.79 120.199 285.94 120.017C286.094 119.832 286.293 119.679 286.537 119.557C286.784 119.432 287.091 119.369 287.457 119.369C287.935 119.369 288.375 119.494 288.778 119.744C289.182 119.991 289.504 120.365 289.746 120.865C289.987 121.362 290.108 121.986 290.108 122.736C290.108 123.466 289.99 124.082 289.754 124.585C289.521 125.085 289.203 125.464 288.8 125.723C288.399 125.979 287.95 126.107 287.453 126.107C287.101 126.107 286.801 126.048 286.554 125.932C286.31 125.815 286.109 125.669 285.953 125.493C285.797 125.314 285.678 125.134 285.595 124.952H285.54V128.455H283.724ZM285.501 122.727C285.501 123.116 285.555 123.456 285.663 123.746C285.771 124.036 285.928 124.261 286.132 124.423C286.337 124.582 286.585 124.662 286.878 124.662C287.173 124.662 287.423 124.581 287.628 124.419C287.832 124.254 287.987 124.027 288.092 123.737C288.2 123.445 288.254 123.108 288.254 122.727C288.254 122.349 288.202 122.017 288.097 121.73C287.991 121.443 287.837 121.219 287.632 121.057C287.428 120.895 287.176 120.814 286.878 120.814C286.582 120.814 286.332 120.892 286.128 121.048C285.926 121.205 285.771 121.426 285.663 121.713C285.555 122 285.501 122.338 285.501 122.727ZM291.318 126V119.455H293.078V120.597H293.146C293.266 120.19 293.466 119.884 293.747 119.676C294.028 119.466 294.352 119.361 294.719 119.361C294.81 119.361 294.908 119.366 295.013 119.378C295.118 119.389 295.21 119.405 295.29 119.425V121.036C295.205 121.01 295.087 120.987 294.936 120.967C294.786 120.947 294.648 120.938 294.523 120.938C294.256 120.938 294.017 120.996 293.807 121.112C293.599 121.226 293.435 121.385 293.312 121.589C293.193 121.794 293.134 122.03 293.134 122.297V126H291.318ZM298.907 126.128C298.233 126.128 297.654 125.991 297.168 125.719C296.685 125.443 296.313 125.054 296.051 124.551C295.79 124.045 295.659 123.447 295.659 122.757C295.659 122.084 295.79 121.493 296.051 120.984C296.313 120.476 296.681 120.08 297.155 119.795C297.632 119.511 298.192 119.369 298.834 119.369C299.266 119.369 299.668 119.439 300.04 119.578C300.415 119.714 300.742 119.92 301.02 120.196C301.301 120.472 301.52 120.818 301.676 121.236C301.833 121.651 301.911 122.136 301.911 122.693V123.192H296.384V122.067H300.202C300.202 121.805 300.145 121.574 300.032 121.372C299.918 121.17 299.76 121.013 299.559 120.899C299.36 120.783 299.128 120.724 298.864 120.724C298.588 120.724 298.344 120.788 298.131 120.916C297.921 121.041 297.756 121.21 297.637 121.423C297.517 121.634 297.456 121.868 297.453 122.126V123.196C297.453 123.52 297.513 123.8 297.632 124.036C297.755 124.271 297.926 124.453 298.148 124.581C298.37 124.709 298.632 124.773 298.936 124.773C299.138 124.773 299.323 124.744 299.49 124.688C299.658 124.631 299.801 124.545 299.921 124.432C300.04 124.318 300.131 124.179 300.194 124.014L301.873 124.125C301.787 124.528 301.613 124.881 301.348 125.182C301.087 125.48 300.749 125.713 300.334 125.881C299.922 126.045 299.446 126.128 298.907 126.128ZM306.615 119.455V120.818H302.576V119.455H306.615ZM303.5 126V118.982C303.5 118.507 303.593 118.114 303.777 117.801C303.965 117.489 304.221 117.254 304.544 117.098C304.868 116.942 305.236 116.864 305.648 116.864C305.926 116.864 306.181 116.885 306.411 116.928C306.644 116.97 306.817 117.009 306.931 117.043L306.607 118.406C306.536 118.384 306.448 118.362 306.343 118.342C306.24 118.322 306.135 118.312 306.027 118.312C305.76 118.312 305.574 118.375 305.469 118.5C305.364 118.622 305.311 118.794 305.311 119.016V126H303.5ZM310.473 126.128C309.8 126.128 309.22 125.991 308.734 125.719C308.251 125.443 307.879 125.054 307.618 124.551C307.357 124.045 307.226 123.447 307.226 122.757C307.226 122.084 307.357 121.493 307.618 120.984C307.879 120.476 308.247 120.08 308.722 119.795C309.199 119.511 309.759 119.369 310.401 119.369C310.832 119.369 311.234 119.439 311.607 119.578C311.982 119.714 312.308 119.92 312.587 120.196C312.868 120.472 313.087 120.818 313.243 121.236C313.399 121.651 313.477 122.136 313.477 122.693V123.192H307.95V122.067H311.768C311.768 121.805 311.712 121.574 311.598 121.372C311.484 121.17 311.327 121.013 311.125 120.899C310.926 120.783 310.695 120.724 310.43 120.724C310.155 120.724 309.911 120.788 309.697 120.916C309.487 121.041 309.322 121.21 309.203 121.423C309.084 121.634 309.023 121.868 309.02 122.126V123.196C309.02 123.52 309.08 123.8 309.199 124.036C309.321 124.271 309.493 124.453 309.714 124.581C309.936 124.709 310.199 124.773 310.503 124.773C310.705 124.773 310.889 124.744 311.057 124.688C311.224 124.631 311.368 124.545 311.487 124.432C311.607 124.318 311.697 124.179 311.76 124.014L313.439 124.125C313.354 124.528 313.179 124.881 312.915 125.182C312.653 125.48 312.315 125.713 311.901 125.881C311.489 126.045 311.013 126.128 310.473 126.128ZM314.662 126V119.455H316.422V120.597H316.49C316.609 120.19 316.81 119.884 317.091 119.676C317.372 119.466 317.696 119.361 318.062 119.361C318.153 119.361 318.251 119.366 318.357 119.378C318.462 119.389 318.554 119.405 318.634 119.425V121.036C318.548 121.01 318.43 120.987 318.28 120.967C318.129 120.947 317.991 120.938 317.866 120.938C317.599 120.938 317.361 120.996 317.151 121.112C316.943 121.226 316.778 121.385 316.656 121.589C316.537 121.794 316.477 122.03 316.477 122.297V126H314.662ZM319.572 126V119.455H321.332V120.597H321.4C321.52 120.19 321.72 119.884 322.001 119.676C322.282 119.466 322.606 119.361 322.973 119.361C323.064 119.361 323.162 119.366 323.267 119.378C323.372 119.389 323.464 119.405 323.544 119.425V121.036C323.458 121.01 323.341 120.987 323.19 120.967C323.039 120.947 322.902 120.938 322.777 120.938C322.51 120.938 322.271 120.996 322.061 121.112C321.853 121.226 321.689 121.385 321.566 121.589C321.447 121.794 321.387 122.03 321.387 122.297V126H319.572ZM327.161 126.128C326.487 126.128 325.908 125.991 325.422 125.719C324.939 125.443 324.567 125.054 324.305 124.551C324.044 124.045 323.913 123.447 323.913 122.757C323.913 122.084 324.044 121.493 324.305 120.984C324.567 120.476 324.935 120.08 325.409 119.795C325.886 119.511 326.446 119.369 327.088 119.369C327.52 119.369 327.922 119.439 328.294 119.578C328.669 119.714 328.996 119.92 329.274 120.196C329.555 120.472 329.774 120.818 329.93 121.236C330.087 121.651 330.165 122.136 330.165 122.693V123.192H324.638V122.067H328.456C328.456 121.805 328.399 121.574 328.286 121.372C328.172 121.17 328.014 121.013 327.812 120.899C327.614 120.783 327.382 120.724 327.118 120.724C326.842 120.724 326.598 120.788 326.385 120.916C326.175 121.041 326.01 121.21 325.891 121.423C325.771 121.634 325.71 121.868 325.707 122.126V123.196C325.707 123.52 325.767 123.8 325.886 124.036C326.009 124.271 326.18 124.453 326.402 124.581C326.624 124.709 326.886 124.773 327.19 124.773C327.392 124.773 327.577 124.744 327.744 124.688C327.912 124.631 328.055 124.545 328.175 124.432C328.294 124.318 328.385 124.179 328.447 124.014L330.126 124.125C330.041 124.528 329.866 124.881 329.602 125.182C329.341 125.48 329.003 125.713 328.588 125.881C328.176 126.045 327.7 126.128 327.161 126.128ZM333.761 126.107C333.264 126.107 332.814 125.979 332.411 125.723C332.01 125.464 331.692 125.085 331.456 124.585C331.223 124.082 331.107 123.466 331.107 122.736C331.107 121.986 331.227 121.362 331.469 120.865C331.71 120.365 332.031 119.991 332.432 119.744C332.835 119.494 333.277 119.369 333.757 119.369C334.124 119.369 334.429 119.432 334.673 119.557C334.92 119.679 335.119 119.832 335.27 120.017C335.423 120.199 335.54 120.378 335.619 120.554H335.675V117.273H337.486V126H335.696V124.952H335.619C335.534 125.134 335.413 125.314 335.257 125.493C335.104 125.669 334.903 125.815 334.656 125.932C334.412 126.048 334.114 126.107 333.761 126.107ZM334.337 124.662C334.629 124.662 334.876 124.582 335.078 124.423C335.283 124.261 335.439 124.036 335.547 123.746C335.658 123.456 335.713 123.116 335.713 122.727C335.713 122.338 335.659 122 335.551 121.713C335.443 121.426 335.287 121.205 335.082 121.048C334.878 120.892 334.629 120.814 334.337 120.814C334.038 120.814 333.787 120.895 333.582 121.057C333.378 121.219 333.223 121.443 333.118 121.73C333.013 122.017 332.96 122.349 332.96 122.727C332.96 123.108 333.013 123.445 333.118 123.737C333.226 124.027 333.381 124.254 333.582 124.419C333.787 124.581 334.038 124.662 334.337 124.662Z" fill="white"/>
<path d="M425.136 126.107C424.639 126.107 424.189 125.979 423.786 125.723C423.385 125.464 423.067 125.085 422.831 124.585C422.598 124.082 422.482 123.466 422.482 122.736C422.482 121.986 422.602 121.362 422.844 120.865C423.085 120.365 423.406 119.991 423.807 119.744C424.21 119.494 424.652 119.369 425.132 119.369C425.499 119.369 425.804 119.432 426.048 119.557C426.295 119.679 426.494 119.832 426.645 120.017C426.798 120.199 426.915 120.378 426.994 120.554H427.05V117.273H428.861V126H427.071V124.952H426.994C426.909 125.134 426.788 125.314 426.632 125.493C426.479 125.669 426.278 125.815 426.031 125.932C425.787 126.048 425.489 126.107 425.136 126.107ZM425.712 124.662C426.004 124.662 426.251 124.582 426.453 124.423C426.658 124.261 426.814 124.036 426.922 123.746C427.033 123.456 427.088 123.116 427.088 122.727C427.088 122.338 427.034 122 426.926 121.713C426.818 121.426 426.662 121.205 426.457 121.048C426.253 120.892 426.004 120.814 425.712 120.814C425.413 120.814 425.162 120.895 424.957 121.057C424.753 121.219 424.598 121.443 424.493 121.73C424.388 122.017 424.335 122.349 424.335 122.727C424.335 123.108 424.388 123.445 424.493 123.737C424.601 124.027 424.756 124.254 424.957 124.419C425.162 124.581 425.413 124.662 425.712 124.662ZM433.336 126.128C432.663 126.128 432.083 125.991 431.598 125.719C431.115 125.443 430.743 125.054 430.481 124.551C430.22 124.045 430.089 123.447 430.089 122.757C430.089 122.084 430.22 121.493 430.481 120.984C430.743 120.476 431.11 120.08 431.585 119.795C432.062 119.511 432.622 119.369 433.264 119.369C433.696 119.369 434.098 119.439 434.47 119.578C434.845 119.714 435.172 119.92 435.45 120.196C435.731 120.472 435.95 120.818 436.106 121.236C436.262 121.651 436.341 122.136 436.341 122.693V123.192H430.814V122.067H434.632C434.632 121.805 434.575 121.574 434.461 121.372C434.348 121.17 434.19 121.013 433.988 120.899C433.789 120.783 433.558 120.724 433.294 120.724C433.018 120.724 432.774 120.788 432.561 120.916C432.35 121.041 432.186 121.21 432.066 121.423C431.947 121.634 431.886 121.868 431.883 122.126V123.196C431.883 123.52 431.943 123.8 432.062 124.036C432.184 124.271 432.356 124.453 432.578 124.581C432.799 124.709 433.062 124.773 433.366 124.773C433.568 124.773 433.752 124.744 433.92 124.688C434.088 124.631 434.231 124.545 434.35 124.432C434.47 124.318 434.561 124.179 434.623 124.014L436.302 124.125C436.217 124.528 436.042 124.881 435.778 125.182C435.517 125.48 435.179 125.713 434.764 125.881C434.352 126.045 433.876 126.128 433.336 126.128ZM437.525 128.455V119.455H439.315V120.554H439.396C439.475 120.378 439.591 120.199 439.741 120.017C439.895 119.832 440.093 119.679 440.338 119.557C440.585 119.432 440.892 119.369 441.258 119.369C441.735 119.369 442.176 119.494 442.579 119.744C442.983 119.991 443.305 120.365 443.547 120.865C443.788 121.362 443.909 121.986 443.909 122.736C443.909 123.466 443.791 124.082 443.555 124.585C443.322 125.085 443.004 125.464 442.6 125.723C442.2 125.979 441.751 126.107 441.254 126.107C440.902 126.107 440.602 126.048 440.355 125.932C440.11 125.815 439.91 125.669 439.754 125.493C439.598 125.314 439.478 125.134 439.396 124.952H439.341V128.455H437.525ZM439.302 122.727C439.302 123.116 439.356 123.456 439.464 123.746C439.572 124.036 439.728 124.261 439.933 124.423C440.137 124.582 440.386 124.662 440.679 124.662C440.974 124.662 441.224 124.581 441.429 124.419C441.633 124.254 441.788 124.027 441.893 123.737C442.001 123.445 442.055 123.108 442.055 122.727C442.055 122.349 442.002 122.017 441.897 121.73C441.792 121.443 441.637 121.219 441.433 121.057C441.228 120.895 440.977 120.814 440.679 120.814C440.383 120.814 440.133 120.892 439.929 121.048C439.727 121.205 439.572 121.426 439.464 121.713C439.356 122 439.302 122.338 439.302 122.727ZM445.119 126V119.455H446.879V120.597H446.947C447.066 120.19 447.267 119.884 447.548 119.676C447.829 119.466 448.153 119.361 448.52 119.361C448.61 119.361 448.708 119.366 448.814 119.378C448.919 119.389 449.011 119.405 449.091 119.425V121.036C449.005 121.01 448.887 120.987 448.737 120.967C448.586 120.947 448.449 120.938 448.324 120.938C448.056 120.938 447.818 120.996 447.608 121.112C447.4 121.226 447.235 121.385 447.113 121.589C446.994 121.794 446.934 122.03 446.934 122.297V126H445.119ZM452.707 126.128C452.034 126.128 451.455 125.991 450.969 125.719C450.486 125.443 450.114 125.054 449.852 124.551C449.591 124.045 449.46 123.447 449.46 122.757C449.46 122.084 449.591 121.493 449.852 120.984C450.114 120.476 450.482 120.08 450.956 119.795C451.433 119.511 451.993 119.369 452.635 119.369C453.067 119.369 453.469 119.439 453.841 119.578C454.216 119.714 454.543 119.92 454.821 120.196C455.102 120.472 455.321 120.818 455.477 121.236C455.634 121.651 455.712 122.136 455.712 122.693V123.192H450.185V122.067H454.003C454.003 121.805 453.946 121.574 453.832 121.372C453.719 121.17 453.561 121.013 453.359 120.899C453.161 120.783 452.929 120.724 452.665 120.724C452.389 120.724 452.145 120.788 451.932 120.916C451.722 121.041 451.557 121.21 451.438 121.423C451.318 121.634 451.257 121.868 451.254 122.126V123.196C451.254 123.52 451.314 123.8 451.433 124.036C451.555 124.271 451.727 124.453 451.949 124.581C452.17 124.709 452.433 124.773 452.737 124.773C452.939 124.773 453.124 124.744 453.291 124.688C453.459 124.631 453.602 124.545 453.722 124.432C453.841 124.318 453.932 124.179 453.994 124.014L455.673 124.125C455.588 124.528 455.413 124.881 455.149 125.182C454.888 125.48 454.55 125.713 454.135 125.881C453.723 126.045 453.247 126.128 452.707 126.128ZM459.854 126.128C459.183 126.128 458.607 125.986 458.124 125.702C457.643 125.415 457.274 125.017 457.016 124.509C456.76 124 456.632 123.415 456.632 122.753C456.632 122.082 456.761 121.494 457.02 120.989C457.281 120.48 457.652 120.084 458.132 119.8C458.612 119.513 459.183 119.369 459.845 119.369C460.416 119.369 460.916 119.473 461.345 119.68C461.774 119.888 462.114 120.179 462.364 120.554C462.614 120.929 462.751 121.369 462.777 121.875H461.064C461.016 121.548 460.888 121.286 460.68 121.087C460.476 120.885 460.207 120.784 459.875 120.784C459.594 120.784 459.348 120.861 459.138 121.014C458.93 121.165 458.768 121.385 458.652 121.675C458.536 121.964 458.477 122.315 458.477 122.727C458.477 123.145 458.534 123.5 458.648 123.793C458.764 124.085 458.928 124.308 459.138 124.462C459.348 124.615 459.594 124.692 459.875 124.692C460.082 124.692 460.268 124.649 460.433 124.564C460.601 124.479 460.739 124.355 460.847 124.193C460.957 124.028 461.03 123.831 461.064 123.601H462.777C462.749 124.101 462.612 124.541 462.368 124.922C462.126 125.3 461.793 125.595 461.366 125.808C460.94 126.021 460.436 126.128 459.854 126.128ZM465.806 126.124C465.388 126.124 465.016 126.051 464.689 125.906C464.363 125.759 464.104 125.541 463.914 125.254C463.726 124.964 463.632 124.604 463.632 124.172C463.632 123.808 463.699 123.503 463.833 123.256C463.966 123.009 464.148 122.81 464.378 122.659C464.608 122.509 464.87 122.395 465.162 122.318C465.458 122.241 465.767 122.188 466.091 122.156C466.472 122.116 466.779 122.08 467.012 122.045C467.245 122.009 467.414 121.955 467.519 121.884C467.624 121.812 467.676 121.707 467.676 121.568V121.543C467.676 121.273 467.591 121.064 467.421 120.916C467.253 120.768 467.015 120.695 466.705 120.695C466.378 120.695 466.118 120.767 465.925 120.912C465.732 121.054 465.604 121.233 465.542 121.449L463.863 121.312C463.948 120.915 464.115 120.571 464.365 120.281C464.615 119.989 464.938 119.764 465.333 119.608C465.73 119.449 466.191 119.369 466.713 119.369C467.077 119.369 467.425 119.412 467.757 119.497C468.093 119.582 468.39 119.714 468.648 119.893C468.909 120.072 469.115 120.303 469.266 120.584C469.417 120.862 469.492 121.196 469.492 121.585V126H467.77V125.092H467.719C467.614 125.297 467.473 125.477 467.297 125.634C467.121 125.787 466.909 125.908 466.662 125.996C466.415 126.081 466.13 126.124 465.806 126.124ZM466.326 124.871C466.593 124.871 466.828 124.818 467.033 124.713C467.238 124.605 467.398 124.46 467.515 124.278C467.631 124.097 467.689 123.891 467.689 123.661V122.966C467.632 123.003 467.554 123.037 467.455 123.068C467.358 123.097 467.249 123.124 467.127 123.149C467.005 123.172 466.882 123.193 466.76 123.213C466.638 123.23 466.527 123.246 466.428 123.26C466.215 123.291 466.029 123.341 465.87 123.409C465.711 123.477 465.587 123.57 465.499 123.686C465.411 123.8 465.367 123.942 465.367 124.112C465.367 124.359 465.456 124.548 465.635 124.679C465.817 124.807 466.047 124.871 466.326 124.871ZM474.382 119.455V120.818H470.44V119.455H474.382ZM471.335 117.886H473.15V123.989C473.15 124.156 473.176 124.287 473.227 124.381C473.278 124.472 473.349 124.536 473.44 124.572C473.534 124.609 473.642 124.628 473.764 124.628C473.849 124.628 473.934 124.621 474.02 124.607C474.105 124.589 474.17 124.577 474.216 124.568L474.501 125.919C474.41 125.947 474.282 125.98 474.118 126.017C473.953 126.057 473.752 126.081 473.517 126.089C473.079 126.107 472.696 126.048 472.366 125.915C472.039 125.781 471.785 125.574 471.603 125.293C471.422 125.011 471.332 124.656 471.335 124.227V117.886ZM478.477 126.128C477.804 126.128 477.224 125.991 476.738 125.719C476.255 125.443 475.883 125.054 475.622 124.551C475.36 124.045 475.23 123.447 475.23 122.757C475.23 122.084 475.36 121.493 475.622 120.984C475.883 120.476 476.251 120.08 476.725 119.795C477.203 119.511 477.762 119.369 478.404 119.369C478.836 119.369 479.238 119.439 479.61 119.578C479.985 119.714 480.312 119.92 480.591 120.196C480.872 120.472 481.091 120.818 481.247 121.236C481.403 121.651 481.481 122.136 481.481 122.693V123.192H475.954V122.067H479.772C479.772 121.805 479.716 121.574 479.602 121.372C479.488 121.17 479.331 121.013 479.129 120.899C478.93 120.783 478.699 120.724 478.434 120.724C478.159 120.724 477.914 120.788 477.701 120.916C477.491 121.041 477.326 121.21 477.207 121.423C477.088 121.634 477.027 121.868 477.024 122.126V123.196C477.024 123.52 477.083 123.8 477.203 124.036C477.325 124.271 477.497 124.453 477.718 124.581C477.94 124.709 478.203 124.773 478.507 124.773C478.708 124.773 478.893 124.744 479.061 124.688C479.228 124.631 479.372 124.545 479.491 124.432C479.61 124.318 479.701 124.179 479.764 124.014L481.443 124.125C481.358 124.528 481.183 124.881 480.919 125.182C480.657 125.48 480.319 125.713 479.904 125.881C479.493 126.045 479.017 126.128 478.477 126.128ZM485.078 126.107C484.581 126.107 484.13 125.979 483.727 125.723C483.326 125.464 483.008 125.085 482.772 124.585C482.539 124.082 482.423 123.466 482.423 122.736C482.423 121.986 482.544 121.362 482.785 120.865C483.027 120.365 483.348 119.991 483.748 119.744C484.152 119.494 484.593 119.369 485.074 119.369C485.44 119.369 485.745 119.432 485.99 119.557C486.237 119.679 486.436 119.832 486.586 120.017C486.74 120.199 486.856 120.378 486.936 120.554H486.991V117.273H488.802V126H487.012V124.952H486.936C486.85 125.134 486.73 125.314 486.574 125.493C486.42 125.669 486.22 125.815 485.973 125.932C485.728 126.048 485.43 126.107 485.078 126.107ZM485.653 124.662C485.946 124.662 486.193 124.582 486.395 124.423C486.599 124.261 486.755 124.036 486.863 123.746C486.974 123.456 487.029 123.116 487.029 122.727C487.029 122.338 486.975 122 486.868 121.713C486.76 121.426 486.603 121.205 486.399 121.048C486.194 120.892 485.946 120.814 485.653 120.814C485.355 120.814 485.103 120.895 484.899 121.057C484.694 121.219 484.539 121.443 484.434 121.73C484.329 122.017 484.277 122.349 484.277 122.727C484.277 123.108 484.329 123.445 484.434 123.737C484.542 124.027 484.697 124.254 484.899 124.419C485.103 124.581 485.355 124.662 485.653 124.662Z" fill="white"/>
<path d="M561.724 126V119.455H563.54V126H561.724ZM562.636 118.611C562.366 118.611 562.135 118.521 561.942 118.342C561.751 118.161 561.656 117.943 561.656 117.69C561.656 117.44 561.751 117.226 561.942 117.047C562.135 116.865 562.366 116.774 562.636 116.774C562.906 116.774 563.136 116.865 563.327 117.047C563.52 117.226 563.616 117.44 563.616 117.69C563.616 117.943 563.52 118.161 563.327 118.342C563.136 118.521 562.906 118.611 562.636 118.611ZM566.809 122.216V126H564.994V119.455H566.724V120.609H566.801C566.946 120.229 567.189 119.928 567.529 119.706C567.87 119.482 568.284 119.369 568.77 119.369C569.224 119.369 569.62 119.469 569.958 119.668C570.297 119.866 570.559 120.151 570.747 120.52C570.934 120.886 571.028 121.324 571.028 121.832V126H569.213V122.156C569.216 121.756 569.113 121.443 568.906 121.219C568.699 120.991 568.413 120.878 568.049 120.878C567.805 120.878 567.589 120.93 567.402 121.036C567.217 121.141 567.072 121.294 566.967 121.496C566.865 121.695 566.812 121.935 566.809 122.216ZM578.327 119.455L576.038 126H573.993L571.705 119.455H573.622L574.982 124.138H575.05L576.405 119.455H578.327ZM580.946 126.124C580.529 126.124 580.157 126.051 579.83 125.906C579.503 125.759 579.245 125.541 579.054 125.254C578.867 124.964 578.773 124.604 578.773 124.172C578.773 123.808 578.84 123.503 578.973 123.256C579.107 123.009 579.289 122.81 579.519 122.659C579.749 122.509 580.01 122.395 580.303 122.318C580.598 122.241 580.908 122.188 581.232 122.156C581.613 122.116 581.919 122.08 582.152 122.045C582.385 122.009 582.554 121.955 582.659 121.884C582.765 121.812 582.817 121.707 582.817 121.568V121.543C582.817 121.273 582.732 121.064 582.561 120.916C582.394 120.768 582.155 120.695 581.846 120.695C581.519 120.695 581.259 120.767 581.066 120.912C580.873 121.054 580.745 121.233 580.682 121.449L579.003 121.312C579.088 120.915 579.256 120.571 579.506 120.281C579.756 119.989 580.078 119.764 580.473 119.608C580.871 119.449 581.331 119.369 581.854 119.369C582.218 119.369 582.566 119.412 582.898 119.497C583.233 119.582 583.53 119.714 583.789 119.893C584.05 120.072 584.256 120.303 584.407 120.584C584.557 120.862 584.632 121.196 584.632 121.585V126H582.911V125.092H582.86C582.755 125.297 582.614 125.477 582.438 125.634C582.262 125.787 582.05 125.908 581.803 125.996C581.556 126.081 581.27 126.124 580.946 126.124ZM581.466 124.871C581.733 124.871 581.969 124.818 582.174 124.713C582.378 124.605 582.539 124.46 582.655 124.278C582.772 124.097 582.83 123.891 582.83 123.661V122.966C582.773 123.003 582.695 123.037 582.596 123.068C582.499 123.097 582.39 123.124 582.267 123.149C582.145 123.172 582.023 123.193 581.901 123.213C581.779 123.23 581.668 123.246 581.569 123.26C581.355 123.291 581.169 123.341 581.01 123.409C580.851 123.477 580.728 123.57 580.64 123.686C580.551 123.8 580.507 123.942 580.507 124.112C580.507 124.359 580.597 124.548 580.776 124.679C580.958 124.807 581.188 124.871 581.466 124.871ZM587.856 117.273V126H586.041V117.273H587.856ZM589.31 126V119.455H591.126V126H589.31ZM590.222 118.611C589.952 118.611 589.721 118.521 589.528 118.342C589.337 118.161 589.242 117.943 589.242 117.69C589.242 117.44 589.337 117.226 589.528 117.047C589.721 116.865 589.952 116.774 590.222 116.774C590.492 116.774 590.722 116.865 590.913 117.047C591.106 117.226 591.202 117.44 591.202 117.69C591.202 117.943 591.106 118.161 590.913 118.342C590.722 118.521 590.492 118.611 590.222 118.611ZM594.992 126.107C594.495 126.107 594.044 125.979 593.641 125.723C593.24 125.464 592.922 125.085 592.686 124.585C592.453 124.082 592.337 123.466 592.337 122.736C592.337 121.986 592.458 121.362 592.699 120.865C592.941 120.365 593.262 119.991 593.662 119.744C594.066 119.494 594.507 119.369 594.988 119.369C595.354 119.369 595.659 119.432 595.904 119.557C596.151 119.679 596.35 119.832 596.5 120.017C596.654 120.199 596.77 120.378 596.85 120.554H596.905V117.273H598.716V126H596.926V124.952H596.85C596.765 125.134 596.644 125.314 596.488 125.493C596.334 125.669 596.134 125.815 595.887 125.932C595.642 126.048 595.344 126.107 594.992 126.107ZM595.567 124.662C595.86 124.662 596.107 124.582 596.309 124.423C596.513 124.261 596.669 124.036 596.777 123.746C596.888 123.456 596.944 123.116 596.944 122.727C596.944 122.338 596.89 122 596.782 121.713C596.674 121.426 596.517 121.205 596.313 121.048C596.108 120.892 595.86 120.814 595.567 120.814C595.269 120.814 595.017 120.895 594.813 121.057C594.608 121.219 594.453 121.443 594.348 121.73C594.243 122.017 594.191 122.349 594.191 122.727C594.191 123.108 594.243 123.445 594.348 123.737C594.456 124.027 594.611 124.254 594.813 124.419C595.017 124.581 595.269 124.662 595.567 124.662Z" fill="white"/>
<path d="M636 107L631 104.113V109.887L636 107ZM121 107.5H631.5V106.5H121V107.5Z" fill="white"/>
<path d="M386 58L381 55.1132V60.8868L386 58ZM121 58L126 60.8868V55.1132L121 58ZM381.5 57.5L125.5 57.5V58.5L381.5 58.5V57.5Z" fill="white"/>
<path d="M276.335 67.2727L278.445 73.9034H278.526L280.639 67.2727H282.685L279.676 76H277.298L274.286 67.2727H276.335ZM284.841 76.1236C284.423 76.1236 284.051 76.0511 283.724 75.9062C283.398 75.7585 283.139 75.5412 282.949 75.2543C282.761 74.9645 282.668 74.6037 282.668 74.1719C282.668 73.8082 282.734 73.5028 282.868 73.2557C283.001 73.0085 283.183 72.8097 283.413 72.6591C283.643 72.5085 283.905 72.3949 284.197 72.3182C284.493 72.2415 284.803 72.1875 285.126 72.1562C285.507 72.1165 285.814 72.0795 286.047 72.0455C286.28 72.0085 286.449 71.9545 286.554 71.8835C286.659 71.8125 286.712 71.7074 286.712 71.5682V71.5426C286.712 71.2727 286.626 71.0639 286.456 70.9162C286.288 70.7685 286.05 70.6946 285.74 70.6946C285.413 70.6946 285.153 70.767 284.96 70.9119C284.767 71.054 284.639 71.233 284.577 71.4489L282.898 71.3125C282.983 70.9148 283.151 70.571 283.401 70.2812C283.651 69.9886 283.973 69.7642 284.368 69.608C284.766 69.4489 285.226 69.3693 285.749 69.3693C286.112 69.3693 286.46 69.4119 286.793 69.4972C287.128 69.5824 287.425 69.7145 287.683 69.8935C287.945 70.0724 288.151 70.3026 288.301 70.5838C288.452 70.8622 288.527 71.196 288.527 71.5852V76H286.805V75.0923H286.754C286.649 75.2969 286.509 75.4773 286.332 75.6335C286.156 75.7869 285.945 75.9077 285.697 75.9957C285.45 76.081 285.165 76.1236 284.841 76.1236ZM285.361 74.8707C285.628 74.8707 285.864 74.8182 286.068 74.7131C286.273 74.6051 286.433 74.4602 286.55 74.2784C286.666 74.0966 286.724 73.8906 286.724 73.6605V72.9659C286.668 73.0028 286.589 73.0369 286.49 73.0682C286.393 73.0966 286.284 73.1236 286.162 73.1491C286.04 73.1719 285.918 73.1932 285.795 73.2131C285.673 73.2301 285.562 73.2457 285.463 73.2599C285.25 73.2912 285.064 73.3409 284.905 73.4091C284.746 73.4773 284.622 73.5696 284.534 73.6861C284.446 73.7997 284.402 73.9418 284.402 74.1122C284.402 74.3594 284.491 74.5483 284.67 74.679C284.852 74.8068 285.082 74.8707 285.361 74.8707ZM291.751 67.2727V76H289.935V67.2727H291.751ZM293.205 76V69.4545H295.02V76H293.205ZM294.117 68.6108C293.847 68.6108 293.615 68.5213 293.422 68.3423C293.232 68.1605 293.137 67.9432 293.137 67.6903C293.137 67.4403 293.232 67.2259 293.422 67.0469C293.615 66.8651 293.847 66.7741 294.117 66.7741C294.387 66.7741 294.617 66.8651 294.807 67.0469C295 67.2259 295.097 67.4403 295.097 67.6903C295.097 67.9432 295 68.1605 294.807 68.3423C294.617 68.5213 294.387 68.6108 294.117 68.6108ZM298.886 76.1065C298.389 76.1065 297.939 75.9787 297.536 75.723C297.135 75.4645 296.817 75.0852 296.581 74.5852C296.348 74.0824 296.232 73.4659 296.232 72.7358C296.232 71.9858 296.352 71.3622 296.594 70.8651C296.835 70.3651 297.156 69.9915 297.557 69.7443C297.96 69.4943 298.402 69.3693 298.882 69.3693C299.249 69.3693 299.554 69.4318 299.798 69.5568C300.045 69.679 300.244 69.8324 300.395 70.017C300.548 70.1989 300.665 70.3778 300.744 70.554H300.8V67.2727H302.611V76H300.821V74.9517H300.744C300.659 75.1335 300.538 75.3139 300.382 75.4929C300.229 75.669 300.028 75.8153 299.781 75.9318C299.537 76.0483 299.239 76.1065 298.886 76.1065ZM299.462 74.6619C299.754 74.6619 300.001 74.5824 300.203 74.4233C300.408 74.2614 300.564 74.0355 300.672 73.7457C300.783 73.456 300.838 73.1165 300.838 72.7273C300.838 72.3381 300.784 72 300.676 71.7131C300.568 71.4261 300.412 71.2045 300.207 71.0483C300.003 70.892 299.754 70.8139 299.462 70.8139C299.163 70.8139 298.912 70.8949 298.707 71.0568C298.503 71.2187 298.348 71.4432 298.243 71.7301C298.138 72.017 298.085 72.3494 298.085 72.7273C298.085 73.108 298.138 73.4446 298.243 73.7372C298.351 74.027 298.506 74.2543 298.707 74.419C298.912 74.581 299.163 74.6619 299.462 74.6619ZM306.915 76V67.2727H308.76V74.4787H312.501V76H306.915ZM313.689 76V69.4545H315.505V76H313.689ZM314.601 68.6108C314.331 68.6108 314.1 68.5213 313.907 68.3423C313.716 68.1605 313.621 67.9432 313.621 67.6903C313.621 67.4403 313.716 67.2259 313.907 67.0469C314.1 66.8651 314.331 66.7741 314.601 66.7741C314.871 66.7741 315.101 66.8651 315.292 67.0469C315.485 67.2259 315.581 67.4403 315.581 67.6903C315.581 67.9432 315.485 68.1605 315.292 68.3423C315.101 68.5213 314.871 68.6108 314.601 68.6108ZM320.479 69.4545V70.8182H316.439V69.4545H320.479ZM317.364 76V68.9815C317.364 68.5071 317.456 68.1136 317.641 67.8011C317.828 67.4886 318.084 67.2543 318.408 67.098C318.732 66.9418 319.099 66.8636 319.511 66.8636C319.79 66.8636 320.044 66.8849 320.274 66.9276C320.507 66.9702 320.68 67.0085 320.794 67.0426L320.47 68.4062C320.399 68.3835 320.311 68.3622 320.206 68.3423C320.104 68.3224 319.999 68.3125 319.891 68.3125C319.624 68.3125 319.438 68.375 319.332 68.5C319.227 68.6222 319.175 68.794 319.175 69.0156V76H317.364ZM324.336 76.1278C323.663 76.1278 323.083 75.9915 322.598 75.7188C322.115 75.4432 321.743 75.054 321.481 74.5511C321.22 74.0455 321.089 73.4474 321.089 72.7571C321.089 72.0838 321.22 71.4929 321.481 70.9844C321.743 70.4759 322.11 70.0795 322.585 69.7955C323.062 69.5114 323.622 69.3693 324.264 69.3693C324.696 69.3693 325.098 69.4389 325.47 69.5781C325.845 69.7145 326.172 69.9205 326.45 70.196C326.731 70.4716 326.95 70.8182 327.106 71.2358C327.262 71.6506 327.341 72.1364 327.341 72.6932V73.1918H321.814V72.0668H325.632C325.632 71.8054 325.575 71.5739 325.461 71.3722C325.348 71.1705 325.19 71.0128 324.988 70.8991C324.789 70.7827 324.558 70.7244 324.294 70.7244C324.018 70.7244 323.774 70.7884 323.561 70.9162C323.35 71.0412 323.186 71.2102 323.066 71.4233C322.947 71.6335 322.886 71.8679 322.883 72.1264V73.196C322.883 73.5199 322.943 73.7997 323.062 74.0355C323.184 74.2713 323.356 74.4531 323.578 74.581C323.799 74.7088 324.062 74.7727 324.366 74.7727C324.568 74.7727 324.752 74.7443 324.92 74.6875C325.088 74.6307 325.231 74.5455 325.35 74.4318C325.47 74.3182 325.561 74.179 325.623 74.0142L327.302 74.125C327.217 74.5284 327.042 74.8807 326.778 75.1818C326.517 75.4801 326.179 75.7131 325.764 75.8807C325.352 76.0455 324.876 76.1278 324.336 76.1278ZM332.007 69.4545V70.8182H328.065V69.4545H332.007ZM328.96 67.8864H330.775V73.9886C330.775 74.1562 330.801 74.2869 330.852 74.3807C330.903 74.4716 330.974 74.5355 331.065 74.5724C331.159 74.6094 331.267 74.6278 331.389 74.6278C331.474 74.6278 331.559 74.6207 331.645 74.6065C331.73 74.5895 331.795 74.5767 331.841 74.5682L332.126 75.919C332.035 75.9474 331.907 75.9801 331.743 76.017C331.578 76.0568 331.377 76.081 331.142 76.0895C330.704 76.1065 330.321 76.0483 329.991 75.9148C329.664 75.7812 329.41 75.5739 329.228 75.2926C329.047 75.0114 328.957 74.6562 328.96 74.2273V67.8864ZM333.189 76V69.4545H335.005V76H333.189ZM334.101 68.6108C333.831 68.6108 333.6 68.5213 333.407 68.3423C333.216 68.1605 333.121 67.9432 333.121 67.6903C333.121 67.4403 333.216 67.2259 333.407 67.0469C333.6 66.8651 333.831 66.7741 334.101 66.7741C334.371 66.7741 334.601 66.8651 334.792 67.0469C334.985 67.2259 335.081 67.4403 335.081 67.6903C335.081 67.9432 334.985 68.1605 334.792 68.3423C334.601 68.5213 334.371 68.6108 334.101 68.6108ZM336.459 76V69.4545H338.189V70.6094H338.266C338.402 70.2259 338.629 69.9233 338.947 69.7017C339.266 69.4801 339.646 69.3693 340.089 69.3693C340.538 69.3693 340.92 69.4815 341.236 69.706C341.551 69.9276 341.761 70.2287 341.866 70.6094H341.935C342.068 70.2344 342.31 69.9347 342.659 69.7102C343.011 69.483 343.428 69.3693 343.908 69.3693C344.518 69.3693 345.014 69.5639 345.395 69.9531C345.778 70.3395 345.97 70.8878 345.97 71.598V76H344.159V71.956C344.159 71.5923 344.063 71.3196 343.869 71.1378C343.676 70.956 343.435 70.8651 343.145 70.8651C342.815 70.8651 342.558 70.9702 342.374 71.1804C342.189 71.3878 342.097 71.6619 342.097 72.0028V76H340.337V71.9176C340.337 71.5966 340.244 71.3409 340.06 71.1506C339.878 70.9602 339.638 70.8651 339.339 70.8651C339.138 70.8651 338.956 70.9162 338.794 71.0185C338.635 71.1179 338.509 71.2585 338.415 71.4403C338.321 71.6193 338.274 71.8295 338.274 72.071V76H336.459ZM350.387 76.1278C349.714 76.1278 349.134 75.9915 348.648 75.7188C348.165 75.4432 347.793 75.054 347.532 74.5511C347.271 74.0455 347.14 73.4474 347.14 72.7571C347.14 72.0838 347.271 71.4929 347.532 70.9844C347.793 70.4759 348.161 70.0795 348.636 69.7955C349.113 69.5114 349.673 69.3693 350.315 69.3693C350.746 69.3693 351.148 69.4389 351.521 69.5781C351.896 69.7145 352.222 69.9205 352.501 70.196C352.782 70.4716 353.001 70.8182 353.157 71.2358C353.313 71.6506 353.391 72.1364 353.391 72.6932V73.1918H347.864V72.0668H351.683C351.683 71.8054 351.626 71.5739 351.512 71.3722C351.398 71.1705 351.241 71.0128 351.039 70.8991C350.84 70.7827 350.609 70.7244 350.344 70.7244C350.069 70.7244 349.825 70.7884 349.612 70.9162C349.401 71.0412 349.237 71.2102 349.117 71.4233C348.998 71.6335 348.937 71.8679 348.934 72.1264V73.196C348.934 73.5199 348.994 73.7997 349.113 74.0355C349.235 74.2713 349.407 74.4531 349.629 74.581C349.85 74.7088 350.113 74.7727 350.417 74.7727C350.619 74.7727 350.803 74.7443 350.971 74.6875C351.138 74.6307 351.282 74.5455 351.401 74.4318C351.521 74.3182 351.612 74.179 351.674 74.0142L353.353 74.125C353.268 74.5284 353.093 74.8807 352.829 75.1818C352.567 75.4801 352.229 75.7131 351.815 75.8807C351.403 76.0455 350.927 76.1278 350.387 76.1278Z" fill="white"/>
<path d="M526 85L521 82.1132V87.8868L526 85ZM121 85L126 87.8868V82.1132L121 85ZM521.5 84.5L125.5 84.5V85.5L521.5 85.5V84.5Z" fill="white"/>
<line x1="121.5" y1="111" x2="121.5" y2="103" stroke="white"/>
<line x1="235.5" y1="111" x2="235.5" y2="103" stroke="white"/>
<line x1="385.5" y1="111" x2="385.5" y2="103" stroke="white"/>
<line x1="525.5" y1="111" x2="525.5" y2="103" stroke="white"/>
</svg>
