<svg width="792" height="187" viewBox="0 0 792 187" fill="none" xmlns="http://www.w3.org/2000/svg">
<rect width="792" height="187" fill="#1B1B1D"/>
<path d="M205.828 89.2727V98H203.983V89.2727H205.828ZM209.128 94.2159V98H207.312V91.4545H209.042V92.6094H209.119C209.264 92.2287 209.507 91.9276 209.848 91.706C210.189 91.4815 210.602 91.3693 211.088 91.3693C211.542 91.3693 211.939 91.4688 212.277 91.6676C212.615 91.8665 212.878 92.1506 213.065 92.5199C213.253 92.8864 213.346 93.3239 213.346 93.8324V98H211.531V94.1562C211.534 93.7557 211.432 93.4432 211.224 93.2188C211.017 92.9915 210.731 92.8778 210.368 92.8778C210.123 92.8778 209.907 92.9304 209.72 93.0355C209.535 93.1406 209.39 93.294 209.285 93.4957C209.183 93.6946 209.131 93.9347 209.128 94.2159ZM214.777 100.455V91.4545H216.567V92.554H216.648C216.727 92.3778 216.843 92.1989 216.993 92.017C217.146 91.8324 217.345 91.679 217.59 91.5568C217.837 91.4318 218.144 91.3693 218.51 91.3693C218.987 91.3693 219.428 91.4943 219.831 91.7443C220.235 91.9915 220.557 92.3651 220.798 92.8651C221.04 93.3622 221.161 93.9858 221.161 94.7358C221.161 95.4659 221.043 96.0824 220.807 96.5852C220.574 97.0852 220.256 97.4645 219.852 97.723C219.452 97.9787 219.003 98.1065 218.506 98.1065C218.154 98.1065 217.854 98.0483 217.607 97.9318C217.362 97.8153 217.162 97.669 217.006 97.4929C216.85 97.3139 216.73 97.1335 216.648 96.9517H216.593V100.455H214.777ZM216.554 94.7273C216.554 95.1165 216.608 95.456 216.716 95.7457C216.824 96.0355 216.98 96.2614 217.185 96.4233C217.389 96.5824 217.638 96.6619 217.931 96.6619C218.226 96.6619 218.476 96.581 218.681 96.419C218.885 96.2543 219.04 96.027 219.145 95.7372C219.253 95.4446 219.307 95.108 219.307 94.7273C219.307 94.3494 219.254 94.017 219.149 93.7301C219.044 93.4432 218.889 93.2187 218.685 93.0568C218.48 92.8949 218.229 92.8139 217.931 92.8139C217.635 92.8139 217.385 92.892 217.181 93.0483C216.979 93.2045 216.824 93.4261 216.716 93.7131C216.608 94 216.554 94.3381 216.554 94.7273ZM226.568 95.2131V91.4545H228.384V98H226.641V96.8111H226.573C226.425 97.1946 226.179 97.5028 225.835 97.7358C225.494 97.9687 225.078 98.0852 224.587 98.0852C224.149 98.0852 223.764 97.9858 223.432 97.7869C223.1 97.5881 222.84 97.3054 222.652 96.9389C222.468 96.5724 222.374 96.1335 222.371 95.6222V91.4545H224.186V95.2983C224.189 95.6847 224.293 95.9901 224.497 96.2145C224.702 96.4389 224.976 96.5511 225.32 96.5511C225.539 96.5511 225.743 96.5014 225.933 96.402C226.124 96.2997 226.277 96.1491 226.394 95.9503C226.513 95.7514 226.571 95.5057 226.568 95.2131ZM233.317 91.4545V92.8182H229.376V91.4545H233.317ZM230.27 89.8864H232.086V95.9886C232.086 96.1562 232.111 96.2869 232.162 96.3807C232.214 96.4716 232.285 96.5355 232.376 96.5724C232.469 96.6094 232.577 96.6278 232.699 96.6278C232.785 96.6278 232.87 96.6207 232.955 96.6065C233.04 96.5895 233.106 96.5767 233.151 96.5682L233.437 97.919C233.346 97.9474 233.218 97.9801 233.053 98.017C232.888 98.0568 232.688 98.081 232.452 98.0895C232.015 98.1065 231.631 98.0483 231.302 97.9148C230.975 97.7812 230.721 97.5739 230.539 97.2926C230.357 97.0114 230.268 96.6562 230.27 96.2273V89.8864Z" fill="white"/>
<path d="M298 94L293 91.1132V96.8868L298 94ZM257 94.5H293.5V93.5H257V94.5Z" fill="white"/>
<path d="M416 94L411 91.1132V96.8868L416 94ZM375 94.5H411.5V93.5H375V94.5Z" fill="white"/>
<path d="M534 94L529 91.1132V96.8868L534 94ZM493 94.5H529.5V93.5H493V94.5Z" fill="white"/>
<rect x="184.5" y="77.5" width="68" height="33" rx="4.5" stroke="#D9D9D9"/>
<path d="M318.116 98V89.2727H321.559C322.221 89.2727 322.785 89.3991 323.251 89.652C323.717 89.902 324.072 90.25 324.316 90.696C324.563 91.1392 324.687 91.6506 324.687 92.2301C324.687 92.8097 324.562 93.321 324.312 93.7642C324.062 94.2074 323.7 94.5526 323.225 94.7997C322.754 95.0469 322.183 95.1705 321.512 95.1705H319.318V93.6918H321.214C321.569 93.6918 321.862 93.6307 322.092 93.5085C322.325 93.3835 322.498 93.2116 322.612 92.9929C322.728 92.7713 322.786 92.517 322.786 92.2301C322.786 91.9403 322.728 91.6875 322.612 91.4716C322.498 91.2528 322.325 91.0838 322.092 90.9645C321.859 90.8423 321.563 90.7812 321.205 90.7812H319.961V98H318.116ZM327.542 98.1236C327.124 98.1236 326.752 98.0511 326.426 97.9062C326.099 97.7585 325.84 97.5412 325.65 97.2543C325.463 96.9645 325.369 96.6037 325.369 96.1719C325.369 95.8082 325.436 95.5028 325.569 95.2557C325.703 95.0085 325.884 94.8097 326.115 94.6591C326.345 94.5085 326.606 94.3949 326.899 94.3182C327.194 94.2415 327.504 94.1875 327.828 94.1562C328.208 94.1165 328.515 94.0795 328.748 94.0455C328.981 94.0085 329.15 93.9545 329.255 93.8835C329.36 93.8125 329.413 93.7074 329.413 93.5682V93.5426C329.413 93.2727 329.328 93.0639 329.157 92.9162C328.99 92.7685 328.751 92.6946 328.441 92.6946C328.115 92.6946 327.855 92.767 327.661 92.9119C327.468 93.054 327.34 93.233 327.278 93.4489L325.599 93.3125C325.684 92.9148 325.852 92.571 326.102 92.2812C326.352 91.9886 326.674 91.7642 327.069 91.608C327.467 91.4489 327.927 91.3693 328.45 91.3693C328.813 91.3693 329.161 91.4119 329.494 91.4972C329.829 91.5824 330.126 91.7145 330.384 91.8935C330.646 92.0724 330.852 92.3026 331.002 92.5838C331.153 92.8622 331.228 93.196 331.228 93.5852V98H329.507V97.0923H329.455C329.35 97.2969 329.21 97.4773 329.034 97.6335C328.857 97.7869 328.646 97.9077 328.399 97.9957C328.151 98.081 327.866 98.1236 327.542 98.1236ZM328.062 96.8707C328.329 96.8707 328.565 96.8182 328.769 96.7131C328.974 96.6051 329.134 96.4602 329.251 96.2784C329.367 96.0966 329.426 95.8906 329.426 95.6605V94.9659C329.369 95.0028 329.291 95.0369 329.191 95.0682C329.095 95.0966 328.985 95.1236 328.863 95.1491C328.741 95.1719 328.619 95.1932 328.497 95.2131C328.374 95.2301 328.264 95.2457 328.164 95.2599C327.951 95.2912 327.765 95.3409 327.606 95.4091C327.447 95.4773 327.323 95.5696 327.235 95.6861C327.147 95.7997 327.103 95.9418 327.103 96.1122C327.103 96.3594 327.193 96.5483 327.372 96.679C327.553 96.8068 327.784 96.8707 328.062 96.8707ZM332.637 98V91.4545H334.396V92.5966H334.465C334.584 92.1903 334.784 91.8835 335.066 91.6761C335.347 91.4659 335.671 91.3608 336.037 91.3608C336.128 91.3608 336.226 91.3665 336.331 91.3778C336.436 91.3892 336.529 91.4048 336.608 91.4247V93.0355C336.523 93.0099 336.405 92.9872 336.254 92.9673C336.104 92.9474 335.966 92.9375 335.841 92.9375C335.574 92.9375 335.335 92.9957 335.125 93.1122C334.918 93.2259 334.753 93.3849 334.631 93.5895C334.512 93.794 334.452 94.0298 334.452 94.2969V98H332.637ZM342.993 93.321L341.331 93.4233C341.302 93.2812 341.241 93.1534 341.148 93.0398C341.054 92.9233 340.93 92.831 340.777 92.7628C340.626 92.6918 340.446 92.6562 340.236 92.6562C339.954 92.6562 339.717 92.7159 339.524 92.8352C339.331 92.9517 339.234 93.108 339.234 93.304C339.234 93.4602 339.297 93.5923 339.422 93.7003C339.547 93.8082 339.761 93.8949 340.065 93.9602L341.25 94.1989C341.886 94.3295 342.361 94.5398 342.673 94.8295C342.986 95.1193 343.142 95.5 343.142 95.9716C343.142 96.4006 343.015 96.777 342.763 97.1009C342.513 97.4247 342.169 97.6776 341.731 97.8594C341.297 98.0384 340.795 98.1278 340.227 98.1278C339.361 98.1278 338.67 97.9474 338.156 97.5866C337.645 97.223 337.345 96.7287 337.257 96.1037L339.042 96.0099C339.096 96.2741 339.227 96.4759 339.434 96.6151C339.642 96.7514 339.907 96.8196 340.231 96.8196C340.55 96.8196 340.805 96.7585 340.998 96.6364C341.194 96.5114 341.294 96.3509 341.297 96.1548C341.294 95.9901 341.224 95.8551 341.088 95.75C340.952 95.642 340.741 95.5597 340.457 95.5028L339.324 95.277C338.684 95.1491 338.209 94.9276 337.896 94.6122C337.586 94.2969 337.432 93.8949 337.432 93.4062C337.432 92.9858 337.545 92.6236 337.773 92.3196C338.003 92.0156 338.325 91.7812 338.74 91.6165C339.157 91.4517 339.646 91.3693 340.206 91.3693C341.032 91.3693 341.683 91.544 342.157 91.8935C342.635 92.2429 342.913 92.7187 342.993 93.321ZM347.268 98.1278C346.595 98.1278 346.015 97.9915 345.529 97.7188C345.046 97.4432 344.674 97.054 344.413 96.5511C344.151 96.0455 344.021 95.4474 344.021 94.7571C344.021 94.0838 344.151 93.4929 344.413 92.9844C344.674 92.4759 345.042 92.0795 345.517 91.7955C345.994 91.5114 346.553 91.3693 347.195 91.3693C347.627 91.3693 348.029 91.4389 348.401 91.5781C348.776 91.7145 349.103 91.9205 349.382 92.196C349.663 92.4716 349.882 92.8182 350.038 93.2358C350.194 93.6506 350.272 94.1364 350.272 94.6932V95.1918H344.745V94.0668H348.563C348.563 93.8054 348.507 93.5739 348.393 93.3722C348.279 93.1705 348.122 93.0128 347.92 92.8991C347.721 92.7827 347.49 92.7244 347.225 92.7244C346.95 92.7244 346.705 92.7884 346.492 92.9162C346.282 93.0412 346.117 93.2102 345.998 93.4233C345.879 93.6335 345.818 93.8679 345.815 94.1264V95.196C345.815 95.5199 345.874 95.7997 345.994 96.0355C346.116 96.2713 346.288 96.4531 346.509 96.581C346.731 96.7088 346.994 96.7727 347.298 96.7727C347.499 96.7727 347.684 96.7443 347.852 96.6875C348.019 96.6307 348.163 96.5455 348.282 96.4318C348.401 96.3182 348.492 96.179 348.555 96.0142L350.234 96.125C350.149 96.5284 349.974 96.8807 349.71 97.1818C349.448 97.4801 349.11 97.7131 348.695 97.8807C348.284 98.0455 347.808 98.1278 347.268 98.1278ZM351.457 98V91.4545H353.217V92.5966H353.285C353.404 92.1903 353.605 91.8835 353.886 91.6761C354.167 91.4659 354.491 91.3608 354.857 91.3608C354.948 91.3608 355.046 91.3665 355.151 91.3778C355.257 91.3892 355.349 91.4048 355.428 91.4247V93.0355C355.343 93.0099 355.225 92.9872 355.075 92.9673C354.924 92.9474 354.786 92.9375 354.661 92.9375C354.394 92.9375 354.156 92.9957 353.945 93.1122C353.738 93.2259 353.573 93.3849 353.451 93.5895C353.332 93.794 353.272 94.0298 353.272 94.2969V98H351.457Z" fill="white"/>
<rect x="302.5" y="77.5" width="68" height="33" rx="4.5" stroke="#D9D9D9"/>
<path d="M440.141 98V89.2727H445.92V90.794H441.987V92.8736H445.536V94.3949H441.987V98H440.141ZM447.127 98V91.4545H448.942V98H447.127ZM448.039 90.6108C447.769 90.6108 447.537 90.5213 447.344 90.3423C447.154 90.1605 447.059 89.9432 447.059 89.6903C447.059 89.4403 447.154 89.2259 447.344 89.0469C447.537 88.8651 447.769 88.7741 448.039 88.7741C448.309 88.7741 448.539 88.8651 448.729 89.0469C448.922 89.2259 449.019 89.4403 449.019 89.6903C449.019 89.9432 448.922 90.1605 448.729 90.3423C448.539 90.5213 448.309 90.6108 448.039 90.6108ZM452.212 89.2727V98H450.396V89.2727H452.212ZM457.147 91.4545V92.8182H453.206V91.4545H457.147ZM454.1 89.8864H455.916V95.9886C455.916 96.1562 455.941 96.2869 455.993 96.3807C456.044 96.4716 456.115 96.5355 456.206 96.5724C456.299 96.6094 456.407 96.6278 456.529 96.6278C456.615 96.6278 456.7 96.6207 456.785 96.6065C456.87 96.5895 456.936 96.5767 456.981 96.5682L457.267 97.919C457.176 97.9474 457.048 97.9801 456.883 98.017C456.718 98.0568 456.518 98.081 456.282 98.0895C455.845 98.1065 455.461 98.0483 455.132 97.9148C454.805 97.7812 454.551 97.5739 454.369 97.2926C454.187 97.0114 454.098 96.6562 454.1 96.2273V89.8864ZM461.243 98.1278C460.569 98.1278 459.99 97.9915 459.504 97.7188C459.021 97.4432 458.649 97.054 458.387 96.5511C458.126 96.0455 457.995 95.4474 457.995 94.7571C457.995 94.0838 458.126 93.4929 458.387 92.9844C458.649 92.4759 459.017 92.0795 459.491 91.7955C459.968 91.5114 460.528 91.3693 461.17 91.3693C461.602 91.3693 462.004 91.4389 462.376 91.5781C462.751 91.7145 463.078 91.9205 463.356 92.196C463.637 92.4716 463.856 92.8182 464.012 93.2358C464.169 93.6506 464.247 94.1364 464.247 94.6932V95.1918H458.72V94.0668H462.538C462.538 93.8054 462.481 93.5739 462.368 93.3722C462.254 93.1705 462.096 93.0128 461.895 92.8991C461.696 92.7827 461.464 92.7244 461.2 92.7244C460.924 92.7244 460.68 92.7884 460.467 92.9162C460.257 93.0412 460.092 93.2102 459.973 93.4233C459.853 93.6335 459.792 93.8679 459.789 94.1264V95.196C459.789 95.5199 459.849 95.7997 459.968 96.0355C460.091 96.2713 460.262 96.4531 460.484 96.581C460.706 96.7088 460.968 96.7727 461.272 96.7727C461.474 96.7727 461.659 96.7443 461.826 96.6875C461.994 96.6307 462.137 96.5455 462.257 96.4318C462.376 96.3182 462.467 96.179 462.529 96.0142L464.208 96.125C464.123 96.5284 463.949 96.8807 463.684 97.1818C463.423 97.4801 463.085 97.7131 462.67 97.8807C462.258 98.0455 461.782 98.1278 461.243 98.1278ZM465.431 98V91.4545H467.191V92.5966H467.26C467.379 92.1903 467.579 91.8835 467.86 91.6761C468.142 91.4659 468.466 91.3608 468.832 91.3608C468.923 91.3608 469.021 91.3665 469.126 91.3778C469.231 91.3892 469.324 91.4048 469.403 91.4247V93.0355C469.318 93.0099 469.2 92.9872 469.049 92.9673C468.899 92.9474 468.761 92.9375 468.636 92.9375C468.369 92.9375 468.13 92.9957 467.92 93.1122C467.713 93.2259 467.548 93.3849 467.426 93.5895C467.306 93.794 467.247 94.0298 467.247 94.2969V98H465.431Z" fill="white"/>
<rect x="420.5" y="77.5" width="68" height="33" rx="4.5" stroke="#D9D9D9"/>
<path d="M561.159 93.6364C561.159 94.5881 560.979 95.3977 560.618 96.0653C560.26 96.733 559.771 97.2429 559.152 97.5952C558.536 97.9446 557.843 98.1193 557.073 98.1193C556.297 98.1193 555.601 97.9432 554.985 97.5909C554.368 97.2386 553.881 96.7287 553.523 96.0611C553.165 95.3935 552.986 94.5852 552.986 93.6364C552.986 92.6847 553.165 91.875 553.523 91.2074C553.881 90.5398 554.368 90.0312 554.985 89.6818C555.601 89.3295 556.297 89.1534 557.073 89.1534C557.843 89.1534 558.536 89.3295 559.152 89.6818C559.771 90.0312 560.26 90.5398 560.618 91.2074C560.979 91.875 561.159 92.6847 561.159 93.6364ZM559.289 93.6364C559.289 93.0199 559.196 92.5 559.012 92.0767C558.83 91.6534 558.573 91.3324 558.24 91.1136C557.908 90.8949 557.519 90.7855 557.073 90.7855C556.627 90.7855 556.237 90.8949 555.905 91.1136C555.573 91.3324 555.314 91.6534 555.129 92.0767C554.948 92.5 554.857 93.0199 554.857 93.6364C554.857 94.2528 554.948 94.7727 555.129 95.196C555.314 95.6193 555.573 95.9403 555.905 96.1591C556.237 96.3778 556.627 96.4872 557.073 96.4872C557.519 96.4872 557.908 96.3778 558.24 96.1591C558.573 95.9403 558.83 95.6193 559.012 95.196C559.196 94.7727 559.289 94.2528 559.289 93.6364ZM566.689 95.2131V91.4545H568.505V98H566.762V96.8111H566.694C566.546 97.1946 566.3 97.5028 565.956 97.7358C565.616 97.9687 565.199 98.0852 564.708 98.0852C564.27 98.0852 563.885 97.9858 563.553 97.7869C563.221 97.5881 562.961 97.3054 562.773 96.9389C562.589 96.5724 562.495 96.1335 562.492 95.6222V91.4545H564.307V95.2983C564.31 95.6847 564.414 95.9901 564.618 96.2145C564.823 96.4389 565.097 96.5511 565.441 96.5511C565.66 96.5511 565.864 96.5014 566.055 96.402C566.245 96.2997 566.398 96.1491 566.515 95.9503C566.634 95.7514 566.692 95.5057 566.689 95.2131ZM573.438 91.4545V92.8182H569.497V91.4545H573.438ZM570.392 89.8864H572.207V95.9886C572.207 96.1562 572.232 96.2869 572.284 96.3807C572.335 96.4716 572.406 96.5355 572.497 96.5724C572.59 96.6094 572.698 96.6278 572.82 96.6278C572.906 96.6278 572.991 96.6207 573.076 96.6065C573.161 96.5895 573.227 96.5767 573.272 96.5682L573.558 97.919C573.467 97.9474 573.339 97.9801 573.174 98.017C573.009 98.0568 572.809 98.081 572.573 98.0895C572.136 98.1065 571.752 98.0483 571.423 97.9148C571.096 97.7812 570.842 97.5739 570.66 97.2926C570.478 97.0114 570.389 96.6562 570.392 96.2273V89.8864ZM574.621 100.455V91.4545H576.411V92.554H576.492C576.571 92.3778 576.686 92.1989 576.837 92.017C576.99 91.8324 577.189 91.679 577.433 91.5568C577.681 91.4318 577.987 91.3693 578.354 91.3693C578.831 91.3693 579.271 91.4943 579.675 91.7443C580.078 91.9915 580.401 92.3651 580.642 92.8651C580.884 93.3622 581.004 93.9858 581.004 94.7358C581.004 95.4659 580.887 96.0824 580.651 96.5852C580.418 97.0852 580.1 97.4645 579.696 97.723C579.296 97.9787 578.847 98.1065 578.35 98.1065C577.997 98.1065 577.698 98.0483 577.45 97.9318C577.206 97.8153 577.006 97.669 576.85 97.4929C576.693 97.3139 576.574 97.1335 576.492 96.9517H576.436V100.455H574.621ZM576.398 94.7273C576.398 95.1165 576.452 95.456 576.56 95.7457C576.668 96.0355 576.824 96.2614 577.029 96.4233C577.233 96.5824 577.482 96.6619 577.774 96.6619C578.07 96.6619 578.32 96.581 578.524 96.419C578.729 96.2543 578.884 96.027 578.989 95.7372C579.097 95.4446 579.151 95.108 579.151 94.7273C579.151 94.3494 579.098 94.017 578.993 93.7301C578.888 93.4432 578.733 93.2187 578.529 93.0568C578.324 92.8949 578.073 92.8139 577.774 92.8139C577.479 92.8139 577.229 92.892 577.024 93.0483C576.823 93.2045 576.668 93.4261 576.56 93.7131C576.452 94 576.398 94.3381 576.398 94.7273ZM586.412 95.2131V91.4545H588.227V98H586.485V96.8111H586.416C586.269 97.1946 586.023 97.5028 585.679 97.7358C585.338 97.9687 584.922 98.0852 584.431 98.0852C583.993 98.0852 583.608 97.9858 583.276 97.7869C582.943 97.5881 582.683 97.3054 582.496 96.9389C582.311 96.5724 582.218 96.1335 582.215 95.6222V91.4545H584.03V95.2983C584.033 95.6847 584.137 95.9901 584.341 96.2145C584.546 96.4389 584.82 96.5511 585.164 96.5511C585.382 96.5511 585.587 96.5014 585.777 96.402C585.968 96.2997 586.121 96.1491 586.237 95.9503C586.357 95.7514 586.415 95.5057 586.412 95.2131ZM593.161 91.4545V92.8182H589.219V91.4545H593.161ZM590.114 89.8864H591.93V95.9886C591.93 96.1562 591.955 96.2869 592.006 96.3807C592.057 96.4716 592.128 96.5355 592.219 96.5724C592.313 96.6094 592.421 96.6278 592.543 96.6278C592.628 96.6278 592.714 96.6207 592.799 96.6065C592.884 96.5895 592.949 96.5767 592.995 96.5682L593.28 97.919C593.189 97.9474 593.062 97.9801 592.897 98.017C592.732 98.0568 592.532 98.081 592.296 98.0895C591.858 98.1065 591.475 98.0483 591.145 97.9148C590.819 97.7812 590.564 97.5739 590.383 97.2926C590.201 97.0114 590.111 96.6562 590.114 96.2273V89.8864Z" fill="white"/>
<rect x="538.5" y="77.5" width="68" height="33" rx="4.5" stroke="#D9D9D9"/>
</svg>
